<svg width="13" height="14" viewBox="0 0 13 14" fill="none" xmlns="http://www.w3.org/2000/svg">
<g clip-path="url(#clip0_14315_25796)">
<path fill-rule="evenodd" clip-rule="evenodd" d="M0 7.00025C0 5.24442 0.684819 3.5605 1.90381 2.31894C3.12279 1.07738 4.77609 0.379883 6.5 0.379883C8.22391 0.379883 9.87721 1.07738 11.0962 2.31894C12.3152 3.5605 13 5.24442 13 7.00025C13 8.75608 12.3152 10.44 11.0962 11.6816C9.87721 12.9231 8.22391 13.6206 6.5 13.6206C4.77609 13.6206 3.12279 12.9231 1.90381 11.6816C0.684819 10.44 0 8.75608 0 7.00025H0ZM6.12907 9.83377L9.87133 5.06887L9.19533 4.51806L6.00427 8.57943L3.744 6.66129L3.18933 7.33922L6.12907 9.83465V9.83377Z" fill="#011C2A"/>
</g>
<defs>
<clipPath id="clip0_14315_25796">
<rect width="13" height="13.2407" fill="white" transform="translate(0 0.379883)"/>
</clipPath>
</defs>
</svg>
