<svg width="390" height="60" viewBox="0 0 390 60" fill="none" xmlns="http://www.w3.org/2000/svg">
<path fill-rule="evenodd" clip-rule="evenodd" d="M2.47703 27.1386C0.0998845 31.5023 -0.643076 36.2144 0.583373 41.345C3.46818 53.4131 16.3741 64.3007 28.0165 58.2993C34.4388 54.9871 36.9803 46.8742 32.5661 40.5932C30.1454 37.1487 26.2743 34.2518 22.0406 31.4923C16.5917 28.0462 8.65923 22.5454 9.47794 14.96C6.32882 18.5149 4.18858 22.6074 6.68016 27.167C8.59316 30.6634 12.1855 33.8684 16.727 36.9109C18.6723 38.4029 20.5611 39.9535 21.9342 42.0198C25.8021 47.837 21.3637 51.7738 15.6859 51.104C10.0597 50.4409 7.31514 47.5859 6.08869 43.5821C8.27728 45.4207 10.54 47.1237 13.2105 47.8504C17.6102 49.0477 18.7786 46.2145 17.5135 43.0915C16.8463 41.4438 15.6134 39.8849 14.1194 38.6407C9.48277 34.7693 6.62214 32.2274 2.47703 27.1386Z" fill="#194185"/>
<path fill-rule="evenodd" clip-rule="evenodd" d="M30.5482 56.5813C35.0286 52.6797 36.3436 45.9666 32.5676 40.5932C30.1469 37.1487 26.2758 34.2519 22.0421 31.4923C16.5932 28.0462 8.66074 22.5454 9.47944 14.96C7.6164 20.5327 8.51569 24.3137 12.4932 28.2873C17.4054 33.1936 23.9631 36.772 28.3887 42.0634C31.5684 45.8662 33.2413 50.4359 30.5482 56.5813Z" fill="#3A94CF"/>
<path fill-rule="evenodd" clip-rule="evenodd" d="M17.9856 45.5632C18.0308 44.8147 17.868 43.964 17.5118 43.0883C16.8446 41.4406 15.6101 39.8816 14.1177 38.6374C9.47947 34.7677 6.62045 32.2241 2.47534 27.1387C6.60916 37.8186 14.7463 37.9593 17.9856 45.5632Z" fill="#3A94CF"/>
<mask id="mask0_14932_372" style="mask-type:luminance" maskUnits="userSpaceOnUse" x="12" y="0" width="32" height="56">
<path d="M12.2805 0H43.6363V55.8244H12.2805V0Z" fill="white"/>
</mask>
<g mask="url(#mask0_14932_372)">
<path fill-rule="evenodd" clip-rule="evenodd" d="M22.1146 0C16.822 4.22308 10.2547 10.0269 13.3506 16.8672C15.9131 22.527 24.0889 27.7933 28.7416 31.7083C37.106 38.7429 43.4832 44.3742 35.0576 55.4008C41.9876 48.5755 44.816 40.7003 38.1455 32.4987C36.3018 30.2297 34.1067 28.1131 31.5894 26.1322C26.8383 22.3914 19.9695 18.2403 19.9244 11.2443C23.9938 17.753 27.5813 19.4325 33.0962 23.5987C38.2164 27.4651 41.5911 31.9377 43.3091 36.983C42.8579 31.2043 40.7337 26.0016 37.3445 21.241C34.8658 17.7564 31.7248 14.5263 28.7642 11.189C25.4378 7.4331 23.615 5.08377 22.1146 0Z" fill="#3A94CF"/>
</g>
<mask id="mask1_14932_372" style="mask-type:luminance" maskUnits="userSpaceOnUse" x="21" y="0" width="23" height="38">
<path d="M21.7698 0H43.6363V37.3915H21.7698V0Z" fill="white"/>
</mask>
<g mask="url(#mask1_14932_372)">
<path fill-rule="evenodd" clip-rule="evenodd" d="M42.3971 34.6952C42.7403 35.4454 43.0433 36.2056 43.3092 36.9825C42.858 31.2038 40.7339 26.0012 37.3446 21.2406C34.8659 17.756 31.7249 14.5258 28.7643 11.1886C25.4363 7.43603 23.6152 5.08503 22.1147 0.00292969C22.1405 3.65668 22.9238 6.86 24.5564 10.0734C26.5258 13.9481 29.0576 15.8973 32.4066 19.1542C34.0198 20.7215 35.5267 22.3926 36.9143 24.1844C39.1641 27.0846 41.7363 31.0615 42.3971 34.6952Z" fill="#3A94CF"/>
</g>
<path fill-rule="evenodd" clip-rule="evenodd" d="M13.6939 8.95312C12.4433 11.3878 12.0694 14.0386 13.349 16.8668C15.9115 22.5266 24.0856 27.7929 28.7384 31.7079C31.1301 33.7173 33.3573 35.6145 35.1237 37.5535C29.9955 30.1707 21.5667 25.961 16.814 18.9582C14.793 15.9793 13.5698 12.6487 13.6939 8.95312Z" fill="#3A94CF"/>
<path d="M82.5402 54.9996C80.4702 54.9996 78.5605 54.7859 76.8244 54.3586C75.075 53.9312 73.4724 53.3837 72.0168 52.7026C70.5478 51.9948 69.1589 51.2603 67.8501 50.5124L67.7967 39.7219C68.825 40.4698 69.9468 41.2176 71.1621 41.9655C72.364 42.6866 73.6193 43.341 74.9014 43.942C76.2101 44.5162 77.5189 44.9836 78.8009 45.3309C80.083 45.6514 81.3249 45.8116 82.5402 45.8116C83.7154 45.8116 84.7571 45.5979 85.6919 45.1706C86.6133 44.7165 87.3478 44.0755 87.882 43.2475C88.4162 42.3928 88.6833 41.3512 88.6833 40.0959C88.6833 39.0008 88.3227 38.066 87.6149 37.3181C86.9339 36.5702 85.9723 35.9025 84.7303 35.2882C83.475 34.6873 82.0194 34.0596 80.35 33.4186C78.3869 32.7108 76.6241 31.9229 75.0616 31.0682C73.5258 30.2135 72.2037 29.2519 71.1087 28.1836C70.0002 27.0885 69.1455 25.7797 68.5446 24.284C67.9303 22.7616 67.6365 20.9587 67.6365 18.8888C67.6365 16.752 68.0238 14.829 68.8117 13.1196C69.6263 11.4102 70.7481 9.95455 72.177 8.73928C73.6327 7.53737 75.3421 6.60255 77.3052 5.96153C79.255 5.32051 81.3917 5 83.7154 5C85.9189 5 88.0556 5.2938 90.1256 5.85469C92.1822 6.42894 94.2388 7.23022 96.2687 8.25852V18.4614C95.1202 17.58 93.8382 16.8055 92.4226 16.1644C91.0337 15.4967 89.5914 14.9759 88.0957 14.6153C86.6267 14.228 85.2378 14.0277 83.9291 14.0277C81.8992 14.0277 80.3233 14.5352 79.2283 15.5234C78.1599 16.4849 77.6257 17.7136 77.6257 19.2093C77.6257 20.3578 77.9195 21.2926 78.5338 22.0405C79.1748 22.7883 80.0562 23.4293 81.2047 23.9635C82.3399 24.4977 83.6353 25.0319 85.1043 25.5661C87.0273 26.2071 88.8169 26.9549 90.4995 27.8096C92.1689 28.6376 93.6245 29.6259 94.8798 30.8011C96.1619 31.9496 97.1368 33.285 97.8178 34.8074C98.5256 36.3032 98.8862 38.066 98.8862 40.0959C98.8862 42.4863 98.4722 44.6231 97.6576 46.5061C96.8296 48.3624 95.6945 49.9248 94.2388 51.2069C92.7698 52.4622 91.0471 53.397 89.0572 54.0381C87.054 54.6791 84.8906 54.9996 82.5402 54.9996Z" fill="white"/>
<path d="M152.217 17.0732C154.247 17.0732 155.97 17.3804 157.399 17.9814C158.855 18.5556 160.043 19.3569 160.978 20.3852C161.9 21.4268 162.634 22.6154 163.168 23.9642C163.702 25.3264 164.076 26.782 164.29 28.3445C164.504 29.8803 164.61 31.4428 164.61 33.0453V53.7717H155.155V32.9919C155.155 31.9235 155.062 30.9086 154.888 29.9471C154.741 28.9855 154.461 28.1575 154.034 27.4364C153.633 26.6885 153.072 26.1277 152.324 25.727C151.576 25.2997 150.615 25.086 149.44 25.086C148.158 25.086 146.849 25.5 145.54 26.3146C144.258 27.1025 143.11 28.1709 142.121 29.5197C142.188 30.134 142.228 30.7216 142.228 31.2825C142.255 31.8568 142.282 32.4444 142.282 33.0453V53.7717H133.04V32.9919C133.04 30.4278 132.586 28.4781 131.705 27.1159C130.85 25.7671 129.408 25.086 127.378 25.086C126.096 25.086 124.814 25.5 123.532 26.3146C122.276 27.1426 121.155 28.2377 120.166 29.6266V53.7717H110.658V18.3019H118.724L119.792 21.9877C121.355 20.492 123.024 19.3035 124.814 18.4087C126.63 17.5273 128.406 17.0732 130.156 17.0732C132.039 17.0732 133.655 17.3403 135.017 17.8745C136.366 18.382 137.487 19.0898 138.382 20.0113C139.304 20.906 140.051 21.961 140.626 23.1629C141.721 21.9877 142.923 20.9461 144.205 20.0113C145.513 19.0898 146.849 18.382 148.211 17.8745C149.56 17.3403 150.895 17.0732 152.217 17.0732Z" fill="white"/>
<path d="M192.038 17.0732C195.697 17.0732 198.689 17.6876 201.012 18.8895C203.363 20.0647 205.086 21.7741 206.194 24.0176C207.329 26.2612 207.903 28.9722 207.903 32.1372L207.85 53.7717H199.837L198.715 50.0324C197.781 50.9939 196.712 51.8486 195.51 52.5965C194.335 53.3443 193.08 53.9319 191.771 54.3593C190.449 54.7866 189.113 55.0003 187.765 55.0003C185.481 55.0003 183.505 54.5863 181.835 53.7717C180.193 52.917 178.924 51.6883 178.042 50.0858C177.148 48.4832 176.707 46.5602 176.707 44.3166C176.707 42.0463 177.241 40.0832 178.31 38.4406C179.378 36.7713 180.874 35.4759 182.797 34.541C184.72 33.6196 186.963 33.1522 189.527 33.1522C190.729 33.1522 192.105 33.2457 193.641 33.4193C195.203 33.6062 196.792 33.8333 198.395 34.1137V32.3509C198.395 31.3894 198.288 30.4812 198.074 29.6266C197.887 28.7452 197.54 27.9572 197.006 27.2761C196.472 26.5684 195.671 26.0208 194.602 25.6202C193.561 25.2329 192.212 25.0326 190.542 25.0326C188.219 25.0326 186.002 25.3798 183.865 26.0475C181.728 26.6885 179.765 27.5299 177.989 28.5582L178.844 20.4386C180.66 19.3702 182.69 18.5556 184.933 17.9814C187.204 17.3804 189.581 17.0732 192.038 17.0732ZM190.756 48.0559C192.172 48.0559 193.547 47.722 194.869 47.0409C196.178 46.3331 197.353 45.3583 198.395 44.1029V39.5624C197.22 39.322 196.071 39.1217 194.976 38.9748C193.868 38.8412 192.759 38.7611 191.664 38.7611C189.634 38.7611 188.045 39.1083 186.91 39.776C185.802 40.4571 185.254 41.6724 185.254 43.4085C185.254 45.0511 185.735 46.2397 186.696 46.9875C187.658 47.7087 189.007 48.0559 190.756 48.0559Z" fill="white"/>
<path d="M244.179 17.8745L244.713 26.5283C243.604 26.141 242.589 25.8606 241.668 25.6736C240.733 25.4599 239.825 25.3531 238.944 25.3531C237.408 25.3531 235.965 25.8071 234.617 26.6885C233.254 27.5432 232.106 28.7051 231.144 30.1607V53.7717H221.636V18.3019H229.702L230.771 22.2548C232.159 20.5187 233.615 19.21 235.151 18.3553C236.673 17.5006 238.222 17.0732 239.798 17.0732C240.613 17.0732 241.401 17.1534 242.149 17.2869C242.896 17.3938 243.564 17.5941 244.179 17.8745Z" fill="white"/>
<path d="M252.606 25.0319L267.51 8.20508H268.579V18.3011H279.476V26.4742H268.365V40.4163C268.365 41.6984 268.592 42.7935 269.059 43.6749C269.553 44.5296 270.208 45.1706 271.036 45.5979C271.85 46.0253 272.745 46.2389 273.707 46.2389C274.842 46.2389 275.897 46.1588 276.858 45.9719C277.847 45.7582 278.728 45.5312 279.476 45.2774C280.224 44.997 280.785 44.7833 281.185 44.6364L280.918 53.1299C279.917 53.5973 278.728 54.0113 277.339 54.412C275.95 54.7992 274.254 54.9996 272.264 54.9996C269.727 54.9996 267.59 54.639 265.854 53.9312C264.105 53.2635 262.716 52.2752 261.688 50.9932C260.686 49.6844 259.951 48.1353 259.497 46.3458C259.07 44.5296 258.856 42.5397 258.856 40.3629V26.4742H252.606V25.0319Z" fill="white"/>
<path d="M328.67 54.9996C326.6 54.9996 324.69 54.7859 322.954 54.3586C321.205 53.9312 319.602 53.3837 318.147 52.7026C316.678 51.9948 315.289 51.2603 313.98 50.5124L313.927 39.7219C314.955 40.4698 316.077 41.2176 317.292 41.9655C318.494 42.6866 319.749 43.341 321.031 43.942C322.34 44.5162 323.649 44.9836 324.931 45.3309C326.213 45.6514 327.455 45.8116 328.67 45.8116C329.845 45.8116 330.887 45.5979 331.822 45.1706C332.743 44.7165 333.478 44.0755 334.012 43.2475C334.546 42.3928 334.813 41.3512 334.813 40.0959C334.813 39.0008 334.453 38.066 333.745 37.3181C333.064 36.5702 332.102 35.9025 330.86 35.2882C329.605 34.6873 328.149 34.0596 326.48 33.4186C324.517 32.7108 322.754 31.9229 321.192 31.0682C319.656 30.2135 318.334 29.2519 317.239 28.1836C316.13 27.0885 315.275 25.7797 314.674 24.284C314.06 22.7616 313.766 20.9587 313.766 18.8888C313.766 16.752 314.154 14.829 314.942 13.1196C315.756 11.4102 316.878 9.95455 318.307 8.73928C319.763 7.53737 321.472 6.60255 323.435 5.96153C325.385 5.32051 327.522 5 329.845 5C332.049 5 334.186 5.2938 336.255 5.85469C338.312 6.42894 340.369 7.23022 342.399 8.25852V18.4614C341.25 17.58 339.968 16.8055 338.552 16.1644C337.164 15.4967 335.721 14.9759 334.226 14.6153C332.757 14.228 331.368 14.0277 330.059 14.0277C328.029 14.0277 326.453 14.5352 325.358 15.5234C324.29 16.4849 323.756 17.7136 323.756 19.2093C323.756 20.3578 324.049 21.2926 324.664 22.0405C325.305 22.7883 326.186 23.4293 327.335 23.9635C328.47 24.4977 329.765 25.0319 331.234 25.5661C333.157 26.2071 334.947 26.9549 336.629 27.8096C338.299 28.6376 339.754 29.6259 341.01 30.8011C342.292 31.9496 343.267 33.285 343.948 34.8074C344.656 36.3032 345.016 38.066 345.016 40.0959C345.016 42.4863 344.602 44.6231 343.787 46.5061C342.959 48.3624 341.824 49.9248 340.369 51.2069C338.9 52.4622 337.177 53.397 335.187 54.0381C333.184 54.6791 331.02 54.9996 328.67 54.9996Z" fill="white"/>
<path d="M380.398 18.3008H389.907V53.7706H381.841L380.719 49.871C379.677 50.8726 378.542 51.7674 377.3 52.5419C376.045 53.2898 374.749 53.8774 373.401 54.3048C372.078 54.7588 370.743 54.9992 369.394 54.9992C366.643 54.9992 364.319 54.4116 362.396 53.2364C360.5 52.0612 359.058 50.2717 358.069 47.8411C357.068 45.3839 356.574 42.2322 356.574 38.3861V18.3008H366.029V38.4395C366.029 41.2173 366.536 43.3406 367.578 44.7963C368.606 46.2252 370.222 46.933 372.439 46.933C373.507 46.933 374.522 46.7461 375.484 46.3454C376.445 45.9181 377.353 45.3705 378.208 44.6894C379.063 43.9817 379.811 43.1937 380.452 42.339L380.398 18.3008Z" fill="white"/>
</svg>
