<svg width="100" height="107" viewBox="0 0 100 107" fill="none" xmlns="http://www.w3.org/2000/svg">
<g filter="url(#filter0_dd_14932_572)">
<path d="M37.9038 79.6731V84.3654C37.9038 84.8462 38.2115 85.3269 38.8268 85.6731L55.9038 95.6154C57.1538 96.3269 59.2115 96.3269 60.4615 95.6154L71.6345 89.1539C72.2884 88.7885 72.5961 88.3077 72.5961 87.8077V83.1731C72.6153 82.6731 72.3076 82.1923 71.6538 81.8077L54.5768 71.8846C53.3461 71.1731 51.3076 71.1539 50.0384 71.8846L38.8461 78.3462C38.2307 78.7116 37.9038 79.1923 37.9038 79.6731Z" fill="#1D2943"/>
<path d="M37.9038 79.6826V84.3711C37.9038 84.8538 38.2115 85.3211 38.8211 85.6749L55.9076 95.6095C57.1461 96.3345 59.2076 96.3345 60.4653 95.6095L71.6384 89.1538C72.2826 88.7826 72.5884 88.2999 72.5884 87.8172V83.1288C72.5884 83.6115 72.2845 84.0788 71.6403 84.4499L60.4653 90.9057C59.2095 91.6307 57.1634 91.6307 55.9076 90.9057L38.8384 80.9865C38.2115 80.6326 37.9038 80.1499 37.9038 79.6826Z" fill="#1D2943"/>
<path d="M38.8498 78.3503C37.594 79.0753 37.5883 80.2619 38.8344 80.9849L55.9113 90.9119C57.1575 91.6349 59.2075 91.6349 60.4613 90.9119L71.6479 84.4522C72.9113 83.7215 72.9094 82.5426 71.6633 81.8176L54.5844 71.8945C53.3383 71.1695 51.2998 71.1638 50.0344 71.8945L38.8498 78.3503Z" fill="#4C5C75"/>
<path d="M59.9576 90.0387L71.1441 83.5791C71.6941 83.2617 71.7499 83.0348 71.1557 82.6887L54.0787 72.7656C53.1403 72.2233 51.4845 72.2194 50.5403 72.7656L39.3537 79.2233C38.798 79.5444 38.7614 79.7752 39.3403 80.1137L56.4191 90.0387C57.346 90.5771 59.0114 90.5829 59.9576 90.0387Z" fill="#1D2943"/>
<path d="M49.6038 54.5777L49.6807 81.5854C49.6827 82.5143 50.2923 83.4412 51.5115 84.1508C53.9788 85.5835 57.9846 85.5893 60.4673 84.1566C61.7115 83.4374 62.3288 82.4989 62.3269 81.5604L62.25 54.5527C62.2538 55.4912 61.6346 56.4297 60.3904 57.1489C57.9096 58.5816 53.9019 58.5758 51.4346 57.1412C50.2173 56.4335 49.6077 55.5066 49.6038 54.5777Z" fill="#F3F1FC"/>
<path d="M51.475 51.9676C48.9942 53.4003 48.9789 55.7138 51.4365 57.1407C53.9019 58.5753 57.9077 58.583 60.3904 57.1484C62.8731 55.7138 62.8654 53.4003 60.3981 51.9676C57.9423 50.5407 53.9577 50.533 51.475 51.9676Z" fill="#E9E7FC"/>
<path d="M27.2884 53.0196C27.2884 55.308 28.8845 58.0965 30.8845 59.2311L80.3076 87.8465C81.4038 88.4811 82.3845 88.4811 83.0384 87.9619C82.9807 88.0196 82.923 88.058 82.8653 88.0965L88.2499 84.9619C88.8845 84.5965 89.2884 83.7888 89.2884 82.6542L89.3845 39.1734C89.3845 36.885 87.7691 34.0965 85.7884 32.9426L36.3653 4.3465C35.3653 3.75035 34.4614 3.71188 33.8076 4.0965L28.5768 7.13496L28.423 7.21188C28.4614 7.19265 28.4807 7.17342 28.5191 7.17342C27.8076 7.51958 27.3845 8.3465 27.3653 9.53881L27.2884 53.0196Z" fill="#1D2943"/>
<path d="M89.3749 39.1716C89.3884 36.8831 87.773 34.0966 85.7884 32.9408L36.3711 4.34464C35.3653 3.76002 34.4634 3.71002 33.8018 4.09079L28.423 7.21964C29.0845 6.83695 29.9865 6.88887 30.9922 7.46002L80.4095 36.0677C82.3941 37.2119 84.0095 40.01 83.9961 42.2985L83.9191 85.7754C83.9076 86.9216 83.5134 87.7081 82.8653 88.0908L88.2441 84.9619C88.8922 84.5927 89.2865 83.7927 89.2865 82.66L89.3749 39.1716Z" fill="#4C5C75"/>
<path d="M30.9904 7.46784C29.0019 6.31784 27.3807 7.24284 27.375 9.53707L27.2884 53.0159C27.2827 55.3005 28.8923 58.089 30.8827 59.239L80.298 87.8409C82.2865 88.989 83.9077 88.0659 83.9134 85.7794L84 42.3025C84.0077 40.0063 82.3961 37.2178 80.4077 36.0698L30.9904 7.46784Z" fill="#1D2943"/>
<path d="M27.2885 48.4238V53.02C27.2885 55.3084 28.8846 58.0969 30.8846 59.2315L80.3077 87.8469C81.4038 88.4815 82.4038 88.4815 83.0577 87.9431C83 88.0008 82.9423 88.0392 82.8846 88.0777L88.2115 84.9815C88.8654 84.6161 89.3077 83.77 89.2885 82.6354V78.0584L83.9231 81.1738L27.2885 48.4238Z" fill="#9EA9C9"/>
<path d="M27.2883 48.4297V53.0162C27.2825 55.3008 28.8921 58.0893 30.8825 59.2393L80.2979 87.8412C82.2863 88.9893 83.9075 88.0662 83.9133 85.7797L83.9248 81.1778L27.2883 48.4297Z" fill="#C9CEE2"/>
<path d="M83.9269 85.7307L83.9231 81.1807L89.2961 78.0557L89.2865 82.6307C89.3154 83.771 88.8596 84.6114 88.2173 84.9768L82.8788 88.0807C83.5231 87.7018 83.9154 86.8691 83.9269 85.7307Z" fill="#9EA9C9"/>
<path d="M55.6134 66.2635C54.5941 65.6751 53.7672 66.1443 53.7653 67.3174C53.7614 68.4904 54.5807 69.9097 55.6018 70.4981C56.6211 71.0885 57.4461 70.6174 57.448 69.4462C57.4518 68.2731 56.6326 66.8539 55.6134 66.2635Z" fill="#1D2943"/>
<path d="M29.0672 47.5527L82.1845 78.295L82.2384 42.3007C82.2557 40.6334 80.9749 38.4238 79.5364 37.5834L30.1191 8.97958C29.7153 8.75266 29.4691 8.73535 29.3826 8.73535C29.2768 8.76997 29.1364 8.99689 29.1364 9.54304L29.0672 47.5527Z" fill="white"/>
<path d="M54.5384 40.0579L52.6346 38.6541L52.6538 35.6156L55.1923 34.1541L54.25 32.1541L56.8461 30.6348L58.7307 29.5771L60 31.4425L62.5384 29.9618L65.173 31.481L65.4423 33.8271C66.1538 34.4425 66.8269 35.1541 67.4423 35.9425L69 35.5002L70.8461 38.7118L69.673 39.8079C70.0577 40.7118 70.3461 41.6733 70.5 42.5964L72.4038 44.0002V47.0387L69.8653 48.5002L70.8077 50.5002L68.1923 52.0195L66.3269 53.0772L65.0384 51.231L62.5 52.6925L59.8653 51.1733L59.6153 48.8271C58.8846 48.231 58.2115 47.5002 57.6153 46.7118L56.0577 47.1541L54.2115 43.9425L55.3653 42.8464C55 41.9425 54.7115 40.981 54.5384 40.0579ZM63.6153 45.0964C64.0769 45.3656 64.5 45.5002 64.9038 45.5772C65.0577 45.1925 65.1346 44.7695 65.1538 44.2502C65.1538 41.8079 63.4423 38.8271 61.3077 37.5964C60.8461 37.3271 60.4038 37.1925 60 37.1156C59.8653 37.5002 59.7692 37.9233 59.7692 38.4425C59.75 40.8848 61.4807 43.8656 63.6153 45.0964Z" fill="#E93565"/>
<path d="M62.5075 52.7025L65.121 51.1833L65.394 49.1448L62.7825 50.6641L62.5075 52.7025ZM54.5614 36.4237L57.1767 34.9045L55.2652 34.1025L52.6498 35.6218L54.5614 36.4237Z" fill="#DF3260"/>
<path d="M57.4364 39.8082C57.4248 42.2505 59.1402 45.2255 61.2748 46.4543C62.3479 47.0735 63.321 47.1409 64.0171 46.7312L66.3633 45.3697C65.6556 45.7793 64.6921 45.7235 63.6191 45.1043C61.4844 43.8659 59.7594 40.8909 59.771 38.4466C59.771 37.2293 60.2017 36.3678 60.8979 35.9678L58.5537 37.3293C57.8671 37.7274 57.4383 38.5909 57.4383 39.8062L57.4364 39.8082Z" fill="#E93565"/>
<path d="M56.1095 31.0964L58.7249 29.5771L56.8556 30.6348L54.2402 32.1541L56.1095 31.0964Z" fill="#57B3FE"/>
<path d="M68.1922 52.0233L70.8076 50.5041L69.6595 48.0714L67.0442 49.5906L68.1922 52.0233ZM57.6461 33.3175L60.2595 31.7983L58.723 29.5771L56.1095 31.0964L57.6461 33.3175Z" fill="#DF3260"/>
<path d="M67.046 49.5906L69.6595 48.0714C70.0716 47.5301 70.3568 46.9031 70.4941 46.2368L67.8787 47.756C67.7114 48.4945 67.4268 49.1098 67.046 49.5906ZM59.6537 33.5233L62.2652 32.0041C61.6188 31.794 60.9349 31.7245 60.2595 31.8002L57.6441 33.3195C58.3202 33.2434 59.0047 33.3129 59.6518 33.5233H59.6537ZM67.8902 44.1195L70.5056 42.6002C70.3402 41.681 70.0518 40.7233 69.6825 39.8118L67.0672 41.331C67.4364 42.2298 67.7122 43.1642 67.8902 44.1195ZM64.8268 37.456L67.4422 35.9368C66.8458 35.1689 66.1745 34.4622 65.4383 33.8271L62.8248 35.3464C63.5422 35.9618 64.221 36.6791 64.8268 37.456Z" fill="#E93565"/>
<path d="M69.7827 48.5557L72.3981 47.0365L72.4058 43.998L69.7904 45.5173L69.7827 48.5557Z" fill="#E93565"/>
<path d="M69.7923 45.5179L72.4058 43.9987L70.5038 42.6025L67.8904 44.1218L69.7923 45.5179Z" fill="#DF3260"/>
<path d="M62.5633 33.0062L65.1768 31.487L62.5421 29.9658L59.9268 31.4851L62.5633 33.0062Z" fill="#E93565"/>
<path d="M62.8269 35.3469L65.4384 33.8277L65.1769 31.4873L62.5615 33.0065L62.8269 35.3469ZM67.0692 41.3296L69.6826 39.8104L70.8403 38.7085L68.2249 40.2277L67.0692 41.3296ZM66.3769 37.0258L68.9923 35.5065L67.4403 35.9373L64.8269 37.4565L66.3769 37.0258Z" fill="#DF3260"/>
<path d="M68.2269 40.227L70.8403 38.7078L68.9903 35.5059L66.3769 37.0251L68.2269 40.227Z" fill="#E93565"/>
<path d="M52.6422 38.6601L54.5442 40.064C54.724 41.0195 55.0018 41.9539 55.373 42.8525L54.2076 43.9505L56.0653 47.1563L57.6076 46.7217C58.2004 47.4914 58.8706 48.1984 59.6076 48.8313L59.8711 51.1794L62.5057 52.7025L62.7826 50.664C63.4301 50.8813 64.1178 50.9523 64.7961 50.8717L66.3326 53.0832L68.1922 52.0255L67.0461 49.5909C67.4582 49.0496 67.7434 48.4226 67.8807 47.7563L69.7845 48.5563L69.7922 45.5178L67.8903 44.1198C67.7129 43.1646 67.4377 42.2302 67.0692 41.3313L68.2269 40.2274L66.3769 37.0255L64.8268 37.4563C64.2318 36.6885 63.5618 35.9818 62.8269 35.3467L62.5634 33.0063L59.9288 31.4851L59.6518 33.5236C59.0056 33.3129 58.3217 33.2428 57.6461 33.3178L56.1095 31.0967L54.2422 32.1544L55.3961 34.6005C55.0153 35.0813 54.7307 35.6967 54.5615 36.4255L52.6519 35.6217L52.6422 38.6601ZM61.2769 46.4582C59.1422 45.2275 57.4269 42.2524 57.4326 39.8025C57.4403 37.3524 59.1692 36.3659 61.3019 37.5986C63.4345 38.8294 65.1519 41.8044 65.1442 44.2544C65.1384 46.7044 63.4095 47.6909 61.2769 46.4582Z" fill="#F45170"/>
<path d="M38.9037 36.8653V34.923L40.5191 33.9807L39.9229 32.7115L41.596 31.7307L42.7883 31.0576L43.6153 32.2499L45.2306 31.3076L46.9037 32.2884L47.0768 33.7692C47.5383 34.173 47.9614 34.6345 48.3653 35.1153L49.346 34.8461L50.5383 36.9038L49.7883 37.5961C50.0191 38.1922 50.2114 38.7884 50.3076 39.3845L51.5383 40.2692L51.5191 42.2115L49.9037 43.1538L50.4999 44.4422L48.846 45.4038L47.6537 46.0768L46.8268 44.9038L45.2114 45.8461L43.5191 44.8653L43.346 43.3653C42.8845 42.9807 42.4614 42.5192 42.0768 42.0192L41.096 42.2884L39.9037 40.2499L40.6537 39.5384C40.4037 38.9615 40.2306 38.3461 40.1153 37.7692L38.9037 36.8653ZM45.9229 40.9807C46.2114 41.1538 46.4806 41.2499 46.7499 41.2884C46.8381 41.015 46.8835 40.7295 46.8845 40.4422C46.8845 38.8653 45.7883 36.9807 44.4422 36.1922C44.1345 36.0192 43.8653 35.923 43.596 35.8845C43.5191 36.1153 43.4614 36.4038 43.4614 36.7307C43.4422 38.2884 44.5576 40.1922 45.9229 40.9807Z" fill="#497BFE"/>
<path d="M45.2039 45.8406L46.875 44.8695L47.0481 43.5656L45.3789 44.5368L45.2039 45.8406ZM40.125 35.4368L41.7981 34.4676L40.575 33.9541L38.9039 34.9233L40.125 35.4368Z" fill="#497BFE"/>
<path d="M41.9615 37.5984C41.9557 39.1619 43.0519 41.0638 44.4173 41.8484C45.1019 42.2426 45.725 42.2869 46.1692 42.0253L47.6692 41.1542C47.2153 41.4157 46.6 41.3811 45.9153 40.9849C44.55 40.1926 43.448 38.2926 43.4538 36.7292C43.4538 35.9523 43.7307 35.4023 44.1769 35.1465L42.6769 36.0157C42.2384 36.2696 41.9615 36.8234 41.9615 37.5984Z" fill="#5094FF"/>
<path d="M41.1152 32.0327L42.7864 31.0615L41.5921 31.7346L39.921 32.7077L41.1152 32.0327Z" fill="#57B3FE"/>
<path d="M48.8383 45.4077L50.5076 44.4365L49.7749 42.8808L48.1037 43.8519L48.8383 45.4077ZM42.096 33.4519L43.7672 32.4808L42.7864 31.0615L41.1153 32.0327L42.096 33.4519Z" fill="#497BFE"/>
<path d="M48.1036 43.8521L49.7748 42.8809C50.0381 42.5348 50.2201 42.1339 50.3075 41.7078L48.6383 42.679C48.5306 43.1521 48.3479 43.5444 48.1036 43.8521ZM43.3786 33.5828L45.0498 32.6136C44.5902 32.4694 44.1556 32.4328 43.7671 32.4809L42.096 33.4521C42.528 33.4037 42.9653 33.4483 43.3786 33.5828ZM48.644 40.3559L50.3152 39.3848C50.2113 38.7963 50.0267 38.1848 49.7902 37.6021L48.119 38.5713C48.3548 39.1466 48.5307 39.7446 48.644 40.3559ZM46.6863 36.0963L48.3575 35.1252C47.969 34.629 47.5363 34.1694 47.0767 33.779L45.4075 34.7482C45.8774 35.1541 46.3058 35.6057 46.6863 36.0963Z" fill="#5094FF"/>
<path d="M49.8538 43.1908L51.525 42.2197L51.5308 40.2773L49.8596 41.2485L49.8538 43.1908Z" fill="#5094FF"/>
<path d="M49.8596 41.2502L51.5308 40.279L50.3154 39.3848L48.6442 40.3559L49.8596 41.2502Z" fill="#497BFE"/>
<path d="M45.2402 33.2519L46.9094 32.2807L45.2248 31.3096L43.5556 32.2788L45.2402 33.2519Z" fill="#5094FF"/>
<path d="M45.4077 34.7486L47.0769 33.7774L46.9096 32.2812L45.2403 33.2524L45.4077 34.7486ZM48.1192 38.5716L49.7903 37.6024L50.5288 36.8966L48.8596 37.8678L48.1192 38.5716ZM47.6769 35.8216L49.348 34.8505L48.3577 35.1255L46.6865 36.0966L47.6769 35.8216Z" fill="#497BFE"/>
<path d="M48.8596 37.8679L50.5288 36.8967L49.348 34.8506L47.6769 35.8217L48.8596 37.8679Z" fill="#5094FF"/>
<path d="M38.9 36.8659L40.1135 37.764C40.2231 38.3563 40.4038 38.9601 40.6442 39.5447L39.9 40.2467L41.0865 42.2967L42.0731 42.0178C42.4596 42.5159 42.8923 42.9794 43.3519 43.3659L43.5192 44.8678L45.2039 45.8409L45.3788 44.5371C45.793 44.6769 46.2332 44.7229 46.6673 44.6717L47.6481 46.0851L48.8385 45.4082L48.1038 43.8524C48.3677 43.5064 48.5504 43.1055 48.6385 42.6794L49.8538 43.1909L49.8596 41.2486L48.6442 40.3563C48.5404 39.7678 48.3558 39.1563 48.1192 38.5717L48.8596 37.8678L47.6769 35.8217L46.6865 36.0967C46.2981 35.6005 45.8654 35.1409 45.4077 34.7486L45.2404 33.2524L43.5558 32.2794L43.3788 33.5832C42.9212 33.4409 42.4865 33.4044 42.0962 33.4524L41.1154 32.0332L39.9231 32.7063L40.6596 34.2717C40.4154 34.5794 40.2327 34.9717 40.125 35.4371L38.9038 34.9236L38.9 36.8659ZM44.4173 41.8505C43.0538 41.064 41.9558 39.162 41.9615 37.5967C41.9654 36.0313 43.0712 35.4005 44.4327 36.187C45.7981 36.9755 46.8942 38.8755 46.8904 40.4428C46.8846 42.0082 45.7808 42.637 44.4173 41.8505Z" fill="#57B3FE"/>
<path d="M50.4384 52.0967L50.4269 56.4025L73.0519 69.464C73.5038 69.7255 73.8634 69.5217 73.8654 69.0025L73.873 66.5601C73.8593 66.2794 73.7789 66.006 73.6384 65.7625C73.498 65.5191 73.3015 65.3126 73.0654 65.1601L50.4384 52.0967Z" fill="#FEBC1F"/>
<path d="M38.25 45.0595C37.8 44.7999 37.4423 45.0056 37.4385 45.5229L37.4327 47.9652C37.4308 48.4845 37.7885 49.1037 38.2404 49.3652L50.4269 56.4018L50.4385 52.096L38.25 45.0595Z" fill="#F3F1FC"/>
<path d="M33.5671 45.885L15.9979 35.7754L33.5671 45.885Z" fill="#4C5C75"/>
<path d="M10.6152 73.3849C10.6152 74.2118 11.1921 75.2118 11.9036 75.6157L29.4613 85.731C29.8267 85.9426 30.1536 85.9618 30.3844 85.808L34.3844 83.481C34.6152 83.3464 34.769 83.058 34.769 82.6349L34.8459 48.1157C34.8459 47.2887 34.269 46.2887 33.5767 45.8849L15.9998 35.7695C15.6344 35.558 15.3075 35.558 15.0767 35.6926L11.1536 38.0003C10.8844 38.0964 10.7113 38.4041 10.7113 38.8464L10.6152 73.3849Z" fill="#1D2943"/>
<path d="M11.0883 38.0196C11.321 37.885 11.646 37.9042 12.0037 38.11L29.5633 48.2215C30.2729 48.6331 30.8556 49.6292 30.8479 50.4465L30.7575 84.9812C30.7575 85.3946 30.6133 85.6812 30.3806 85.8158L34.3845 83.4812C34.6172 83.3465 34.7614 83.0581 34.7614 82.6446L34.8499 48.1119C34.8499 47.2946 34.2768 46.2985 33.5672 45.885L15.9979 35.7754C15.6383 35.5677 15.3152 35.5504 15.0825 35.685L11.0883 38.0196Z" fill="#4C5C75"/>
<path d="M12.0018 38.1123C11.2922 37.7027 10.7114 38.0335 10.7095 38.8489L10.621 73.3854C10.6191 74.2085 11.196 75.2066 11.9056 75.6162L29.4691 85.7258C30.1806 86.1373 30.7595 85.8046 30.7614 84.9816L30.8498 50.4469C30.8518 49.6316 30.2749 48.6316 29.5652 48.2219L12.0018 38.1123Z" fill="#1D2943"/>
<path d="M29.3402 81.7251L29.4268 52.2443L12.1306 42.2559L12.0441 71.7386L29.3402 81.7251Z" fill="white"/>
<path d="M19.0231 43.8792C18.7866 43.7446 18.5904 43.8484 18.5904 44.1196C18.5975 44.269 18.6401 44.4147 18.7147 44.5445C18.7892 44.6742 18.8936 44.7843 19.0192 44.8657L23.7558 47.5984C23.9923 47.7349 24.1866 47.6311 24.1885 47.3523C24.1885 47.0811 23.9962 46.7503 23.7577 46.6138L19.0231 43.8792ZM17.7577 43.0965C17.4981 42.9446 17.2846 43.0676 17.2827 43.3657C17.2827 43.6715 17.4942 44.0311 17.7539 44.1811C18.0077 44.3292 18.2231 44.2138 18.2231 43.908C18.2231 43.6099 18.0116 43.2446 17.7577 43.0965ZM18.7212 76.8234C18.3173 76.5888 17.9885 76.7753 17.9866 77.2407C17.9997 77.4941 18.0728 77.7407 18.1999 77.9604C18.3269 78.18 18.5043 78.3664 18.7173 78.5042L21.7212 80.2042C22.125 80.4388 22.4577 80.2542 22.4596 79.7888C22.4596 79.3234 22.1327 78.758 21.7269 78.5234L18.7212 76.8234Z" fill="#4C5C75"/>
<path d="M14.9268 38.6849C15.0064 38.7851 15.1059 38.8676 15.2191 38.9273C15.8691 39.2965 16.9268 39.2869 17.5691 38.9176C17.6899 38.8538 17.7956 38.7646 17.8787 38.6561C18.1998 38.2965 18.1133 37.8484 17.5979 37.5484C16.9575 37.1792 15.8787 37.1792 15.2287 37.5484C14.7037 37.8503 14.6056 38.3176 14.9268 38.6849Z" fill="#EDEEF2"/>
<path d="M14.9267 38.6851C15.0064 38.7852 15.1059 38.8677 15.219 38.9274C15.869 39.2966 16.9267 39.287 17.569 38.9178C17.6899 38.854 17.7956 38.7648 17.8787 38.6562C17.7974 38.5676 17.7026 38.4923 17.5979 38.4332C16.9575 38.0639 15.8787 38.0639 15.2287 38.4332C15.0921 38.5101 14.994 38.5966 14.9267 38.6851Z" fill="#111D33"/>
<path d="M32.8344 51.7756C32.4363 52.0064 32.119 52.5544 32.1209 53.0063L32.1325 57.3544C32.1344 57.8044 32.4536 57.989 32.8517 57.7583C33.058 57.624 33.2297 57.4429 33.3527 57.2297C33.4757 57.0164 33.5465 56.7772 33.5594 56.5314L33.5479 52.1814C33.5459 51.7314 33.2267 51.5467 32.8344 51.7756ZM32.8556 59.0583C32.4575 59.2871 32.1402 59.8371 32.1421 60.2929L32.1536 64.6352C32.1536 65.0929 32.4748 65.2756 32.8729 65.0448C33.0796 64.9101 33.2515 64.7283 33.3745 64.5144C33.4975 64.3005 33.5681 64.0605 33.5806 63.814L33.5671 59.4698C33.5671 59.0121 33.2479 58.8333 32.8556 59.0583Z" fill="#E3E7F0"/>
<path d="M15.1018 55.5942L16.3518 56.5173C16.47 57.1446 16.6524 57.7581 16.8961 58.3481L16.1307 59.0692L17.3499 61.175L18.3634 60.8904C18.7533 61.3957 19.1941 61.8597 19.6788 62.275L19.8518 63.8192L21.5826 64.8192L21.7634 63.4788C22.2403 63.6288 22.6864 63.6712 23.0864 63.6173L24.0961 65.0712L25.3172 64.3731L24.5634 62.775C24.8349 62.4194 25.0228 62.0073 25.1134 61.5692L26.3634 62.0942L26.3691 60.0981L25.1191 59.1808C25.0114 58.5769 24.8211 57.9462 24.5807 57.3481L25.3403 56.6231L24.1249 54.5192L23.1057 54.8019C22.7147 54.2981 22.2747 53.8343 21.7922 53.4173L21.6191 51.8788L19.8884 50.8788L19.7076 52.2192C19.2825 52.0808 18.8327 52.0349 18.3884 52.0846L17.3807 50.625L16.1538 51.3173L16.9114 52.9269C16.6614 53.2423 16.473 53.6462 16.3634 54.125L15.1076 53.5981L15.1018 55.5942ZM20.7749 60.5788C19.4403 59.8096 18.3653 57.9481 18.3711 56.4135C18.3749 54.8808 19.4557 54.2635 20.7903 55.0346C22.1249 55.8038 23.1999 57.6654 23.1941 59.2C23.1903 60.7327 22.1095 61.35 20.7749 60.5788Z" fill="#BF7D5A"/>
<path d="M18.4114 65.5234L18.4037 67.9907L27.5864 73.2927C27.846 73.4407 28.0518 73.3234 28.0518 73.0273L28.0557 71.6273C28.0557 71.3292 27.8518 70.9734 27.5941 70.8254L18.4114 65.5234Z" fill="#72D561"/>
<path d="M13.8845 62.9099C13.6248 62.7599 13.4191 62.8772 13.4171 63.1753L13.4133 64.5753C13.4133 64.8714 13.6191 65.2291 13.8768 65.3772L18.4037 67.9926L18.4114 65.5234L13.8845 62.9099Z" fill="#F3F1FC"/>
</g>
<defs>
<filter id="filter0_dd_14932_572" x="-6" y="-2" width="112" height="112" filterUnits="userSpaceOnUse" color-interpolation-filters="sRGB">
<feFlood flood-opacity="0" result="BackgroundImageFix"/>
<feColorMatrix in="SourceAlpha" type="matrix" values="0 0 0 0 0 0 0 0 0 0 0 0 0 0 0 0 0 0 127 0" result="hardAlpha"/>
<feMorphology radius="2" operator="erode" in="SourceAlpha" result="effect1_dropShadow_14932_572"/>
<feOffset dy="2"/>
<feGaussianBlur stdDeviation="2"/>
<feColorMatrix type="matrix" values="0 0 0 0 0.0627451 0 0 0 0 0.0941176 0 0 0 0 0.156863 0 0 0 0.06 0"/>
<feBlend mode="normal" in2="BackgroundImageFix" result="effect1_dropShadow_14932_572"/>
<feColorMatrix in="SourceAlpha" type="matrix" values="0 0 0 0 0 0 0 0 0 0 0 0 0 0 0 0 0 0 127 0" result="hardAlpha"/>
<feMorphology radius="2" operator="erode" in="SourceAlpha" result="effect2_dropShadow_14932_572"/>
<feOffset dy="4"/>
<feGaussianBlur stdDeviation="4"/>
<feColorMatrix type="matrix" values="0 0 0 0 0.0627451 0 0 0 0 0.0941176 0 0 0 0 0.156863 0 0 0 0.1 0"/>
<feBlend mode="normal" in2="effect1_dropShadow_14932_572" result="effect2_dropShadow_14932_572"/>
<feBlend mode="normal" in="SourceGraphic" in2="effect2_dropShadow_14932_572" result="shape"/>
</filter>
</defs>
</svg>
