<svg width="94" height="94" viewBox="0 0 94 94" fill="none" xmlns="http://www.w3.org/2000/svg">
<path d="M74.9056 62.777C74.9477 62.7766 74.9891 62.7652 75.0255 62.744C75.0619 62.7227 75.0922 62.6923 75.1133 62.6558C75.1441 62.6006 75.1522 62.5354 75.1356 62.4743C75.1191 62.4132 75.0793 62.361 75.0248 62.3289L67.4267 57.9404C67.3713 57.9089 67.3057 57.9006 67.2441 57.9171C67.1826 57.9337 67.13 57.9739 67.0979 58.0289C67.067 58.0841 67.059 58.1493 67.0755 58.2104C67.092 58.2715 67.1318 58.3237 67.1863 58.3558L74.7844 62.7443C74.8212 62.7657 74.863 62.777 74.9056 62.777ZM47.244 46.8077C47.2865 46.8077 47.3283 46.7965 47.3651 46.7752C47.4018 46.7539 47.4324 46.7234 47.4536 46.6866C47.4851 46.6311 47.4935 46.5655 47.4769 46.504C47.4604 46.4424 47.4202 46.3899 47.3652 46.3577L37.0171 40.3827C36.9618 40.3509 36.896 40.3423 36.8344 40.3589C36.7727 40.3754 36.7201 40.4159 36.6883 40.4712C36.6564 40.5265 36.6478 40.5923 36.6644 40.6539C36.681 40.7156 36.7214 40.7682 36.7767 40.8L47.1229 46.775C47.1598 46.7958 47.2016 46.8083 47.244 46.8077ZM26.0767 92.727C26.4575 92.727 26.8383 92.6404 27.1344 92.4674L42.0863 83.7789C42.1227 83.7577 42.1528 83.7274 42.1737 83.691C42.1947 83.6545 42.2057 83.6132 42.2057 83.5712C42.2057 83.5292 42.1947 83.4879 42.1737 83.4514C42.1528 83.415 42.1227 83.3847 42.0863 83.3635L16.5806 68.6385C16.5438 68.617 16.502 68.6057 16.4594 68.6057C16.4168 68.6057 16.375 68.617 16.3383 68.6385L1.38826 77.327C1.06134 77.5173 0.882492 77.7847 0.882492 78.0789C0.882492 78.375 1.0671 78.6443 1.39787 78.8366L25.0133 92.4693C25.3113 92.6423 25.6959 92.727 26.0767 92.727ZM41.4863 83.5731L26.894 92.0539C26.6391 92.1803 26.3584 92.2461 26.0738 92.2461C25.7893 92.2461 25.5086 92.1803 25.2536 92.0539L1.63826 78.4193C1.46518 78.3173 1.36326 78.1943 1.36326 78.077C1.36326 77.9635 1.46133 77.8423 1.63249 77.7423L16.4594 69.127L41.4863 83.5731Z" fill="#525566"/>
<path d="M1.51139 73.4326L16.4595 64.7441L41.9652 79.4691L41.9595 79.473H41.9672L41.9749 81.973L27.0268 90.6576C26.5075 90.9576 25.6652 90.9576 25.1383 90.6576L1.5287 77.0249C1.26524 76.8711 1.13062 76.6711 1.13062 76.4711V73.9961C1.12101 73.7922 1.24409 73.5884 1.51139 73.4326Z" fill="#DEDFFB"/>
<path d="M17.0423 45.8477C17.0596 45.8477 17.073 45.8362 17.0903 45.8381C17.0711 45.8381 17.0596 45.8477 17.0423 45.8477Z" fill="#1D2943"/>
<path d="M36.0076 75.9283C36.0076 76.0399 36.0461 76.1206 36.1134 76.1591L38.6711 77.6456C38.6038 77.6072 38.9076 77.5879 38.9076 77.4745C38.9057 77.2437 38.85 77.1091 39.0519 76.9937C39.1519 76.936 39.1192 76.7206 39.1846 76.7591L36.6269 75.2745C36.5615 75.236 36.4711 75.2418 36.3711 75.2995C36.1711 75.4149 36.0057 75.6976 36.0076 75.9283Z" fill="#4C5C75"/>
<path d="M38.9268 76.7846C38.7249 76.9 38.5614 77.1827 38.5634 77.4135C38.5634 77.6442 38.7287 77.7366 38.9287 77.6212C39.0341 77.5526 39.1218 77.46 39.1847 77.351C39.2475 77.2421 39.2837 77.1198 39.2903 76.9942C39.2903 76.7635 39.1287 76.6692 38.9268 76.7846Z" fill="#1D2943"/>
<path d="M19.4825 66.3267C19.4825 66.4383 19.5229 66.519 19.5883 66.5575L22.146 68.0421C22.0787 68.0037 22.2652 67.919 22.2652 67.8037C22.2633 67.5729 22.3594 67.5056 22.5594 67.3902C22.6594 67.3325 22.594 67.119 22.6594 67.1556L20.1017 65.671C20.0383 65.6325 19.9479 65.6383 19.846 65.696C19.646 65.8114 19.4806 66.096 19.4825 66.3267Z" fill="#4C5C75"/>
<path d="M22.4019 67.1827C22.2019 67.2981 22.0384 67.5789 22.0384 67.8097C22.0384 68.0404 22.2038 68.1327 22.4038 68.0173C22.5092 67.9487 22.5969 67.8562 22.6597 67.7472C22.7225 67.6383 22.7587 67.516 22.7653 67.3904C22.7653 67.1597 22.6019 67.0654 22.4019 67.1827ZM16.7884 45.902C16.9576 45.8 16.6076 46.2289 16.8711 46.3827L41.9672 78.5231L43.9461 77.3712L43.9961 60.0789C43.9961 59.4789 43.5769 58.752 43.0538 58.45L19.4384 44.8154C19.1769 44.6654 18.9384 44.65 18.7653 44.75L16.7884 45.902Z" fill="#1D2943"/>
<path d="M16.4632 63.7954L41.969 78.5203L42.0171 61.23C42.019 60.63 41.5979 59.9011 41.0748 59.5992L17.4594 45.9646C16.9382 45.6627 16.5132 45.9069 16.5132 46.503L16.4632 63.7954Z" fill="#4C5C75"/>
<path d="M1.13062 73.9824V76.4709C1.13062 76.6709 1.26524 76.8709 1.5287 77.0247L25.1383 90.6593C25.6652 90.9574 26.5095 90.9574 27.0268 90.6593L41.9749 81.9728L41.9672 79.4728C41.9672 79.4728 1.13062 74.1824 1.13062 73.9824Z" fill="#DEDFFB"/>
<path d="M41.9653 79.4691L27.0153 88.1576C26.4961 88.4595 25.6538 88.4595 25.1326 88.1576L1.51918 74.523C0.996101 74.223 0.992256 73.7345 1.51149 73.4326L16.4596 64.7441L41.9653 79.4691Z" fill="#F8F9FE"/>
<path d="M22.5459 80.7955L19.1959 82.7301C18.9132 82.8935 18.5633 82.8935 18.2806 82.7301L11.0306 78.5205C10.9311 78.4641 10.8568 78.3719 10.8229 78.2628C10.8567 78.1535 10.931 78.0613 11.0306 78.0051L14.3786 76.0705C14.518 75.9898 14.6762 75.9473 14.8373 75.9473C14.9984 75.9473 15.1566 75.9898 15.2959 76.0705L22.5459 80.2801C22.6447 80.3368 22.7182 80.4289 22.7517 80.5378C22.7184 80.6467 22.6448 80.7388 22.5459 80.7955Z" fill="#DEDFFB"/>
<path d="M22.2442 75.4867C22.3019 75.5213 22.3038 75.577 22.2442 75.6116L21.0904 76.2847C21.0308 76.3174 20.9327 76.3174 20.8731 76.2828L19.7115 75.6097C19.6519 75.577 19.65 75.5213 19.7115 75.4867L20.8654 74.8136C20.8987 74.7965 20.9356 74.7876 20.9731 74.7876C21.0105 74.7876 21.0474 74.7965 21.0808 74.8136L22.2442 75.4867ZM29.8558 82.0309C29.9154 82.0655 29.9154 82.1213 29.8558 82.1559L28.7019 82.829C28.6423 82.8617 28.5461 82.8617 28.4865 82.829L27.3231 82.1559C27.2634 82.1213 27.2634 82.0655 27.3231 82.0309L28.4769 81.3597C28.5103 81.3428 28.5472 81.334 28.5846 81.334C28.622 81.334 28.6589 81.3428 28.6923 81.3597L29.8558 82.0309ZM27.9615 80.9386C28.0211 80.9732 28.0231 81.029 27.9615 81.0636L26.8077 81.7347C26.75 81.7693 26.6519 81.7693 26.5923 81.7347L25.4288 81.0617C25.3711 81.029 25.3711 80.9732 25.4288 80.9386L26.5827 80.2655C26.6163 80.2481 26.6535 80.2391 26.6913 80.2391C26.7291 80.2391 26.7664 80.2481 26.8 80.2655L27.9615 80.9386ZM26.0692 79.8463C26.1269 79.879 26.1269 79.9347 26.0692 79.9693L24.9154 80.6424C24.8538 80.6751 24.7577 80.6751 24.6981 80.6424L14.0673 74.504C14.0096 74.4693 14.0096 74.4136 14.0673 74.379L15.2211 73.7059C15.2548 73.6887 15.292 73.6797 15.3298 73.6797C15.3676 73.6797 15.4048 73.6887 15.4384 73.7059L26.0692 79.8463ZM24.1365 76.579C24.1981 76.6136 24.1981 76.6693 24.1365 76.704L22.9827 77.377C22.925 77.4097 22.8288 77.4097 22.7673 77.377L21.6038 76.704C21.5461 76.6693 21.5442 76.6136 21.6038 76.579L22.7577 75.9078C22.7913 75.8904 22.8285 75.8814 22.8663 75.8814C22.9041 75.8814 22.9414 75.8904 22.975 75.9078L24.1365 76.579ZM26.0308 77.6732C26.0904 77.7078 26.0904 77.7636 26.0308 77.7982L24.8769 78.4693C24.8173 78.504 24.7211 78.504 24.6615 78.4693L23.4981 77.7963C23.4384 77.7636 23.4384 77.7078 23.4981 77.6732L24.6519 77.0001C24.6853 76.9831 24.7222 76.9742 24.7596 76.9742C24.797 76.9742 24.834 76.9831 24.8673 77.0001L26.0308 77.6732ZM27.8865 76.5963C27.9461 76.629 27.9461 76.6847 27.8865 76.7193L26.7327 77.3924C26.6731 77.4251 26.5769 77.4251 26.5173 77.3924L25.3538 76.7193C25.2942 76.6847 25.2942 76.629 25.3538 76.5943L26.5077 75.9232C26.541 75.9061 26.5779 75.8973 26.6154 75.8973C26.6528 75.8973 26.6897 75.9061 26.7231 75.9232L27.8865 76.5963ZM29.7808 77.6886C29.8384 77.7232 29.8384 77.779 29.7808 77.8136L28.6269 78.4847C28.5654 78.5193 28.4692 78.5193 28.4096 78.4847L27.2461 77.8116C27.1884 77.779 27.1884 77.7232 27.2461 77.6886L28.4 77.0155C28.4336 76.9981 28.4708 76.9891 28.5086 76.9891C28.5464 76.9891 28.5837 76.9981 28.6173 77.0155L29.7808 77.6886ZM35.4231 78.7963C35.4827 78.8309 35.4827 78.8866 35.4231 78.9213L34.2692 79.5924C34.2096 79.627 34.1134 79.627 34.0519 79.5924L32.8904 78.9193C32.8308 78.8867 32.8288 78.8309 32.8904 78.7963L34.0442 78.1232C34.0776 78.1063 34.1145 78.0975 34.1519 78.0975C34.1893 78.0975 34.2262 78.1063 34.2596 78.1232L35.4231 78.7963ZM33.5673 79.8751C33.6269 79.9097 33.6269 79.9655 33.5673 80.0001L32.4134 80.6713C32.3538 80.7059 32.2577 80.7059 32.1961 80.6713L29.1404 78.9059C29.0808 78.8713 29.0808 78.8155 29.1404 78.7809L30.2942 78.1097C30.3278 78.0924 30.3651 78.0833 30.4029 78.0833C30.4407 78.0833 30.4779 78.0924 30.5115 78.1097L33.5673 79.8751ZM31.7115 80.952C31.7711 80.9866 31.7711 81.0424 31.7115 81.077L30.5577 81.7501C30.4981 81.7828 30.4019 81.7828 30.3423 81.7501L25.3904 78.8905C25.3327 78.8559 25.3327 78.8001 25.3904 78.7655L26.5442 78.0943C26.5778 78.077 26.6151 78.0679 26.6529 78.0679C26.6907 78.0679 26.7279 78.077 26.7615 78.0943L31.7115 80.952ZM33.5288 77.702C33.5884 77.7367 33.5904 77.7924 33.5288 77.827L32.375 78.5001C32.3154 78.5328 32.2192 78.5328 32.1596 78.5001L30.9961 77.827C30.9365 77.7924 30.9365 77.7367 30.9961 77.702L32.15 77.0309C32.1836 77.0135 32.2208 77.0045 32.2586 77.0045C32.2964 77.0045 32.3337 77.0135 32.3673 77.0309L33.5288 77.702ZM31.6346 76.6097C31.6961 76.6443 31.6961 76.7001 31.6346 76.7347L30.4808 77.4059C30.4231 77.4405 30.3269 77.4405 30.2654 77.4059L29.1019 76.7328C29.0442 76.7001 29.0442 76.6443 29.1019 76.6097L30.2558 75.9367C30.2893 75.9193 30.3266 75.9102 30.3644 75.9102C30.4022 75.9102 30.4395 75.9193 30.4731 75.9367L31.6346 76.6097ZM29.7423 75.5155C29.8019 75.5501 29.8019 75.6059 29.7423 75.6405L28.5884 76.3136C28.5288 76.3463 28.4327 76.3463 28.3731 76.3136L27.2096 75.6405C27.15 75.6059 27.15 75.5501 27.2096 75.5155L28.3634 74.8443C28.3968 74.8273 28.4337 74.8184 28.4711 74.8184C28.5086 74.8184 28.5455 74.8273 28.5788 74.8443L29.7423 75.5155ZM25.9923 75.5001C26.0519 75.5367 26.0538 75.5924 25.9923 75.627L24.8385 76.2982C24.7808 76.3328 24.6827 76.3328 24.6231 76.2982L23.4596 75.6251C23.4 75.5924 23.4 75.5366 23.4596 75.502L24.6134 74.829C24.647 74.8116 24.6843 74.8025 24.7221 74.8025C24.7599 74.8025 24.7972 74.8116 24.8308 74.829L25.9923 75.5001ZM27.8481 74.4232C27.9077 74.4578 27.9096 74.5136 27.8481 74.5482L26.6942 75.2193C26.6346 75.254 26.5384 75.254 26.4788 75.2193L25.3154 74.5463C25.2577 74.5136 25.2558 74.4578 25.3154 74.4232L26.4692 73.7501C26.5028 73.7327 26.5401 73.7237 26.5779 73.7237C26.6157 73.7237 26.6529 73.7327 26.6865 73.7501L27.8481 74.4232ZM18.4558 73.3001C18.5173 73.3347 18.5173 73.3905 18.4558 73.4251L17.3019 74.0963C17.2442 74.1309 17.1461 74.1309 17.0865 74.0963L15.9231 73.4232C15.8654 73.3905 15.8634 73.3347 15.9231 73.3001L17.0769 72.627C17.1105 72.6098 17.1478 72.6008 17.1856 72.6008C17.2233 72.6008 17.2606 72.6098 17.2942 72.627L18.4558 73.3001ZM20.35 74.3924C20.4096 74.427 20.4096 74.4828 20.35 74.5174L19.1961 75.1905C19.1365 75.2232 19.0404 75.2232 18.9808 75.1905L17.8173 74.5174C17.7577 74.4828 17.7577 74.427 17.8173 74.3924L18.9711 73.7213C19.0045 73.7044 19.0414 73.6956 19.0788 73.6956C19.1162 73.6956 19.1531 73.7044 19.1865 73.7213L20.35 74.3924ZM22.1673 71.1424C22.2269 71.177 22.2288 71.2328 22.1673 71.2674L21.0134 71.9405C20.9538 71.9732 20.8577 71.9732 20.7981 71.9405L19.6346 71.2674C19.5769 71.2328 19.575 71.177 19.6346 71.1424L20.7884 70.4713C20.8221 70.4541 20.8593 70.4451 20.8971 70.4451C20.9349 70.4451 20.9721 70.4541 21.0058 70.4713L22.1673 71.1424ZM20.3115 72.2213C20.3711 72.2559 20.3731 72.3117 20.3115 72.3463L19.1577 73.0193C19.1 73.052 19.0019 73.052 18.9423 73.0193L17.7788 72.3463C17.7211 72.3117 17.7192 72.2559 17.7788 72.2213L18.9327 71.5501C18.9663 71.5327 19.0035 71.5237 19.0413 71.5237C19.0791 71.5237 19.1164 71.5327 19.15 71.5501L20.3115 72.2213ZM24.0615 72.2367C24.1211 72.2713 24.1211 72.327 24.0615 72.3616L22.9077 73.0328C22.8481 73.0674 22.7519 73.0674 22.6904 73.0328L21.5288 72.3597C21.4692 72.327 21.4673 72.2713 21.5288 72.2367L22.6827 71.5636C22.7161 71.5467 22.753 71.5379 22.7904 71.5379C22.8278 71.5379 22.8647 71.5467 22.8981 71.5636L24.0615 72.2367ZM22.2058 73.3155C22.2654 73.3501 22.2654 73.4059 22.2058 73.4405L21.0519 74.1116C20.9923 74.1463 20.8961 74.1463 20.8346 74.1116L19.6731 73.4386C19.6134 73.4059 19.6134 73.3501 19.6731 73.3155L20.8269 72.6424C20.8603 72.6255 20.8972 72.6167 20.9346 72.6167C20.972 72.6167 21.0089 72.6255 21.0423 72.6424L22.2058 73.3155ZM25.9558 73.329C26.0134 73.3636 26.0154 73.4193 25.9558 73.454L24.8019 74.127C24.7404 74.1597 24.6442 74.1597 24.5846 74.127L23.4211 73.454C23.3634 73.4193 23.3634 73.3636 23.4211 73.3309L24.575 72.6578C24.6086 72.6404 24.6458 72.6314 24.6836 72.6314C24.7214 72.6314 24.7587 72.6404 24.7923 72.6578L25.9558 73.329ZM24.1 74.4078C24.1577 74.4424 24.1577 74.4982 24.1 74.5328L22.9461 75.2059C22.8846 75.2386 22.7885 75.2386 22.7288 75.2059L21.5654 74.5328C21.5077 74.4982 21.5077 74.4424 21.5654 74.4078L22.7211 73.7367C22.7545 73.7196 22.7914 73.7107 22.8288 73.7107C22.8663 73.7107 22.9032 73.7196 22.9365 73.7367L24.1 74.4078ZM14.7077 73.2847C14.7654 73.3193 14.7673 73.3751 14.7077 73.4097L13.5538 74.0828C13.4942 74.1155 13.3961 74.1155 13.3365 74.0828L12.175 73.4097C12.1154 73.3751 12.1134 73.3193 12.175 73.2847L13.3288 72.6136C13.3622 72.5965 13.3991 72.5876 13.4365 72.5876C13.474 72.5876 13.5109 72.5965 13.5442 72.6136L14.7077 73.2847ZM18.3808 68.9559C18.4404 68.9905 18.4404 69.0463 18.3808 69.0809L17.2269 69.754C17.1673 69.7867 17.0711 69.7867 17.0115 69.754L15.8481 69.0809C15.7884 69.0463 15.7884 68.9905 15.8481 68.9559L17.0019 68.2847C17.0352 68.2677 17.0722 68.2588 17.1096 68.2588C17.147 68.2588 17.184 68.2677 17.2173 68.2847L18.3808 68.9559ZM20.275 70.0501C20.3327 70.0847 20.3327 70.1405 20.275 70.1751L19.1211 70.8463C19.0596 70.8809 18.9634 70.8809 18.9038 70.8463L17.7423 70.1732C17.6808 70.1405 17.6808 70.0847 17.7423 70.0501L18.8961 69.377C18.9295 69.36 18.9664 69.3511 19.0038 69.3511C19.0413 69.3511 19.0782 69.36 19.1115 69.377L20.275 70.0501ZM18.4192 71.129C18.4769 71.1636 18.4769 71.2193 18.4192 71.254L17.2654 71.9251C17.2038 71.9597 17.1077 71.9597 17.0481 71.9251L15.2635 70.8943L13.5135 71.9097C13.4558 71.9443 13.3596 71.9443 13.3 71.9097L12.1365 71.2367C12.0769 71.204 12.0769 71.1482 12.1365 71.1136L15.1461 69.3636C15.1795 69.3465 15.2164 69.3376 15.2538 69.3376C15.2913 69.3376 15.3282 69.3465 15.3615 69.3636L18.4192 71.129Z" fill="#4C5C75"/>
<path d="M16.5634 72.2056C16.6211 72.2403 16.623 72.296 16.5634 72.3306L15.4096 73.0037C15.35 73.0364 15.2519 73.0364 15.1923 73.0037L14.0307 72.3306C13.9711 72.296 13.9692 72.2403 14.0307 72.2056L15.1846 71.5345C15.2179 71.5174 15.2548 71.5085 15.2923 71.5085C15.3297 71.5085 15.3666 71.5174 15.4 71.5345L16.5634 72.2056ZM12.8134 72.1922C12.873 72.2268 12.873 72.2826 12.8134 72.3172L11.6596 72.9883C11.6 73.023 11.5038 73.023 11.4442 72.9883L10.2807 72.3153C10.2211 72.2826 10.2211 72.2268 10.2807 72.1922L11.4346 71.5191C11.4679 71.5021 11.5048 71.4932 11.5423 71.4932C11.5797 71.4932 11.6166 71.5021 11.65 71.5191L12.8134 72.1922Z" fill="#4C5C75"/>
<path d="M7.54994 70.7578L9.08456 71.6443L15.9749 67.6405L14.4384 66.7559L7.54994 70.7578ZM29.8115 83.6193L31.3538 84.4962L38.2461 80.4924L36.7057 79.6155L29.8115 83.6193Z" fill="#DEDFFB"/>
<path d="M17.3113 63.3014L41.1152 77.0379L41.1729 61.2244C41.1729 60.9437 40.9036 60.4937 40.6517 60.3552L17.3671 46.9014L17.3113 63.3014Z" fill="white"/>
<path d="M44.7307 52.9923L43.173 53.8961L58.923 62.9923L74.5769 53.8961L72.9615 52.973L74.8077 51.8961L74.9038 15.4346L58.8653 6.18457L42.9423 15.4346L42.8461 51.8961L44.7307 52.9923Z" fill="#DEDFFB" fill-opacity="0.270588"/>
<path d="M58.9307 63.2283C58.9733 63.2282 59.015 63.2169 59.0519 63.1957L74.698 54.1014C74.7343 54.0803 74.7645 54.0499 74.7854 54.0135C74.8064 53.9771 74.8174 53.9358 74.8174 53.8937C74.8174 53.8517 74.8064 53.8104 74.7854 53.774C74.7645 53.7375 74.7343 53.7072 74.698 53.686L58.948 44.5937C58.9115 44.5726 58.87 44.5615 58.8278 44.5615C58.7856 44.5615 58.7442 44.5726 58.7076 44.5937L43.0596 53.688C43.0233 53.7091 42.9931 53.7394 42.9722 53.7759C42.9512 53.8123 42.9402 53.8536 42.9402 53.8957C42.9402 53.9377 42.9512 53.979 42.9722 54.0154C42.9931 54.0519 43.0233 54.0822 43.0596 54.1033L58.8096 63.1957C58.8463 63.2171 58.8882 63.2284 58.9307 63.2283ZM74.0961 53.8957L58.9307 62.7091L43.6615 53.8937L58.8288 45.0803L74.0961 53.8957Z" fill="#525566"/>
<path d="M58.9788 24.6962L58.8807 61.15L42.848 51.8943L42.9441 15.4404L58.9788 24.6962Z" fill="#E9E7FC"/>
<path d="M44.4537 18.0596L47.3191 19.7134L47.2402 49.3596L44.3633 51.0211L44.4537 18.0596Z" fill="#9EA9C9"/>
<path d="M47.2402 49.3594L57.3806 55.2151L57.3729 58.5305L44.3633 51.0209L47.2402 49.3594Z" fill="#E3E7F0"/>
<path d="M47.3191 19.7148L57.4614 25.5706L57.3807 55.2148L47.2403 49.3591L47.3191 19.7148Z" fill="#C9CEE2"/>
<path d="M45.7094 48.0166L45.7152 50.3974L59.4575 58.382L59.4517 56.0031L45.7094 48.0166Z" fill="#1D2943"/>
<path d="M59.4518 56.0038L59.4576 58.3826L72.1345 51.0653L72.1288 48.6846L59.4518 56.0038Z" fill="#111D33"/>
<path d="M45.7094 48.0165L59.4517 56.003L72.1287 48.6838L58.3864 40.6973L45.7094 48.0165Z" fill="#4C5C75"/>
<path d="M57.7423 55.7108C57.4538 55.5435 57.2346 55.6878 57.2346 55.9993C57.241 56.1749 57.2902 56.3463 57.378 56.4984C57.4659 56.6506 57.5896 56.779 57.7384 56.8724C58.0077 57.0301 58.2634 56.9262 58.2634 56.5935C58.2634 56.282 58.0134 55.8666 57.7423 55.7089V55.7108ZM56.2404 54.8455C55.9519 54.6762 55.7346 54.8224 55.7327 55.1339C55.7393 55.3097 55.7888 55.4812 55.877 55.6334C55.9651 55.7856 56.0892 55.9138 56.2384 56.007C56.5077 56.1628 56.7634 56.0608 56.7634 55.7282C56.7634 55.4166 56.5134 55.0012 56.2404 54.8455ZM46.9077 49.4551L46.9038 50.6185L52.7423 53.9878L52.7461 52.8262L46.9077 49.4551Z" fill="#FFD06C"/>
<path d="M45.7094 44.127L45.7152 46.5058L59.4575 54.4923L59.4517 52.1116L45.7094 44.127Z" fill="#1D2943"/>
<path d="M59.4518 52.1113L59.4576 54.492L72.1345 47.1728L72.1288 44.7939L59.4518 52.1113Z" fill="#111D33"/>
<path d="M45.7094 44.1268L59.4517 52.1115L72.1287 44.7942L58.3844 36.8076L45.7094 44.1268Z" fill="#4C5C75"/>
<path d="M57.7423 51.8192C57.4538 51.6519 57.2346 51.7981 57.2346 52.1077C57.2407 52.2836 57.2898 52.4554 57.3776 52.6079C57.4654 52.7605 57.5893 52.8891 57.7384 52.9827C58.0077 53.1385 58.2634 53.0366 58.2634 52.7039C58.2634 52.3923 58.0134 51.975 57.7423 51.8192ZM56.2404 50.9539C55.9519 50.7866 55.7346 50.9308 55.7327 51.2423C55.7393 51.4181 55.7888 51.5896 55.877 51.7418C55.9651 51.894 56.0892 52.0222 56.2384 52.1154C56.5077 52.2731 56.7634 52.1692 56.7634 51.8366C56.7634 51.525 56.5134 51.1116 56.2404 50.9539ZM46.9077 45.5635L46.9038 46.7269L52.7423 50.0981L52.7461 48.9346L46.9077 45.5635Z" fill="#FFD06C"/>
<path d="M45.7094 40.2344L45.7152 42.6151L59.4575 50.6017L59.4517 48.2209L45.7094 40.2344Z" fill="#1D2943"/>
<path d="M59.4518 48.2206L59.4576 50.6014L72.1345 43.2821L72.1288 40.9014L59.4518 48.2206Z" fill="#111D33"/>
<path d="M45.7094 40.2343L59.4517 48.2208L72.1287 40.9016L58.3864 32.915L45.7094 40.2343Z" fill="#4C5C75"/>
<path d="M57.7423 47.9286C57.4538 47.7613 57.2346 47.9055 57.2346 48.2171C57.2407 48.393 57.2898 48.5648 57.3776 48.7173C57.4654 48.8698 57.5893 48.9985 57.7384 49.0921C58.0077 49.2459 58.2634 49.144 58.2634 48.8113C58.2634 48.4998 58.0134 48.0863 57.7423 47.9286ZM56.2404 47.0613C55.9519 46.894 55.7346 47.0402 55.7327 47.3498C55.7389 47.5259 55.7883 47.6977 55.8765 47.8503C55.9647 48.0028 56.089 48.1314 56.2384 48.2248C56.5077 48.3825 56.7634 48.2786 56.7634 47.9459C56.7634 47.6344 56.5134 47.219 56.2404 47.0613ZM46.9077 41.6729L46.9038 42.8363L52.7423 46.2075L52.7461 45.044L46.9077 41.6729Z" fill="#FFD06C"/>
<path d="M45.7094 36.3438L45.7152 38.7226L59.4575 46.7091L59.4517 44.3303L45.7094 36.3438Z" fill="#1D2943"/>
<path d="M59.4518 44.33L59.4576 46.7088L72.1345 39.3915L72.1288 37.0107L59.4518 44.33Z" fill="#111D33"/>
<path d="M45.7094 36.3436L59.4517 44.3302L72.1287 37.011L58.3864 29.0244L45.7094 36.3436Z" fill="#4C5C75"/>
<path d="M57.7423 44.038C57.4538 43.8688 57.2346 44.0149 57.2346 44.3265C57.241 44.502 57.2902 44.6734 57.378 44.8256C57.4659 44.9778 57.5896 45.1061 57.7384 45.1995C58.0077 45.3572 58.2634 45.2534 58.2634 44.9207C58.2634 44.6091 58.0134 44.1957 57.7423 44.038ZM56.2404 43.1707C55.9519 43.0034 55.7346 43.1476 55.7327 43.4591C55.7389 43.6352 55.7883 43.8071 55.8765 43.9597C55.9647 44.1122 56.089 44.2408 56.2384 44.3341C56.5077 44.4899 56.7634 44.3861 56.7634 44.0553C56.7634 43.7438 56.5134 43.3265 56.2404 43.1707ZM46.9077 37.7822L46.9038 38.9438L52.7423 42.3149L52.7461 41.1515L46.9077 37.7822Z" fill="#FFD06C"/>
<path d="M45.7094 32.4512L45.7152 34.8319L59.4575 42.8185L59.4517 40.4377L45.7094 32.4512Z" fill="#1D2943"/>
<path d="M59.4518 40.4384L59.4576 42.8191L72.1345 35.4999L72.1288 33.1191L59.4518 40.4384Z" fill="#111D33"/>
<path d="M45.7094 32.4511L59.4517 40.4376L72.1287 33.1184L58.3864 25.1338L45.7094 32.4511Z" fill="#4C5C75"/>
<path d="M57.7423 40.1454C57.4538 39.9781 57.2346 40.1223 57.2346 40.4339C57.2407 40.6098 57.2898 40.7815 57.3776 40.9341C57.4654 41.0866 57.5893 41.2153 57.7384 41.3089C58.0077 41.4646 58.2634 41.3627 58.2634 41.03C58.2634 40.7185 58.0134 40.3012 57.7423 40.1454ZM56.2404 39.28C55.9519 39.1127 55.7346 39.257 55.7327 39.5685C55.7393 39.7443 55.7888 39.9157 55.877 40.0679C55.9651 40.2201 56.0892 40.3484 56.2384 40.4416C56.5077 40.5993 56.7634 40.4954 56.7634 40.1627C56.7634 39.8512 56.5134 39.4377 56.2404 39.28ZM46.9077 33.8896L46.9038 35.0531L52.7423 38.4243L52.7461 37.2608L46.9077 33.8896Z" fill="#FFD06C"/>
<path d="M45.7094 28.5615L45.7152 30.9423L59.4575 38.9269L59.4517 36.5481L45.7094 28.5615Z" fill="#1D2943"/>
<path d="M59.4518 36.5477L59.4576 38.9266L72.1345 31.6093L72.1288 29.2285L59.4518 36.5477Z" fill="#111D33"/>
<path d="M45.7094 28.5614L59.4517 36.548L72.1287 29.2287L58.3864 21.2422L45.7094 28.5614Z" fill="#4C5C75"/>
<path d="M57.7423 36.2558C57.4538 36.0885 57.2346 36.2327 57.2346 36.5442C57.241 36.7198 57.2902 36.8912 57.378 37.0434C57.4659 37.1955 57.5896 37.3239 57.7384 37.4173C58.0077 37.575 58.2634 37.4712 58.2634 37.1385C58.2634 36.8269 58.0134 36.4135 57.7423 36.2558ZM56.2404 35.3885C55.9519 35.2212 55.7346 35.3673 55.7327 35.6769C55.7389 35.853 55.7883 36.0249 55.8765 36.1774C55.9647 36.33 56.089 36.4586 56.2384 36.5519C56.5077 36.7077 56.7634 36.6058 56.7634 36.2731C56.7634 35.9615 56.5134 35.5462 56.2404 35.3885ZM46.9077 30L46.9038 31.1635L52.7423 34.5346L52.7461 33.3712L46.9077 30Z" fill="#FFD06C"/>
<path d="M45.7094 24.6709L45.7152 27.0497L59.4575 35.0363L59.4517 32.6555L45.7094 24.6709Z" fill="#1D2943"/>
<path d="M59.4518 32.6552L59.4576 35.036L72.1345 27.7167L72.1288 25.3379L59.4518 32.6552Z" fill="#111D33"/>
<path d="M45.7094 24.6708L59.4517 32.6554L72.1287 25.3381L58.3864 17.3516L45.7094 24.6708Z" fill="#4C5C75"/>
<path d="M57.7423 32.3651C57.4538 32.1959 57.2346 32.342 57.2346 32.6536C57.241 32.8292 57.2902 33.0005 57.378 33.1527C57.4659 33.3049 57.5896 33.4333 57.7384 33.5267C58.0077 33.6824 58.2634 33.5805 58.2634 33.2478C58.2634 32.9363 58.0134 32.5228 57.7423 32.3651ZM56.2404 31.4978C55.9519 31.3305 55.7346 31.4747 55.7327 31.7863C55.7389 31.9624 55.7883 32.1342 55.8765 32.2868C55.9647 32.4393 56.089 32.5679 56.2384 32.6613C56.5077 32.817 56.7634 32.7132 56.7634 32.3824C56.7634 32.0709 56.5134 31.6536 56.2404 31.4978ZM46.9077 26.1074L46.9038 27.2709L52.7423 30.642L52.7461 29.4786L46.9077 26.1074Z" fill="#FFD06C"/>
<path d="M45.7094 20.7783L45.7152 23.1591L59.4575 31.1456L59.4517 28.7649L45.7094 20.7783Z" fill="#1D2943"/>
<path d="M59.4518 28.7645L59.4576 31.1453L72.1345 23.8261L72.1288 21.4453L59.4518 28.7645Z" fill="#111D33"/>
<path d="M45.7094 20.7782L59.4517 28.7648L72.1287 21.4456L58.3844 13.4609L45.7094 20.7782Z" fill="#4C5C75"/>
<path d="M57.7423 28.4726C57.4538 28.3053 57.2346 28.4495 57.2346 28.761C57.2407 28.9369 57.2898 29.1087 57.3776 29.2612C57.4654 29.4138 57.5893 29.5425 57.7384 29.636C58.0077 29.7918 58.2634 29.688 58.2634 29.3572C58.2634 29.0456 58.0134 28.6283 57.7423 28.4726ZM56.2404 27.6053C55.9519 27.4399 55.7346 27.5841 55.7327 27.8937C55.7389 28.0698 55.7883 28.2417 55.8765 28.3942C55.9647 28.5468 56.089 28.6754 56.2384 28.7687C56.5077 28.9264 56.7634 28.8226 56.7634 28.4899C56.7634 28.1783 56.5134 27.763 56.2404 27.6053ZM46.9077 22.2168L46.9038 23.3803L52.7423 26.7514L52.7461 25.588L46.9077 22.2168Z" fill="#FFD06C"/>
<path d="M74.9058 15.4424L74.8096 51.8943L58.8808 61.1501L58.9769 24.6962L74.9058 15.4424Z" fill="#DEDFFB"/>
<path d="M44.4537 18.0597L57.4614 25.5712L57.373 58.5327L58.8807 61.15L58.9768 24.6962L42.946 15.4404L44.4537 18.0597Z" fill="#E9E7FC"/>
<path d="M74.9058 15.4423L58.9788 24.6961L42.9461 15.4403L58.8731 6.18457L74.9058 15.4423Z" fill="#F3F1FC"/>
<path d="M48.7113 14.5114V15.5883C48.7113 15.7037 48.8075 15.8191 48.9614 15.9153L58.2883 21.3383C58.596 21.5114 59.096 21.5114 59.4229 21.3383L68.8075 15.9153C68.9614 15.8383 69.019 15.723 69.019 15.6076V14.5114L69.0152 14.5306C69.0287 14.4056 68.9633 14.271 68.7902 14.1845L59.4825 8.76142C59.1556 8.56911 58.6556 8.56911 58.3479 8.76142L48.9633 14.1845C48.7325 14.3191 48.6748 14.5114 48.7902 14.6845C48.7325 14.6268 48.7133 14.5691 48.7133 14.5114H48.7113Z" fill="#DEDFFB"/>
<path d="M48.7211 14.5078V15.5809C48.7211 15.6982 48.8 15.8155 48.9577 15.9155L58.2942 21.3309C58.4684 21.4185 58.6607 21.4641 58.8557 21.4641C59.0507 21.4641 59.243 21.4185 59.4173 21.3309L68.8134 15.9155C68.9711 15.8367 69.0288 15.7174 69.0288 15.6001V14.5078C69.0288 14.6251 68.9519 14.7444 68.7942 14.8424L59.4173 20.2597C59.1019 20.4367 58.5903 20.4367 58.275 20.2405L48.9577 14.8232C48.8 14.7444 48.7211 14.6251 48.7211 14.5078Z" fill="#DEDFFB"/>
<path d="M48.9634 14.1762C48.65 14.357 48.648 14.6473 48.9596 14.83L58.2807 20.2454C58.4569 20.336 58.6519 20.3839 58.85 20.3853C59.0481 20.3866 59.2437 20.3413 59.4211 20.2531L68.8038 14.8358C69.1173 14.655 69.1057 14.357 68.7942 14.1762L59.473 8.75889C59.2986 8.66961 59.1055 8.62305 58.9096 8.62305C58.7137 8.62305 58.5205 8.66961 58.3461 8.75889L48.9634 14.1762Z" fill="white"/>
<path d="M50.4325 14.5056L50.894 14.7748L59.3709 9.88056L58.9094 9.61133L50.4325 14.5056ZM51.569 15.1652L52.0305 15.4344L60.5075 10.5402L60.0459 10.2709L51.569 15.1652ZM52.7055 15.8267L53.1671 16.0959L61.644 11.2017L61.1825 10.9325L52.7055 15.8267ZM53.8421 16.4863L54.3036 16.7556L62.7805 11.8613L62.319 11.5921L53.8421 16.4863ZM54.9805 17.1479L55.4421 17.4171L63.9171 12.5229L63.4555 12.2536L54.9805 17.1479ZM56.1286 17.8152L56.5786 18.0767L65.0555 13.1844L64.6055 12.9229L56.1286 17.8152ZM57.2651 18.4767L57.7152 18.7383L66.1921 13.844L65.7421 13.5825L57.2651 18.4767ZM58.4036 19.1383L58.8517 19.3979L67.3286 14.5056L66.8786 14.244L58.4036 19.1383Z" fill="#DEDFFB"/>
<path d="M44.3671 51.0153L57.3786 58.5288L57.469 25.5692L44.4575 18.0576L44.3671 51.0153Z" fill="#57B3FE" fill-opacity="0.270588"/>
<path d="M53.2403 20.5693L54.5326 21.3193L55.8403 20.5654L54.548 19.8154L53.2403 20.5693Z" fill="#BF7D5A"/>
<path d="M55.2018 21.7108L56.496 22.4608L57.8037 21.7051L56.5114 20.9551L55.2018 21.7108Z" fill="#78E75A"/>
<path d="M57.1594 22.8456L58.4594 23.6014L59.7671 22.8476L58.469 22.0918L57.1594 22.8456Z" fill="#F45170"/>
<path d="M80.8153 74.4905C81.4008 74.501 81.9792 74.362 82.496 74.0866L92.348 68.4001C92.8441 68.1135 93.1172 67.7193 93.1172 67.2866C93.1172 66.8578 92.848 66.4635 92.3595 66.1789L82.5576 60.4847C81.6191 59.9366 80.146 59.9385 79.1999 60.4847L69.348 66.1712C68.8518 66.4597 68.5768 66.8539 68.5749 67.2866C68.5749 67.7135 68.846 68.1059 69.3364 68.3905L79.1383 74.0866C79.5999 74.3558 80.2076 74.4905 80.8153 74.4905ZM80.8806 60.5539C81.3999 60.5539 81.9191 60.6693 82.3153 60.9001L92.1172 66.5943C92.4518 66.7885 92.6364 67.0347 92.6364 67.2866C92.6364 67.5405 92.448 67.7866 92.1076 67.9828L82.2556 73.6712C81.473 74.1232 80.1556 74.1232 79.3806 73.6712L69.5787 67.977C69.2422 67.7789 69.0556 67.5347 69.0556 67.2847C69.0576 67.0347 69.248 66.7847 69.5883 66.5866L79.4422 60.9001C79.8849 60.6637 80.3808 60.5446 80.8826 60.5539H80.8806ZM29.0883 44.6558C29.696 44.6558 30.3037 44.5212 30.7672 44.2539L40.6191 38.5674C41.1153 38.2789 41.3883 37.8847 41.3883 37.452C41.3883 37.0232 41.1191 36.6289 40.6306 36.3443L30.8287 30.6482C29.8903 30.102 28.4172 30.1039 27.471 30.6482L17.6191 36.3366C17.123 36.6251 16.848 37.0193 16.848 37.452C16.848 37.8789 17.1172 38.2712 17.6095 38.5578L27.4095 44.2539C27.871 44.5232 28.4787 44.6558 29.0883 44.6558ZM29.1518 30.7212C29.673 30.7212 30.1922 30.8366 30.5864 31.0635L40.3883 36.7597C40.723 36.9539 40.9076 37.202 40.9076 37.452C40.9076 37.7058 40.7191 37.952 40.3787 38.1501L30.5268 43.8366C29.748 44.2885 28.4287 44.2905 27.6518 43.8366L17.8518 38.1424C17.5133 37.9462 17.3287 37.7001 17.3287 37.4501C17.3287 37.2001 17.5172 36.9501 17.8595 36.7539L27.7114 31.0655C28.1541 30.829 28.65 30.7118 29.1518 30.7212Z" fill="#525566"/>
<path d="M17.0961 30.9152V35.2613C17.0961 35.569 17.3077 35.896 17.75 36.146L27.5384 41.8383C28.3846 42.3383 29.7884 42.3383 30.6538 41.8383L40.5192 36.1652C40.9423 35.9152 41.1538 35.569 41.1538 35.2421V30.896C41.1538 30.569 40.9423 30.2421 40.5192 30.0113L30.7115 24.2998C29.8461 23.7998 28.4615 23.7998 27.5961 24.2998L17.75 29.9921C17.3077 30.2421 17.0961 30.569 17.0961 30.9152Z" fill="#DEDFFB"/>
<path d="M17.7363 31.8013L27.5383 37.4975C28.3844 37.9898 29.7883 37.9975 30.6537 37.4975L40.5056 31.8071C40.9402 31.5571 41.1537 31.2263 41.1537 30.8994L41.1594 35.2494C41.1594 35.5763 40.9479 35.9052 40.5133 36.1571L30.6614 41.8456C29.796 42.3456 28.3921 42.3379 27.546 41.8456L17.744 36.1494C17.3152 35.8994 17.1017 35.5763 17.1017 35.2533L17.094 30.9033C17.094 31.2263 17.3075 31.5533 17.7363 31.8013Z" fill="#DEDFFB"/>
<path d="M17.7461 29.996C16.8807 30.496 16.875 31.3018 17.7365 31.8018L27.5384 37.498C28.3846 37.9903 29.7884 37.998 30.6538 37.498L40.5057 31.8076C41.3711 31.3076 41.3634 30.4941 40.5153 30.0018L30.7134 24.3057C29.8538 23.8057 28.4634 23.8057 27.598 24.3057L17.7461 29.996Z" fill="#F3F1FC"/>
<path d="M20.0653 16.3628L27.8634 20.8936C28.5365 21.2859 29.6519 21.2917 30.3423 20.8936L38.1788 16.3686C38.525 16.1705 38.6942 15.9071 38.6942 15.6475L38.7 29.1667C38.7 29.4282 38.5307 29.6898 38.1846 29.8898L30.348 34.4148C29.6576 34.8128 28.5423 34.8052 27.8673 34.4148L20.0711 29.8821C19.7307 29.6859 19.5615 29.4282 19.5596 29.1705L19.5538 15.6513C19.5538 15.9071 19.7269 16.1648 20.0653 16.3628Z" fill="#9EA9C9"/>
<path d="M20.0653 19.2847L27.8634 23.8174C28.5365 24.2078 29.6519 24.2155 30.3423 23.8174L38.1788 19.2924C38.525 19.0924 38.6942 18.8309 38.6942 18.5693L38.7 19.7463C38.7 20.0059 38.5307 20.2693 38.1846 20.4674L30.348 24.9924C29.6576 25.3905 28.5423 25.3847 27.8673 24.9924L20.0711 20.4616C19.7307 20.2636 19.5615 20.0059 19.5596 19.7501L19.5538 18.5732C19.5538 18.8309 19.7269 19.0886 20.0653 19.2847Z" fill="#4C5C75"/>
<path d="M20.0653 21.773L27.8634 26.3038C28.5365 26.6961 29.6519 26.7018 30.3423 26.3038L38.1788 21.7788C38.525 21.5788 38.6942 21.3172 38.6942 21.0576L38.7 22.2326C38.7 22.4942 38.5307 22.7557 38.1846 22.9557L30.348 27.4807C29.6576 27.8788 28.5423 27.8711 27.8673 27.4807L20.0711 22.9499C19.7307 22.7518 19.5615 22.4942 19.5596 22.2365L19.5538 21.0595C19.5538 21.3172 19.7269 21.5749 20.0653 21.7711V21.773Z" fill="#4C5C75"/>
<path d="M20.0653 24.2593L27.8634 28.792C28.5365 29.1824 29.6519 29.1901 30.3423 28.792L38.1788 24.267C38.525 24.067 38.6942 23.8055 38.6942 23.5439L38.7 24.7209C38.7 24.9805 38.5307 25.2439 38.1846 25.442L30.348 29.967C29.6576 30.3651 28.5423 30.3593 27.8673 29.967L20.0711 25.4363C19.7307 25.2382 19.5615 24.9805 19.5596 24.7247L19.5538 23.5478C19.5538 23.8055 19.7269 24.0632 20.0653 24.2593Z" fill="#4C5C75"/>
<path d="M20.0653 26.7476L27.8634 31.2784C28.5365 31.6707 29.6519 31.6765 30.3423 31.2784L38.1788 26.7534C38.525 26.5534 38.6942 26.2918 38.6942 26.0322L38.7 27.2072C38.7 27.4688 38.5307 27.7303 38.1846 27.9303L30.348 32.4553C29.6576 32.8534 28.5423 32.8457 27.8673 32.4553L20.0711 27.9226C19.7307 27.7265 19.5615 27.4688 19.5596 27.2111L19.5538 26.0341C19.5538 26.2918 19.7269 26.5515 20.0653 26.7476Z" fill="#4C5C75"/>
<path d="M20.0729 14.9261C19.3845 15.3242 19.3806 15.9646 20.0652 16.3626L27.8633 20.8934C28.5364 21.2857 29.6518 21.2915 30.3422 20.8934L38.1787 16.3684C38.8672 15.9703 38.8614 15.3242 38.1864 14.9338L30.3902 10.4011C29.7056 10.003 28.5999 10.003 27.9095 10.4011L20.0729 14.9261Z" fill="#C9CEE2"/>
<path d="M18.8556 12.627L27.6748 17.7539C28.4383 18.1962 29.6998 18.2039 30.4787 17.7539L39.346 12.6347C39.7364 12.4097 39.9287 12.1135 39.9287 11.8174L39.9729 30.502C39.9729 30.7982 39.7806 31.0943 39.3921 31.3193L30.5267 36.4385C29.746 36.8885 28.4844 36.8808 27.721 36.4385L18.8998 31.3116C18.5152 31.0885 18.3229 30.7982 18.3229 30.5039L18.2787 11.8212C18.2787 12.1116 18.471 12.402 18.8556 12.627Z" fill="#57B3FE" fill-opacity="0.207843"/>
<path d="M17.0961 7.70358V12.0497C17.0961 12.3767 17.3077 12.7036 17.75 12.9343L27.5384 18.6459C28.3846 19.1267 29.7884 19.1459 30.6538 18.6459L40.5192 12.9536C40.9423 12.7036 41.1538 12.3767 41.1538 12.0497V7.70358C41.1538 7.37665 40.9423 7.04973 40.5192 6.79973L30.7115 1.10742C29.8461 0.607422 28.4615 0.607422 27.5961 1.10742L17.75 6.7805C17.3077 7.0305 17.0961 7.35742 17.0961 7.70358Z" fill="#E9E7FC"/>
<path d="M27.544 18.6395L17.744 12.9434C17.3152 12.6953 17.1017 12.3722 17.1017 12.0472L17.094 7.69724C17.094 8.02224 17.3075 8.34531 17.7363 8.59339L27.5383 14.2895C28.3844 14.7819 29.7883 14.7895 30.6537 14.2895L40.5056 8.60301C40.9402 8.35301 41.1537 8.02224 41.1537 7.69531L41.1594 12.0434C41.1594 12.3722 40.9479 12.7011 40.5133 12.953L30.6614 18.6395H27.544Z" fill="#E9E7FC"/>
<path d="M17.7461 6.79002C16.8807 7.29002 16.875 8.09387 17.7365 8.59387L27.5384 14.29C28.3846 14.7823 29.7884 14.79 30.6538 14.29L40.5057 8.60349C41.3711 8.10349 41.3634 7.29002 40.5153 6.79772L30.7134 1.10156C29.8538 0.601562 28.4634 0.601562 27.598 1.10156L17.7461 6.79002Z" fill="#F3F1FC"/>
<path d="M21.3461 6.4342V8.1842C21.3461 8.35727 21.4615 8.54958 21.7115 8.6842L28.2307 12.4727C28.7115 12.7611 29.4807 12.7611 29.9807 12.4727L36.5384 8.6842C36.7884 8.54958 36.9038 8.35727 36.9038 8.1842V6.41496C36.9038 6.22266 36.7884 6.04958 36.5384 5.91496L30.0192 2.1265C29.5384 1.83804 28.75 1.83804 28.2692 2.1265L21.7115 5.91496C21.4615 6.04958 21.3461 6.24189 21.3461 6.4342Z" fill="#B0B8CF"/>
<path d="M21.7019 6.92658L28.2211 10.715C28.4919 10.8528 28.7915 10.9245 29.0954 10.9242C29.3992 10.9238 29.6987 10.8515 29.9692 10.7131L36.5307 6.92465C36.7749 6.78427 36.8961 6.59773 36.8961 6.41504L36.9019 8.17465C36.9019 8.35927 36.7807 8.54389 36.5365 8.68427L29.9749 12.4727C29.7044 12.6111 29.405 12.6835 29.1011 12.6838C28.7973 12.6841 28.4977 12.6125 28.2269 12.4747L21.7076 8.68619C21.4692 8.54773 21.3499 8.36696 21.3499 8.18619L21.3442 6.42465C21.3442 6.60735 21.4634 6.78812 21.7019 6.92465V6.92658Z" fill="#B0B8CF"/>
<path d="M21.7114 5.91357C21.2268 6.19434 21.221 6.64626 21.7018 6.92703L28.221 10.7155C28.4918 10.8533 28.7914 10.925 29.0953 10.9246C29.3991 10.9243 29.6986 10.852 29.9691 10.7136L36.5306 6.9251C37.0152 6.64434 37.0191 6.19434 36.5364 5.91357L30.0171 2.1251C29.7472 1.98704 29.4483 1.91504 29.145 1.91504C28.8418 1.91504 28.5429 1.98704 28.2729 2.1251L21.7114 5.91357Z" fill="white"/>
<path d="M24.1462 11.565C24.1456 11.3654 24.4249 11.2027 24.7701 11.2016C25.1153 11.2006 25.3956 11.3616 25.3961 11.5613C25.3967 11.761 25.1174 11.9237 24.7722 11.9247C24.427 11.9257 24.1467 11.7647 24.1462 11.565Z" fill="#F45170"/>
<path d="M25.7018 12.4683C25.7012 12.2687 25.9806 12.106 26.3257 12.105C26.6709 12.1039 26.9512 12.265 26.9518 12.4646C26.9524 12.6643 26.6731 12.827 26.3279 12.828C25.9827 12.8291 25.7024 12.668 25.7018 12.4683Z" fill="#F45170"/>
<path d="M27.4479 13.109C27.2017 13.2494 27.2017 13.4783 27.4479 13.6225C27.5847 13.6927 27.7363 13.7293 27.8902 13.7293C28.044 13.7293 28.1956 13.6927 28.3325 13.6225C28.5786 13.4802 28.5786 13.2533 28.3344 13.111C28.1974 13.0403 28.0455 13.0033 27.8914 13.0029C27.7372 13.0026 27.5852 13.039 27.4479 13.109Z" fill="#F45170"/>
<path d="M17.6382 10.3729V10.7845L23.4363 14.1345V13.721L17.6382 10.3729ZM17.6344 11.1979V11.6037L23.4363 14.9537V14.5479L17.6344 11.1979ZM17.6402 9.55371V9.95756L23.4382 13.3076V12.9037L17.6402 9.55371Z" fill="#B0B8CF"/>
<path d="M68.8076 60.9536L68.8268 65.2997C68.8268 65.6266 69.0384 65.9536 69.4614 66.2036L79.2691 71.8959C80.1153 72.3959 81.5191 72.3959 82.3845 71.8959L92.2307 66.2036C92.673 65.9536 92.8845 65.6266 92.8845 65.2997L92.8653 60.992C92.8845 60.6459 92.673 60.319 92.2307 60.0497L82.4422 54.3574C81.5768 53.8574 80.1922 53.8574 79.3268 54.3574L69.4614 60.0497C69.0191 60.2997 68.8076 60.6267 68.8076 60.9536Z" fill="#DEDFFB"/>
<path d="M69.4595 61.8531L79.2595 67.5493C80.1057 68.0416 81.5095 68.0493 82.3749 67.5493L92.2307 61.8608C92.6634 61.6108 92.8788 61.28 92.8768 60.9531L92.8845 65.3031C92.8845 65.63 92.673 65.9608 92.2364 66.2108L82.3845 71.8993C81.5191 72.3993 80.1153 72.3916 79.2691 71.8993L69.4672 66.2031C69.0403 65.9531 68.8268 65.63 68.8249 65.307L68.8191 60.957C68.8191 61.28 69.0326 61.605 69.4614 61.8531H69.4595Z" fill="#DEDFFB"/>
<path d="M69.469 60.0479C68.6036 60.5479 68.5979 61.3536 69.4594 61.8536L79.2594 67.5498C80.1056 68.0421 81.5094 68.0498 82.3748 67.5498L92.2306 61.8613C93.0959 61.3613 93.0863 60.5479 92.2402 60.0556L82.4383 54.3613C81.5786 53.8613 80.1883 53.8613 79.3229 54.3613L69.469 60.0479Z" fill="#F3F1FC"/>
<path d="M71.7885 46.4146L79.5846 50.9454C80.2577 51.3377 81.375 51.3435 82.0654 50.9454L89.9 46.4223C90.2461 46.2242 90.4154 45.9608 90.4154 45.7012L90.4211 59.2204C90.4211 59.4819 90.2519 59.7435 89.9058 59.9435L82.0673 64.4685C81.3788 64.8666 80.2634 64.8589 79.5884 64.4685L71.7923 59.9377C71.4519 59.7396 71.2808 59.4819 71.2808 59.2242L71.275 45.705C71.275 45.9608 71.4461 46.2185 71.7865 46.4166L71.7885 46.4146Z" fill="#9EA9C9"/>
<path d="M71.7882 49.3384L79.5844 53.8692C80.2575 54.2596 81.3748 54.2672 82.0652 53.8692L89.9017 49.3442C90.2479 49.1442 90.4171 48.8826 90.4171 48.6211L90.4229 49.798C90.4229 50.0596 90.2536 50.3211 89.9075 50.5192L82.069 55.0442C81.3805 55.4422 80.2652 55.4365 79.5902 55.0442L71.794 50.5134C71.4536 50.3153 71.2825 50.0576 71.2825 49.8019L71.2767 48.6249C71.2767 48.8826 71.4479 49.1422 71.7882 49.3384Z" fill="#4C5C75"/>
<path d="M71.7882 51.8248L79.5844 56.3555C80.2575 56.7478 81.3748 56.7536 82.0652 56.3555L89.9017 51.8305C90.2479 51.6325 90.4171 51.369 90.4171 51.1094L90.4229 52.2844C90.4229 52.5459 90.2536 52.8075 89.9075 53.0075L82.069 57.5325C81.3805 57.9305 80.2652 57.9248 79.5902 57.5325L71.794 53.0017C71.4536 52.8036 71.2825 52.5459 71.2825 52.2882L71.2767 51.1113C71.2767 51.369 71.4479 51.6267 71.7882 51.8248Z" fill="#4C5C75"/>
<path d="M71.7882 54.3111L79.5844 58.8457C80.2575 59.2361 81.3748 59.2438 82.0652 58.8457L89.9017 54.3207C90.2479 54.1207 90.4171 53.8592 90.4171 53.5977L90.4229 54.7746C90.4229 55.0361 90.2536 55.2977 89.9075 55.4957L82.069 60.0207C81.3805 60.4188 80.2652 60.413 79.5902 60.0207L71.794 55.49C71.4536 55.2919 71.2825 55.0342 71.2825 54.7784L71.2767 53.6015C71.2767 53.8592 71.4479 54.115 71.7882 54.3111Z" fill="#4C5C75"/>
<path d="M71.7885 56.7994L79.5846 61.3302C80.2577 61.7225 81.375 61.7282 82.0654 61.3302L89.9 56.8071C90.2461 56.609 90.4154 56.3456 90.4154 56.0859L90.4211 57.2609C90.4211 57.5225 90.2519 57.784 89.9058 57.984L82.0673 62.509C81.3788 62.9071 80.2634 62.8994 79.5884 62.509L71.7923 57.9782C71.4519 57.7802 71.2808 57.5225 71.2808 57.2648L71.275 56.0879C71.275 56.3456 71.4461 56.6032 71.7865 56.8013L71.7885 56.7994Z" fill="#4C5C75"/>
<path d="M71.796 44.9803C71.1076 45.3765 71.1037 46.0188 71.7883 46.4149L79.5845 50.9457C80.2576 51.338 81.3749 51.3438 82.0653 50.9457L89.8999 46.4226C90.5883 46.0246 90.5807 45.3784 89.9076 44.988L82.1095 40.4553C81.4268 40.0592 80.321 40.0592 79.6307 40.4553L71.796 44.9803Z" fill="#C9CEE2"/>
<path d="M70.5768 42.6788L79.3979 47.8076C80.1594 48.2499 81.4229 48.2576 82.2018 47.8076L91.0671 42.6884C91.4575 42.4634 91.6498 42.1672 91.6498 41.8711L91.6921 60.5557C91.6921 60.8519 91.4998 61.1499 91.1133 61.373L82.2479 66.4923C81.4671 66.9423 80.2037 66.9346 79.4421 66.4923L70.621 61.3653C70.2364 61.1423 70.0441 60.8519 70.0441 60.5596L69.9998 41.8749C69.9998 42.1672 70.1921 42.4576 70.5768 42.6826V42.6788Z" fill="#57B3FE" fill-opacity="0.207843"/>
<path d="M68.8076 37.7417L68.8268 42.107C68.8268 42.4147 69.0384 42.7417 69.4614 42.9917L79.2691 48.684C80.1153 49.184 81.5191 49.184 82.3845 48.684L92.2307 43.0109C92.673 42.7609 92.8845 42.4147 92.8845 42.0878L92.8653 37.7801C92.8845 37.4532 92.673 37.107 92.2307 36.857L82.4422 31.1455C81.5768 30.6455 80.1922 30.6455 79.3268 31.1455L69.4614 36.8378C69.0191 37.0878 68.8076 37.4147 68.8076 37.7417Z" fill="#E9E7FC"/>
<path d="M69.4595 38.648L79.2595 44.3423C80.1057 44.8346 81.5095 44.8423 82.3749 44.3423L92.2307 38.6557C92.6634 38.4057 92.8788 38.075 92.8768 37.748L92.8845 42.0961C92.8845 42.4231 92.673 42.7519 92.2364 43.0038L82.3845 48.6923C81.5191 49.1923 80.1153 49.1846 79.2691 48.6923L69.4672 42.9961C69.0403 42.748 68.8268 42.425 68.8249 42.1019L68.8191 37.7519C68.8191 38.075 69.0326 38.398 69.4614 38.648H69.4595Z" fill="#E9E7FC"/>
<path d="M69.469 36.8418C68.6036 37.3418 68.5979 38.1476 69.4594 38.6476L79.2594 44.3418C80.1056 44.8341 81.5094 44.8418 82.3748 44.3418L92.2306 38.6552C93.0959 38.1552 93.0863 37.3418 92.2402 36.8495L82.4383 31.1533C81.5786 30.6533 80.1883 30.6533 79.3229 31.1533L69.469 36.8418Z" fill="#F3F1FC"/>
<path d="M73.0575 36.4726L73.0768 38.2418C73.0768 38.4149 73.1922 38.6072 73.4229 38.7418L79.9422 42.5303C80.4229 42.7995 81.2114 42.7995 81.6922 42.5303L88.2498 38.7418C88.4998 38.588 88.6152 38.4149 88.6152 38.2226V36.4726C88.6152 36.2995 88.4806 36.1072 88.2498 35.9726L81.7306 32.1841C81.2499 31.8957 80.4806 31.8957 79.9999 32.1841L73.4422 35.9726C73.1922 36.1072 73.0575 36.2995 73.0575 36.4726Z" fill="#B0B8CF"/>
<path d="M73.425 36.9783L79.9442 40.7668C80.215 40.9046 80.5146 40.9763 80.8185 40.9759C81.1224 40.9756 81.4218 40.9033 81.6923 40.7649L88.2538 36.9764C88.4981 36.836 88.6192 36.6495 88.6192 36.4668L88.625 38.2283C88.625 38.411 88.5038 38.5937 88.2596 38.736L81.6981 42.5245C81.4276 42.6629 81.1281 42.7352 80.8243 42.7356C80.5204 42.7359 80.2208 42.6642 79.95 42.5264L73.4308 38.738C73.1923 38.5995 73.0731 38.4187 73.0731 38.2379L73.0673 36.4764C73.0673 36.6591 73.1865 36.8418 73.425 36.9783Z" fill="#B0B8CF"/>
<path d="M73.4345 35.9653C72.948 36.2461 72.9422 36.698 73.4249 36.9788L79.9441 40.7672C80.2149 40.9051 80.5146 40.9767 80.8184 40.9764C81.1223 40.9761 81.4217 40.9037 81.6922 40.7653L88.2538 36.9769C88.7384 36.6961 88.7422 36.2461 88.2595 35.9653L81.7403 32.1769C81.4703 32.0388 81.1714 31.9668 80.8682 31.9668C80.5649 31.9668 80.266 32.0388 79.9961 32.1769L73.4345 35.9653Z" fill="white"/>
<path d="M75.8769 41.6226C75.8763 41.423 76.1556 41.2603 76.5008 41.2592C76.846 41.2582 77.1263 41.4193 77.1269 41.6189C77.1274 41.8186 76.8481 41.9813 76.5029 41.9823C76.1578 41.9833 75.8775 41.8223 75.8769 41.6226Z" fill="#F45170"/>
<path d="M77.4345 42.5269C77.4339 42.3273 77.7132 42.1646 78.0584 42.1635C78.4036 42.1625 78.6839 42.3236 78.6845 42.5232C78.6851 42.7229 78.4057 42.8856 78.0606 42.8866C77.7154 42.8876 77.4351 42.7266 77.4345 42.5269Z" fill="#F45170"/>
<path d="M79.171 43.1608C78.9248 43.3012 78.9229 43.53 79.171 43.6743C79.3079 43.7444 79.4595 43.7811 79.6133 43.7811C79.7671 43.7811 79.9187 43.7444 80.0556 43.6743C80.2998 43.5319 80.3018 43.305 80.0575 43.1627C79.9205 43.0921 79.7687 43.055 79.6145 43.0547C79.4603 43.0544 79.3083 43.0907 79.171 43.1608Z" fill="#F45170"/>
<path d="M69.3614 40.4228L69.3595 40.8382L75.1614 44.1862V43.7728L69.3614 40.4228ZM69.3576 41.2497V41.6555L75.1576 45.0055L75.1595 44.6016L69.3576 41.2497ZM69.3633 39.6055V40.0093L75.1633 43.3612V42.9555L69.3633 39.6055Z" fill="#B0B8CF"/>
<path d="M59.7691 93.2728C60.4441 93.2728 61.1191 93.1247 61.6306 92.8267L91.5287 75.5651C92.0672 75.2517 92.3672 74.8209 92.3672 74.3536C92.3672 73.8843 92.0691 73.4555 91.5287 73.142L87.648 70.8863C87.6207 70.8704 87.5905 70.86 87.5593 70.8557C87.528 70.8515 87.4961 70.8534 87.4656 70.8614C87.4351 70.8695 87.4064 70.8834 87.3813 70.9025C87.3561 70.9217 87.335 70.9455 87.3191 70.9728C87.3032 71.0001 87.2928 71.0302 87.2886 71.0615C87.2843 71.0928 87.2862 71.1246 87.2943 71.1552C87.3023 71.1857 87.3163 71.2143 87.3354 71.2395C87.3545 71.2646 87.3784 71.2857 87.4056 71.3017L91.2883 73.5574C91.673 73.7805 91.8845 74.0632 91.8845 74.3536C91.8845 74.642 91.673 74.9247 91.2883 75.1497L61.3903 92.4113C60.5114 92.919 59.0306 92.919 58.1518 92.4113L50.0268 87.6709C49.2858 87.248 48.4473 87.0255 47.5941 87.0255C46.7409 87.0255 45.9024 87.248 45.1614 87.6709L39.3076 91.092C39.0777 91.2266 38.8162 91.2975 38.5499 91.2975C38.2836 91.2975 38.022 91.2266 37.7922 91.092L33.2787 88.4517C33.2236 88.4195 33.1581 88.4106 33.0964 88.4268C33.0347 88.443 32.982 88.4831 32.9499 88.5382C32.9177 88.5933 32.9088 88.6589 32.925 88.7205C32.9413 88.7822 32.9813 88.8349 33.0364 88.867L37.5499 91.5074C38.1653 91.867 38.9345 91.867 39.5499 91.5074L45.3999 88.0843C46.0679 87.7038 46.8234 87.5037 47.5922 87.5037C48.361 87.5037 49.1165 87.7038 49.7845 88.0843L57.9076 92.8247C58.421 93.1228 59.096 93.2728 59.7691 93.2728Z" fill="#525566"/>
<path d="M33.9613 57.4189V57.8632L36.1498 59.1286V58.6824L33.9613 57.4189ZM33.946 62.2959V62.7343L38.0652 65.1132V64.6728L33.946 62.2959ZM35.5152 60.7593V61.1978L37.9402 62.5978V62.1593L35.5152 60.7593ZM33.9498 61.0728V61.5132L39.969 64.9882L39.9709 64.5497L33.9498 61.0728Z" fill="#DEDFFB"/>
<path d="M33.9575 58.6396V59.08L39.1594 62.0839V61.6454L33.9575 58.6396Z" fill="#78E75A"/>
<path d="M33.9537 59.8574V60.2959L34.8691 60.8247V60.3863L33.9537 59.8574ZM33.9287 68.3843V68.8228L35.9614 69.9959V69.5574L33.9287 68.3843Z" fill="#DEDFFB"/>
<path d="M33.9229 70.8223V71.2607L35.9441 72.428V71.9896L33.9229 70.8223Z" fill="#DBA660"/>
<path d="M33.9267 69.6001V70.0386L38.1074 72.4539V72.0136L33.9267 69.6001ZM36.4478 72.2809V72.7193L40.0824 74.8193L40.0844 74.3809L36.4478 72.2809ZM36.2824 69.7424V70.1809L39.7401 72.177V71.7386L36.2824 69.7424ZM35.4036 66.7924V67.2366L40.2498 70.0347V69.5924L35.4036 66.7924ZM33.9363 65.9443V66.3905L34.9998 67.0059V66.5597L33.9363 65.9443Z" fill="#DEDFFB"/>
<path d="M33.9402 64.7285V65.167L37.2825 67.0977V66.6593L33.9402 64.7285Z" fill="#6BB4F9"/>
<path d="M33.9326 67.1667V67.6052L37.1826 69.4821V69.0417L33.9326 67.1667ZM36.5268 65.0033V65.4417L40.446 67.7052V67.2667L36.5268 65.0033ZM33.9422 63.511V63.9513L35.9345 65.0994V64.661L33.9422 63.511ZM18.0383 61.6667V62.2437L32.6076 70.6667V70.0898L18.0383 61.6667ZM18.0383 60.0648V60.6417L32.6076 69.0648V68.4898L18.0383 60.0648ZM18.0383 58.4629V59.0398L32.6076 67.4629V66.8879L18.0383 58.4629Z" fill="#DEDFFB"/>
<path d="M28.2769 56.6479C28.1827 56.5921 28.0904 56.5863 28.0269 56.6421C27.9096 56.7344 27.9308 56.9844 28.0711 57.2017L29.7442 59.7498L28.0615 60.3613C27.9211 60.4152 27.8981 60.6402 28.0154 60.869C28.0695 60.986 28.1564 61.0848 28.2654 61.1536C28.3384 61.1959 28.4115 61.2094 28.4731 61.1863L30.4673 60.4556C30.5481 60.4363 30.5923 60.3517 30.5923 60.2402C30.5923 60.1306 30.55 59.994 30.4673 59.8786L28.4865 56.8556C28.4338 56.7709 28.362 56.6998 28.2769 56.6479ZM24.1346 54.2556C24.0615 54.2133 23.9884 54.1979 23.9269 54.2229L21.9327 54.9517C21.8596 54.9767 21.8134 55.0613 21.8134 55.1709C21.8182 55.2988 21.8589 55.4228 21.9308 55.5286L23.9134 58.5536C23.9661 58.6383 24.0379 58.7094 24.1231 58.7613C24.2192 58.8171 24.3134 58.8229 24.3788 58.7709C24.4904 58.6748 24.4692 58.4248 24.3288 58.2056L22.6557 55.6575L24.3384 55.0479C24.4788 54.9921 24.5019 54.7671 24.3923 54.5421C24.335 54.4238 24.2457 54.3238 24.1346 54.2536V54.2556ZM24.7961 53.1536C24.7538 53.1277 24.7054 53.1131 24.6558 53.1113C24.4923 53.1113 24.425 53.294 24.4981 53.5229L27.3096 61.8652C27.3614 62.0245 27.4658 62.1615 27.6058 62.2536C27.6475 62.2794 27.6952 62.294 27.7442 62.2959C27.9154 62.2998 27.9827 62.119 27.9019 61.8844L25.0904 53.5421C25.0404 53.3829 24.9363 53.2442 24.7961 53.1536Z" fill="#F45170"/>
</svg>
