<svg width="1440" height="1483" viewBox="0 0 1440 1483" fill="none" xmlns="http://www.w3.org/2000/svg">
<mask id="mask0_14315_25532" style="mask-type:alpha" maskUnits="userSpaceOnUse" x="-325" y="-1614" width="3000" height="3097">
<path fill-rule="evenodd" clip-rule="evenodd" d="M-325 1482.12C-325 1482.12 389.386 883.422 976.426 1016.15C1563.46 1148.88 1890.8 798.488 2280.33 798.488C2669.85 798.488 2491.53 199.203 2491.53 199.203L2674.49 -1614C2674.49 -1614 2595.39 -1143.98 2104.86 -1410.91C1614.33 -1677.84 1126.48 -1199.36 701.955 -1199.36C277.427 -1199.36 -165.65 -1348.49 -165.65 -1348.49L-325 1482.12Z" fill="#141414"/>
</mask>
<g mask="url(#mask0_14315_25532)">
<g opacity="0.5">
<path d="M-427.322 684.301L-414.11 709.283L-286.162 877.613L-129.158 1028.71L54.0718 1160.08L242.914 1260.12" stroke="url(#paint0_linear_14315_25532)" stroke-opacity="0.12" stroke-width="1.08501" stroke-linecap="round" stroke-linejoin="round"/>
<path d="M-427.322 333.485L-379.54 474.348L-288.944 641.634L-169.936 795.061L-24.803 932.447L143.824 1051.65L332.965 1150.59L539.141 1227.23L676.626 1260.12" stroke="url(#paint1_linear_14315_25532)" stroke-opacity="0.12" stroke-width="1.08501" stroke-linecap="round" stroke-linejoin="round"/>
<path d="M1215.74 -522.957L1203.97 -397.343L1192.1 -260.058L1181.37 -125.454L1171.78 5.4735L1163.34 131.931L1156.04 253.224L1149.83 368.755L1144.61 478.027L1140.44 580.693L1137.21 676.356L1135.72 732.781" stroke="url(#paint2_linear_14315_25532)" stroke-opacity="0.12" stroke-width="1.08501" stroke-linecap="round" stroke-linejoin="round"/>
<path d="M2744.56 1004.27L2646.96 930.51L2526.66 843.639L2408.94 764.118L2294.4 693.588L2183.74 633.737L2077.55 586.055L1976.57 551.981L1881.5 532.908L1779.33 525.706L1687.15 529.68L1604.65 543.538L1531.38 566.237L1466.81 596.534L1425.84 633.687L1375.77 664.433L1372 667.263L1370.61 668.455L1365.09 672.23" stroke="url(#paint3_linear_14315_25532)" stroke-opacity="0.12" stroke-width="1.08501" stroke-linecap="round" stroke-linejoin="round"/>
<path d="M1.91906 -522.957L-75.1677 -414.728L-138.198 -292.84L-181.758 -163.749L-204.208 -28.7979L-203.761 110.574L-178.529 252.727L-126.476 395.874L-48.3462 533.408L52.582 658.972L174.42 770.976L314.885 867.732L471.442 947.798L641.41 1009.64L821.71 1051.95L1009.11 1073.56L1200.29 1073.46L1391.76 1050.91L1579.96 1005.46L1761.15 936.97L1924.52 849.751L2065.58 747.78L2183.74 633.739L2278.51 510.312L2349.78 380.03L2397.57 245.326L2422 108.338L2423.29 -28.8973L2401.74 -164.495L2357.58 -296.863L2291.12 -424.512L2219.35 -522.957" stroke="url(#paint4_linear_14315_25532)" stroke-opacity="0.12" stroke-width="1.08501" stroke-linecap="round" stroke-linejoin="round"/>
<path d="M1113.71 -522.957L1113.86 -401.864L1114.06 -263.982L1114.36 -128.932L1114.66 2.49407L1115.06 129.398L1115.45 251.088L1115.9 366.966L1116.4 476.537L1116.89 579.402L1117.39 675.264L1117.74 732.781" stroke="url(#paint5_linear_14315_25532)" stroke-opacity="0.12" stroke-width="1.08501" stroke-linecap="round" stroke-linejoin="round"/>
<path d="M1655.06 -522.957L1598.19 -417.509L1535.95 -292.443L1479.03 -168.12L1427.47 -45.6363L1381.28 74.2659L1340.35 190.74L1304.54 303.142L1273.8 410.874L1247.82 513.441L1226.46 610.445L1209.48 701.589L1205.8 726.075" stroke="url(#paint6_linear_14315_25532)" stroke-opacity="0.12" stroke-width="1.08501" stroke-linecap="round" stroke-linejoin="round"/>
<path d="M1387.64 380.526L1342.89 476.04L1305.19 568.127L1274.14 656.39L1285.17 675.612L1292.87 695.578L1294.86 704.916" stroke="url(#paint7_linear_14315_25532)" stroke-opacity="0.12" stroke-width="1.08501" stroke-linecap="round" stroke-linejoin="round"/>
<path d="M1260.49 638.953L1239.53 719.914" stroke="url(#paint8_linear_14315_25532)" stroke-opacity="0.12" stroke-width="1.08501" stroke-linecap="round" stroke-linejoin="round"/>
<path d="M992.227 722.4L969.876 642.183L939.975 551.24L903.865 455.875L861.248 356.585L811.927 253.82L755.602 148.223L692.075 40.3911L621.246 -68.8813L543.067 -178.799L457.537 -288.419L364.854 -396.798L280.565 -484.067L237.154 -522.957" stroke="url(#paint9_linear_14315_25532)" stroke-opacity="0.12" stroke-width="1.08501" stroke-linecap="round" stroke-linejoin="round"/>
<path d="M763.694 1260.12L790.714 1159.14L821.708 1051.95L851.31 959.968L879.423 884.669L905.847 827.549L934.208 780.065L959.739 748.178L1058.58 759.254L1159.26 759.204L1260.24 747.632L1359.87 724.237L1456.48 688.823L1544.49 643.425L1621.53 589.982L1687.14 529.683L1741.09 463.821L1782.96 393.54L1812.66 320.128L1829.99 244.631L1834.76 168.14L1826.86 91.65L1806.2 16.2027L1772.67 -57.308L1726.63 -127.491L1670.8 -190.422L1606.88 -245.456L1535.95 -292.443L1459.16 -331.235L1377.56 -361.781L1292.17 -383.883L1203.96 -397.343L1113.86 -401.864L1022.82 -397.146L931.675 -382.94L841.426 -358.75L754.455 -324.877L675.382 -283.104L604.802 -234.181L543.063 -178.799L490.761 -117.707L448.443 -51.6462L416.804 18.537L396.39 92.0962L387.995 168.19L392.416 245.873L410.347 324.202L442.582 402.132L488.327 476.189L545.496 543.093L612.997 602.2L689.487 652.813L773.727 694.435L864.274 726.373L959.739 748.178L982.586 730.248L1063.3 739.287L1066.92 739.684L1074.37 732.829H1081.18H1099.56L1117.74 732.781H1135.72H1147.24L1153.5 732.085L1171.13 730.049L1188.61 728.061L1205.8 726.075L1220.3 724.436L1222.09 723.989L1222.59 723.89L1233.47 721.357L1239.52 719.916L1256.71 715.893L1273.3 712.018L1279.56 710.528L1292.52 707.499L1295.06 705.71L1303.3 702.681L1312.54 700.198L1317.41 697.565L1324.01 694.287L1329.13 692.151L1330.22 691.754L1331.02 690.71L1331.61 690.413L1343.18 684.501L1350.78 680.578L1352.47 679.684L1353.02 679.435L1359.48 676.107L1362.11 674.766L1363.35 673.823L1364.69 671.787L1365.19 671.24L1385.9 647.399L1404.97 616.504L1418.93 583.971L1427.62 550.295L1430.9 515.924L1428.67 481.305L1420.77 446.884L1407.06 413.059L1387.64 380.526L1439.74 282.131L1499.44 181.452L1567.09 79.0835L1642.79 -24.179L1726.63 -127.491L1818.62 -230.058L1918.75 -330.837L2009.99 -411.201L2105.16 -482.427L2168.59 -522.957" stroke="url(#paint10_linear_14315_25532)" stroke-opacity="0.12" stroke-width="1.08501" stroke-linecap="round" stroke-linejoin="round"/>
<path d="M528.911 -522.957L446.857 -467.875L364.853 -396.798L294.77 -318.121L237.501 -232.79L193.891 -141.696L164.934 -45.834L151.722 53.7021L155.348 155.822L177.004 259.234L217.832 362.646L277.087 461.338L352.088 550.892L441.294 630.263L543.165 698.508L655.816 754.685L777.406 797.996L905.85 827.549L1039.06 842.599L1174.86 842.5L1310.95 826.804L1445.11 795.065L1574.75 747.135L1692.41 685.843L1794.83 613.822L1881.5 532.911L1952.08 444.798L2006.27 351.271L2043.87 253.869L2064.78 154.183L2068.95 53.6026L2056.44 -46.4307L2027.13 -144.726L1981.04 -240.141L1918.75 -330.837L1844.05 -411.798L1759.17 -482.328L1695.84 -522.957" stroke="url(#paint11_linear_14315_25532)" stroke-opacity="0.12" stroke-width="1.08501" stroke-linecap="round" stroke-linejoin="round"/>
<path d="M-138.448 -522.957L-185.385 -458.238L-255.717 -325.422L-304.989 -184.412L-331.363 -36.6957L-332.655 116.186L-306.728 272.595L-251.197 430.444L-166.759 582.482L-56.8414 721.605L76.5204 845.976L230.942 953.66L403.543 1042.87L591.243 1111.86L790.715 1159.14L998.183 1183.28L1209.92 1183.13L1421.91 1157.95L1630.12 1107.19L1830.19 1030.8L2010.19 933.643L2165.16 820.198L2294.4 693.591L2397.56 556.901L2474.5 412.91L2525.41 264.4L2550.55 113.703L2550.2 -36.8449L2524.87 -185.306L2474.9 -329.844L2400.69 -468.868L2360.56 -522.957" stroke="url(#paint12_linear_14315_25532)" stroke-opacity="0.12" stroke-width="1.08501" stroke-linecap="round" stroke-linejoin="round"/>
<path d="M1535.66 -522.957L1509.83 -461.517L1459.16 -331.235L1412.77 -202.144L1370.75 -75.1397L1333.05 48.8843L1299.68 169.035L1270.47 284.714L1245.34 395.327L1224.18 500.378L1206.8 599.468L1192.94 692.3L1188.62 728.061" stroke="url(#paint13_linear_14315_25532)" stroke-opacity="0.12" stroke-width="1.08501" stroke-linecap="round" stroke-linejoin="round"/>
<path d="M1273.3 712.019L1285.17 675.612L1318.45 591.025L1305.19 568.127L1288.7 547.415L1269.43 529.137L1247.82 513.441L1224.18 500.379L1198.9 490.097L1172.22 482.597L1144.61 478.027L1116.4 476.537L1087.84 478.127L1059.33 482.945L1031.21 491.189L1004.24 502.564L979.954 516.571L958.498 532.862L939.971 551.24L924.573 571.306L957.107 659.072L975.683 718.625" stroke="url(#paint14_linear_14315_25532)" stroke-opacity="0.12" stroke-width="1.08501" stroke-linecap="round" stroke-linejoin="round"/>
<path d="M1950.04 -522.957L1926.2 -500.606L1844.05 -411.798L1753.85 -301.68L1670.8 -190.422L1595.01 -79.014L1526.51 31.5995L1465.22 140.673L1410.98 247.412L1363.65 351.172L1322.97 451.305L1288.7 547.415L1260.49 638.955L1274.15 656.389L1256.71 715.893" stroke="url(#paint15_linear_14315_25532)" stroke-opacity="0.12" stroke-width="1.08501" stroke-linecap="round" stroke-linejoin="round"/>
<path d="M1099.56 732.829L1097.37 676.406L1093.05 580.743L1087.84 478.127L1081.63 368.854L1074.42 253.324L1066.23 132.031L1056.94 5.57288L1046.61 -125.305L1035.24 -259.909L1022.82 -397.146L1010.65 -522.957" stroke="url(#paint16_linear_14315_25532)" stroke-opacity="0.12" stroke-width="1.08501" stroke-linecap="round" stroke-linejoin="round"/>
<path d="M156.739 -522.957L105.232 -467.029L32.6649 -363.221L-23.4119 -251.961L-61.7067 -134.395L-80.6807 -11.7616L-78.8429 114.547L-54.5546 243.092L-6.12709 372.182L65.6453 495.957L157.682 608.706L268.196 709.039L395.201 795.612L536.41 867.086L689.342 922.269L851.313 959.968L1019.59 979.189L1191.2 979.14L1363.1 959.023L1532.23 918.494L1695.29 857.45L1842.66 779.519L1970.26 688.276L2077.55 586.058L2164.02 475.196L2229.58 357.926L2274.09 236.386L2297.53 112.511L2300.11 -11.8611L2281.99 -135.091L2243.19 -255.637L2183.99 -372.162L2105.16 -482.427L2066.52 -522.957" stroke="url(#paint17_linear_14315_25532)" stroke-opacity="0.12" stroke-width="1.08501" stroke-linecap="round" stroke-linejoin="round"/>
<path d="M1081.18 732.829L1077.41 679.833L1069.31 584.816L1059.33 482.944L1047.41 374.616L1033.5 260.177L1017.46 140.078L999.277 14.961L978.913 -114.428L956.363 -247.392L931.677 -382.94L904.906 -520.027L904.26 -522.957" stroke="url(#paint18_linear_14315_25532)" stroke-opacity="0.12" stroke-width="1.08501" stroke-linecap="round" stroke-linejoin="round"/>
<path d="M2744.55 733.126L2646.46 678.39L2520.45 613.424L2397.56 556.9L2278.51 510.311L2164.02 475.194L2054.95 452.942L1952.08 444.796L1841.22 449.317L1741.09 463.82L1651.23 487.064L1571.32 518.058L1500.74 555.757L1466.81 596.536L1423.05 625.195L1410.44 633.489L1375.57 664.136" stroke="url(#paint19_linear_14315_25532)" stroke-opacity="0.12" stroke-width="1.08501" stroke-linecap="round" stroke-linejoin="round"/>
<path d="M2293.26 1260.12L2285.46 1250.28L2191.09 1135.6L2099.25 1029.5L2010.2 933.642L1924.52 849.75L1842.66 779.518L1765.08 724.434L1692.41 685.841L1614.48 657.978L1544.5 643.424L1482.06 640.892L1426.73 648.987L1378.15 666.52" stroke="url(#paint20_linear_14315_25532)" stroke-opacity="0.12" stroke-width="1.08501" stroke-linecap="round" stroke-linejoin="round"/>
<path d="M855.185 672.28L806.609 655.79L751.525 648.886L689.488 652.81L620.15 668.903L543.163 698.505L471.441 738.738L395.199 795.609L314.883 867.729L230.942 953.657L143.823 1051.65L54.07 1160.08L-24.7053 1260.12" stroke="url(#paint21_linear_14315_25532)" stroke-opacity="0.12" stroke-width="1.08501" stroke-linecap="round" stroke-linejoin="round"/>
<path d="M1062.5 731.489L1057.69 685.693L1045.81 591.719L1031.21 491.189L1013.63 384.35L993.016 271.701L969.225 153.687L942.205 30.9046L911.906 -96.0005L878.33 -226.183L841.426 -358.75L801.293 -492.709L791.558 -522.957" stroke="url(#paint22_linear_14315_25532)" stroke-opacity="0.12" stroke-width="1.08501" stroke-linecap="round" stroke-linejoin="round"/>
<path d="M1288.75 707.199L1292.87 695.576L1327.79 614.815L1370.26 531.767L1358.98 503.356L1342.89 476.038L1322.97 451.303L1299.82 429.549L1273.8 410.873L1245.34 395.326L1214.94 383.107L1182.95 374.216L1149.82 368.753L1115.9 366.965L1081.63 368.853L1047.41 374.614L1013.63 384.349L981.246 397.909L952.041 414.598L926.163 434.018L903.862 455.873L885.236 479.813L870.534 505.543L912.405 592.86L947.024 677.149L960.038 715.047" stroke="url(#paint23_linear_14315_25532)" stroke-opacity="0.12" stroke-width="1.08501" stroke-linecap="round" stroke-linejoin="round"/>
<path d="M1043.73 729.402L1038.81 693.84L1023.37 601.305L1004.24 502.563L981.245 397.91L954.226 287.794L922.984 172.661L887.47 53.0569L847.536 -70.2722L803.232 -196.531L754.456 -324.877L701.41 -454.364L671.061 -522.957" stroke="url(#paint24_linear_14315_25532)" stroke-opacity="0.5" stroke-width="1.08501" stroke-linecap="round" stroke-linejoin="round"/>
<path d="M326.161 -522.957L280.564 -484.067L201.888 -397.194L137.219 -302.823L87.5993 -201.846L54.2217 -95.4051L38.2781 15.4073L41.1587 129.25L64.255 244.879L108.908 360.708L174.371 471.52L257.716 572.25L357.353 661.704L471.443 738.741L597.951 802.268L734.74 851.241L879.426 884.669L1029.63 901.755L1182.71 901.656L1336.09 883.874L1487.18 847.914L1633.06 793.674L1765.08 724.436L1879.81 643.177L1976.57 551.984L2054.95 452.944L2114.75 347.943L2155.83 238.869L2178.13 127.412L2181.7 15.3079L2166.51 -96.0502L2132.73 -205.223L2080.33 -310.919L2010 -411.201L1926.2 -500.606L1898.89 -522.957" stroke="url(#paint25_linear_14315_25532)" stroke-opacity="0.12" stroke-width="1.08501" stroke-linecap="round" stroke-linejoin="round"/>
<path d="M933.713 709.086L901.08 711.669L864.275 726.371L823.149 754.632L777.404 797.993L734.738 851.239L689.341 922.266L641.409 1009.63L591.244 1111.85L539.14 1227.23L525.134 1260.12" stroke="url(#paint26_linear_14315_25532)" stroke-opacity="0.12" stroke-width="1.08501" stroke-linecap="round" stroke-linejoin="round"/>
<path d="M1698.77 1260.12L1682.38 1222.02L1630.13 1107.19L1579.96 1005.46L1532.23 918.494L1487.18 847.914L1445.11 795.065L1400.16 752.152L1359.88 724.237L1324.11 709.833L1292.52 707.499" stroke="url(#paint27_linear_14315_25532)" stroke-opacity="0.12" stroke-width="1.08501" stroke-linecap="round" stroke-linejoin="round"/>
<path d="M1424.4 -522.957L1416.1 -496.136L1377.56 -361.781L1342.29 -228.866L1310.31 -98.3845L1281.65 28.8177L1256.22 151.898L1234.02 270.211L1214.94 383.109L1198.9 490.096L1185.69 590.826L1175.21 684.949L1171.13 730.049" stroke="url(#paint28_linear_14315_25532)" stroke-opacity="0.12" stroke-width="1.08501" stroke-linecap="round" stroke-linejoin="round"/>
<path d="M1025.8 727.367L1021.82 703.774L1003.15 613.078L979.953 516.571L952.039 414.6L919.158 307.562L881.161 195.956L837.85 80.3751L789.174 -38.5328L734.985 -159.975L675.382 -283.104L610.414 -406.98L544.453 -522.957" stroke="url(#paint29_linear_14315_25532)" stroke-opacity="0.12" stroke-width="1.08501" stroke-linecap="round" stroke-linejoin="round"/>
<path d="M1260.49 638.955L1244.49 623.656L1226.46 610.445L1206.8 599.468L1185.69 590.826L1163.48 584.517L1140.44 580.693L1116.89 579.401L1093.05 580.743L1069.31 584.816L1045.82 591.719L1023.37 601.305L1003.15 613.077L985.27 626.786L969.874 642.183L957.108 659.071L947.025 677.15L939.774 696.174L937.141 708.342" stroke="url(#paint30_linear_14315_25532)" stroke-opacity="0.12" stroke-width="1.08501" stroke-linecap="round" stroke-linejoin="round"/>
<path d="M1066.93 739.683L1058.58 759.252L1049.3 793.027L1039.06 842.597L1029.63 901.753L1019.59 979.188L1009.11 1073.56L998.186 1183.28L991.132 1260.12" stroke="url(#paint31_linear_14315_25532)" stroke-opacity="0.12" stroke-width="1.08501" stroke-linecap="round" stroke-linejoin="round"/>
<path d="M1002.86 724.832L982.59 730.246L963.766 725.974L901.083 711.67L898.649 710.825L823.648 684.4L773.732 694.434L717.904 717.381L655.817 754.683L597.952 802.267L536.412 867.084L471.444 947.796L403.546 1042.86L332.966 1150.6L265.714 1260.12" stroke="url(#paint32_linear_14315_25532)" stroke-opacity="0.12" stroke-width="1.08501" stroke-linecap="round" stroke-linejoin="round"/>
<path d="M1448.58 1260.11L1421.91 1157.94L1391.76 1050.91L1363.1 959.019L1336.08 883.87L1310.95 826.8L1284.18 779.466L1260.24 747.628L1238.98 729.796L1220.3 724.432" stroke="url(#paint33_linear_14315_25532)" stroke-opacity="0.12" stroke-width="1.08501" stroke-linecap="round" stroke-linejoin="round"/>
<path d="M1224.58 712.713L1209.48 701.588L1192.94 692.299L1175.21 684.948L1156.58 679.583L1137.21 676.355L1117.39 675.263L1097.38 676.405L1077.41 679.832L1057.69 685.693L1038.81 693.839L1021.83 703.773L1006.83 715.396" stroke="url(#paint34_linear_14315_25532)" stroke-opacity="0.12" stroke-width="1.08501" stroke-linecap="round" stroke-linejoin="round"/>
<path d="M861.346 673.325L857.869 671.09L857.173 670.196L822.504 640.494L792.157 605.626L767.472 566.834L758.282 560.03L700.765 517.414L624.673 472.861L538.794 434.118L442.584 402.132L335.746 377.942L217.831 362.645L108.907 360.707L-6.12725 372.181L-126.476 395.873L-251.195 430.443L-379.54 474.351L-427.322 493.224" stroke="url(#paint35_linear_14315_25532)" stroke-opacity="0.12" stroke-width="1.08501" stroke-linecap="round" stroke-linejoin="round"/>
<path d="M1387.64 380.524L1363.65 351.17L1335.79 325.293L1304.55 303.14L1270.47 284.712L1234.02 270.209L1195.72 259.68L1156.03 253.223L1115.45 251.086L1074.43 253.322L1033.5 260.176L993.02 271.699L954.228 287.792L919.161 307.56L888.118 330.606L861.247 356.583L838.847 385.045L821.065 415.641L808.151 447.926L859.906 532.612L903.665 615.559L939.775 696.172L945.387 711.222" stroke="url(#paint36_linear_14315_25532)" stroke-opacity="0.12" stroke-width="1.08501" stroke-linecap="round" stroke-linejoin="round"/>
<path d="M1789.66 -522.957L1759.17 -482.328L1679.95 -364.214L1606.88 -245.456L1540.13 -127.094L1479.68 -10.0228L1425.54 104.911L1377.66 216.916L1335.79 325.294L1299.83 429.55L1269.43 529.137L1244.49 623.656L1224.58 712.714L1233.47 721.357" stroke="url(#paint37_linear_14315_25532)" stroke-opacity="0.12" stroke-width="1.08501" stroke-linecap="round" stroke-linejoin="round"/>
<path d="M923.583 -522.957L904.907 -520.027L801.296 -492.709L701.412 -454.364L610.418 -406.98L528.961 -351.399L457.536 -288.419L396.84 -218.882L347.469 -143.534L310.168 -63.268L285.83 20.9708L275.25 108.288L279.422 197.643L299.24 287.893L335.747 377.943L387.999 463.672L453.712 541.306L531.593 609.948L620.153 668.906L717.903 717.383L823.152 754.635L934.211 780.065L1049.3 793.029L1166.61 792.979L1284.18 779.469L1400.16 752.151L1512.41 710.826L1614.48 657.979L1703.59 595.793L1779.33 525.709L1841.22 449.318L1889.05 368.059L1922.63 283.225L1941.8 196.204L1946.42 108.239L1936.44 20.4736L1911.8 -65.9504L1872.36 -149.992L1818.62 -230.058L1753.85 -301.68L1679.95 -364.214L1598.19 -417.509L1509.83 -461.517L1416.1 -496.136L1318.1 -521.12L1306.14 -522.957" stroke="url(#paint38_linear_14315_25532)" stroke-opacity="0.12" stroke-width="1.08501" stroke-linecap="round" stroke-linejoin="round"/>
<path d="M998.481 723.84L1006.83 715.397L985.268 626.786L958.497 532.862L926.163 434.02L888.115 330.608L844.059 223.174L793.793 112.262L737.221 -1.47981L674.24 -117.209L604.803 -234.181L528.958 -351.399L446.854 -467.875L403.493 -522.957" stroke="url(#paint39_linear_14315_25532)" stroke-opacity="0.12" stroke-width="1.08501" stroke-linecap="round" stroke-linejoin="round"/>
<path d="M1224.57 712.713L1222.59 723.888" stroke="url(#paint40_linear_14315_25532)" stroke-opacity="0.12" stroke-width="1.08501" stroke-linecap="round" stroke-linejoin="round"/>
<path d="M1008.81 725.478L1006.83 715.396" stroke="url(#paint41_linear_14315_25532)" stroke-opacity="0.12" stroke-width="1.08501" stroke-linecap="round" stroke-linejoin="round"/>
<path d="M903.965 696.274L899.345 687.681L896.96 663.244L898.451 639.104L903.666 615.561L912.408 592.862L924.577 571.306L885.239 479.815L838.848 385.047L785.056 287.496L723.516 187.759L654.078 86.4345L576.494 -15.636L490.765 -117.707L396.841 -218.882L294.771 -318.121L201.889 -397.194L105.233 -467.029L14.4377 -522.957" stroke="url(#paint42_linear_14315_25532)" stroke-opacity="0.12" stroke-width="1.08501" stroke-linecap="round" stroke-linejoin="round"/>
<path d="M880.171 684.552L874.806 676.953L862.091 648.145L856.578 641.539L848.829 632.25L810.137 585.81L803.68 579.403L749.541 525.76L741.941 519.601L679.705 468.74L667.388 419.568L663.464 370.494L667.487 322.215L587.023 243.589L496.725 166.601L396.393 92.0974L285.829 20.9719L164.934 -45.833L54.221 -95.404L-61.7068 -134.394L-181.758 -163.748L-304.987 -184.411L-427.322 -197.274" stroke="url(#paint43_linear_14315_25532)" stroke-opacity="0.12" stroke-width="1.08501" stroke-linecap="round" stroke-linejoin="round"/>
<path d="M1216.23 1260.12L1209.92 1183.13L1200.29 1073.46L1191.2 979.141L1182.7 901.658L1174.86 842.501L1166.61 792.981L1159.26 759.205L1152.85 739.636L1147.24 732.782" stroke="url(#paint44_linear_14315_25532)" stroke-opacity="0.12" stroke-width="1.08501" stroke-linecap="round" stroke-linejoin="round"/>
<path d="M879.425 684.202L874.806 676.949L867.406 668.505L825.286 620.277L817.141 612.727L767.472 566.833L749.541 525.756L738.912 484.183L735.335 442.659L663.463 370.49L581.857 300.159L490.118 232.459L387.998 168.187L275.249 108.286L151.722 53.6994L38.2774 15.4046L-80.6808 -11.7644L-204.208 -28.8006L-331.361 -36.6984L-427.322 -36.7979" stroke="url(#paint45_linear_14315_25532)" stroke-opacity="0.12" stroke-width="1.08501" stroke-linecap="round" stroke-linejoin="round"/>
<path d="M901.28 694.932L899.342 687.681L895.766 682.217L854.442 618.938L851.66 589.684L853.547 560.825L859.905 532.614L870.535 505.544L821.063 415.642L763.647 323.705L697.885 230.276L623.578 136.054L540.482 41.8317L448.445 -51.6462L347.468 -143.534L237.5 -232.79L137.218 -302.823L32.6644 -363.221L-75.1679 -414.728L-185.384 -458.238L-297.139 -494.696L-401.445 -522.957" stroke="url(#paint46_linear_14315_25532)" stroke-opacity="0.12" stroke-width="1.08501" stroke-linecap="round" stroke-linejoin="round"/>
<path d="M2744.56 -33.7678L2679.94 -36.9473L2550.2 -36.8478L2423.3 -28.9003L2300.12 -11.8641L2181.7 15.3049L2068.95 53.5997L1946.42 108.236L1834.76 168.137L1733.79 232.36L1643.24 300.109L1562.88 370.44L1492.25 442.609L1488.52 483.487L1478.29 523.571L1461.8 562.313L1439.1 599.167L1410.44 633.488L1377.06 665.675L1365.19 672.678L1363.11 673.621L1357.99 674.962L1352.48 679.681" stroke="url(#paint47_linear_14315_25532)" stroke-opacity="0.12" stroke-width="1.08501" stroke-linecap="round" stroke-linejoin="round"/>
<path d="M2744.56 136.945L2682.22 127.36L2550.55 113.701L2422.01 108.336L2297.53 112.509L2178.13 127.409L2064.78 154.181L1941.8 196.202L1830 244.629L1729.07 298.47L1638.82 356.782L1566.15 413.008L1558.75 418.769L1494.73 477.776L1488.52 483.488L1432.79 544.631L1427.63 550.293L1386.5 604.184L1375.57 618.44L1368.22 646.602L1356.5 673.771L1353.02 679.433" stroke="url(#paint48_linear_14315_25532)" stroke-opacity="0.12" stroke-width="1.08501" stroke-linecap="round" stroke-linejoin="round"/>
<path d="M1979.85 1260.12L1976.42 1254.46L1902.06 1137.19L1830.19 1030.8L1761.15 936.971L1695.29 857.451L1633.06 793.675L1574.74 747.136L1512.41 710.827L1456.48 688.824L1406.71 679.635L1362.66 681.871L1339.66 689.767L1329.68 693.194L1324.01 694.288" stroke="url(#paint49_linear_14315_25532)" stroke-opacity="0.12" stroke-width="1.08501" stroke-linecap="round" stroke-linejoin="round"/>
<path d="M2571.8 -522.957L2511.95 -506.219L2400.69 -468.868L2291.12 -424.512L2183.99 -372.162L2080.32 -310.919L1981.04 -240.141L1872.36 -149.992L1772.67 -57.308L1682.03 36.9144L1600.32 131.881L1527.41 226.7L1463.09 320.624L1407.06 413.059L1358.98 503.358L1318.45 591.025L1327.79 614.816L1333.05 638.955L1334.39 663.244L1331.91 687.283L1329.82 691.307" stroke="url(#paint50_linear_14315_25532)" stroke-opacity="0.12" stroke-width="1.08501" stroke-linecap="round" stroke-linejoin="round"/>
<path d="M2744.55 -378.768L2714.8 -375.192L2594.25 -355.572L2474.9 -329.844L2357.58 -296.863L2243.19 -255.637L2132.73 -205.224L2027.13 -144.727L1911.8 -65.9508L1806.2 16.2023L1710.39 100.788L1624.17 186.915L1547.33 273.786L1479.63 360.658L1420.77 446.884L1370.26 531.768L1376.71 560.626L1378.45 589.683L1375.57 618.442L1340.6 673.574L1331.91 687.283L1331.02 690.71" stroke="url(#paint51_linear_14315_25532)" stroke-opacity="0.12" stroke-width="1.08501" stroke-linecap="round" stroke-linejoin="round"/>
<path d="M1318.5 -522.957L1318.11 -521.12L1292.18 -383.883L1268.44 -248.236L1246.93 -115.223L1227.66 14.3147L1210.62 139.481L1195.72 259.681L1182.96 374.218L1172.23 482.596L1163.49 584.518L1156.58 679.584L1153.5 732.085" stroke="url(#paint52_linear_14315_25532)" stroke-opacity="0.5" stroke-width="1.08501" stroke-linecap="round" stroke-linejoin="round"/>
<path d="M2744.55 315.259L2656.79 292.212L2525.41 264.398L2397.56 245.324L2274.09 236.384L2155.82 238.867L2043.87 253.867L1922.63 283.223L1812.66 320.127L1713.67 363.538L1625.21 412.511L1555.17 460.492L1546.93 466.154L1527.51 512.048L1470.04 556.006L1461.8 562.314L1412.32 609.45L1404.97 616.503L1371.89 655.593L1356.5 673.771" stroke="url(#paint53_linear_14315_25532)" stroke-opacity="0.12" stroke-width="1.08501" stroke-linecap="round" stroke-linejoin="round"/>
<path d="M1303.8 701.686L1304.3 700.642L1333.05 638.953L1376.71 560.625L1428.67 481.303L1489.31 401.534L1559.1 321.914L1547.33 273.785L1527.41 226.699L1499.45 181.451L1465.22 140.671L1425.54 104.91L1381.28 74.264L1333.05 48.8825L1281.65 28.8159L1227.66 14.3129L1171.78 5.47161L1114.66 2.49219L1056.94 5.57105L999.277 14.9592L942.207 30.9028L887.472 53.0551L837.852 80.3732L793.795 112.26L755.6 148.221L723.514 187.757L697.885 230.275L679.11 275.275L667.487 322.212L738.514 401.733L800.352 481.502L853.547 560.824L898.449 639.102L930.088 704.715L930.783 706.106" stroke="url(#paint54_linear_14315_25532)" stroke-opacity="0.12" stroke-width="1.08501" stroke-linecap="round" stroke-linejoin="round"/>
<path d="M1279.56 710.529L1287.66 707.55L1288.65 707.202H1288.75L1295.06 705.711L1303.3 702.682L1317.41 697.566L1328.19 694.436L1329.68 692.699L1330.22 691.755L1339.66 689.768L1362.66 681.871L1377.56 674.222L1426.73 648.99L1440.93 639.205L1483.1 610.148L1531.38 566.241L1571.32 518.061L1602.66 466.554L1625.21 412.514L1638.82 356.785L1643.24 300.113L1638.42 243.242L1624.17 186.916L1600.32 131.883L1567.1 79.0847L1526.51 31.6006L1479.68 -10.0216L1427.47 -45.6353L1370.75 -75.1385L1310.3 -98.3834L1246.93 -115.222L1181.36 -125.453L1114.36 -128.931L1046.61 -125.304L978.912 -114.426L911.908 -95.9993L847.537 -70.271L789.175 -38.5317L737.221 -1.47863L692.072 40.3922L654.075 86.4357L623.578 136.055L601.079 188.655L587.022 243.589L581.856 300.163L586.029 357.73L600.184 415.544L624.671 472.863L658.843 527.151L701.112 575.976L750.682 619.039L807.901 641.191L857.172 670.198L860.501 672.632L861.345 673.327L867.205 677.748L869.689 679.089L873.166 681.125L879.424 684.205L880.17 684.552L882.405 685.645L890.452 689.619L901.428 695.53L904.308 696.92L906.991 697.765L916.924 702.185L931.875 708.443L935.401 708.692L938.233 708.742L945.484 711.524L949.408 712.666" stroke="url(#paint55_linear_14315_25532)" stroke-opacity="0.12" stroke-width="1.08501" stroke-linecap="round" stroke-linejoin="round"/>
<path d="M905.551 699.155L893.681 694.385L867.952 685.942L852.902 678.541L806.61 655.793L750.683 619.038L685.864 605.627L613 602.2L531.592 609.948L441.293 630.263L357.352 661.704L268.196 709.039L174.42 770.976L76.5223 845.976L-24.8031 932.451L-129.158 1028.71L-235.947 1133.01L-344.871 1243.68L-360.667 1260.12" stroke="url(#paint56_linear_14315_25532)" stroke-opacity="0.12" stroke-width="1.08501" stroke-linecap="round" stroke-linejoin="round"/>
<path d="M867.853 677.05L866.91 676.306L866.412 676.107L846.097 652.812L835.568 643.573L792.157 605.626L781.131 598.176L729.921 563.457L700.765 517.414L679.705 468.738L600.185 415.542L510.533 367.065L410.349 324.201L299.239 287.893L177.003 259.233L64.2543 244.878L-54.5548 243.091L-178.529 252.726L-306.726 272.594L-427.322 298.82" stroke="url(#paint57_linear_14315_25532)" stroke-opacity="0.12" stroke-width="1.08501" stroke-linecap="round" stroke-linejoin="round"/>
<path d="M890.453 689.618L888.416 686.688L862.091 648.144L854.443 618.938L850.071 613.376L801.098 550.892L797.918 515.974L800.352 481.504L808.151 447.928L748.05 361.95L679.11 275.277L601.08 188.654L513.711 102.826L416.806 18.5373L310.167 -63.2678L193.891 -141.696L87.5986 -201.846L-23.4121 -251.961L-138.198 -292.84L-255.715 -325.422L-375.169 -350.754L-427.322 -359.048" stroke="url(#paint58_linear_14315_25532)" stroke-opacity="0.12" stroke-width="1.08501" stroke-linecap="round" stroke-linejoin="round"/>
<path d="M857.869 671.09L856.379 671.587L807.902 641.189L765.882 604.832L729.921 563.457L658.844 527.149L578.48 497.695L488.33 476.188L387.998 463.671L277.087 461.337L174.371 471.519L65.6451 495.956L-48.3461 533.407L-166.757 582.481L-288.944 641.636L-414.11 709.285L-427.322 716.984" stroke="url(#paint59_linear_14315_25532)" stroke-opacity="0.12" stroke-width="1.08501" stroke-linecap="round" stroke-linejoin="round"/>
<path d="M1066.93 739.682L1152.85 739.632H1153.05L1170.49 737.596L1238.98 729.798L1253.63 726.321L1269.87 722.546L1324.11 709.831L1329.83 707.745L1334.64 705.956L1406.71 679.631L1482.06 640.89L1548.17 595.194L1604.64 543.538L1651.24 487.064L1687.64 426.716L1713.67 363.537L1729.07 298.47L1733.78 232.361L1727.58 166.201L1710.39 100.786L1682.03 36.9118L1642.79 -24.1816L1595.01 -79.0167L1540.12 -127.096L1479.03 -168.123L1412.77 -202.147L1342.29 -228.868L1268.43 -248.239L1192.09 -260.061L1114.06 -263.985L1035.24 -259.912L956.362 -247.395L878.332 -226.186L803.232 -196.534L734.987 -159.978L674.242 -117.212L621.244 -68.8839L576.492 -15.6387L540.481 41.829L513.71 102.823L496.724 166.598L490.117 232.459L494.488 299.512L510.532 367.063L538.794 434.117L578.479 497.693L627.85 555.062L685.863 605.625L751.526 648.886L823.646 684.399L867.952 685.939L893.68 694.383L901.429 695.526L903.962 696.271L905.402 696.966L906.246 698.456L916.925 702.181L930.783 706.105L935.402 708.688L945.485 711.52L949.409 712.662L960.039 715.046L975.684 718.622L992.224 722.397L998.483 723.838L1002.85 724.831L1008.81 725.476L1025.8 727.364L1043.73 729.4L1062.51 731.487L1074.38 732.827" stroke="url(#paint60_linear_14315_25532)" stroke-opacity="0.12" stroke-width="1.08501" stroke-linecap="round" stroke-linejoin="round"/>
<path d="M2744.55 -203.732L2650.43 -198.567L2524.87 -185.305L2401.74 -164.494L2281.99 -135.09L2166.5 -96.0499L2056.44 -46.4304L1936.44 20.474L1826.87 91.6504L1727.58 166.204L1638.42 243.241L1559.1 321.916L1562.87 370.443L1558.75 418.771L1546.93 466.156L1485.39 517.663L1478.29 523.574L1424.99 577.812L1418.93 583.971L1380.94 630.91L1368.22 646.605L1344.28 682.814L1343.19 684.502" stroke="url(#paint61_linear_14315_25532)" stroke-opacity="0.12" stroke-width="1.08501" stroke-linecap="round" stroke-linejoin="round"/>
<path d="M1317.91 696.52L1318.06 696.221L1334.4 663.242L1378.45 589.681L1430.9 515.922L1492.25 442.61L1489.31 401.533L1479.63 360.656L1463.09 320.622L1439.74 282.128L1410.99 247.41L1377.66 216.913L1340.36 190.737L1299.68 169.033L1256.22 151.896L1210.62 139.479L1163.34 131.929L1115.06 129.396L1066.23 132.028L1017.46 140.075L969.228 153.684L922.986 172.658L881.165 195.953L844.062 223.172L811.926 253.817L785.054 287.493L763.648 323.702L748.051 361.947L738.515 401.732L735.335 442.66L797.919 515.972L851.662 589.681L896.959 663.242L916.033 700.494L916.331 701.039" stroke="url(#paint62_linear_14315_25532)" stroke-opacity="0.12" stroke-width="1.08501" stroke-linecap="round" stroke-linejoin="round"/>
<path d="M869.145 678.491L867.207 677.747L856.379 671.588L822.504 640.495L808.895 631.902L765.882 604.833L701.113 575.975L627.851 555.064L545.499 543.093L453.711 541.306L352.087 550.891L257.716 572.25L157.682 608.706L52.5821 658.972L-56.8394 721.605L-169.936 795.065L-286.162 877.616L-404.872 967.616L-427.322 985.448" stroke="url(#paint63_linear_14315_25532)" stroke-opacity="0.5" stroke-width="1.08501" stroke-linecap="round" stroke-linejoin="round"/>
<path d="M2744.56 509.515L2734.37 505.194L2603 455.177L2474.5 412.908L2349.78 380.028L2229.58 357.924L2114.75 347.94L2006.27 351.269L1889.05 368.057L1782.96 393.538L1687.64 426.716L1602.66 466.551L1527.51 512.048L1500.74 555.757L1449.08 592.115L1439.1 599.168L1395.44 638.754L1385.9 647.396L1366.33 670.741L1365.19 672.679L1363.65 673.97" stroke="url(#paint64_linear_14315_25532)" stroke-opacity="0.12" stroke-width="1.08501" stroke-linecap="round" stroke-linejoin="round"/>
<path d="M2649.19 1260.12L2594.8 1206.18L2483.74 1098.64L2374.81 997.319L2268.42 903.941L2165.16 820.199L2065.57 747.78L1970.26 688.277L1879.81 643.178L1794.83 613.823L1703.58 595.793L1621.53 589.982L1548.17 595.197L1483.1 610.147L1425.83 633.69L1377.06 665.678L1370.6 668.459" stroke="url(#paint65_linear_14315_25532)" stroke-opacity="0.12" stroke-width="1.08501" stroke-linecap="round" stroke-linejoin="round"/>
<path d="M873.167 681.121L869.69 679.085L867.704 677.247L866.91 676.303L846.097 652.81L825.286 620.276L810.137 585.806L801.098 550.889L795.833 545.227L738.912 484.183L732.604 478.47L667.387 419.563L659.838 413.801L586.03 357.725L494.488 299.512L392.419 245.87L279.421 197.64L155.347 155.819L41.1579 129.247L-78.8431 114.544L-203.761 110.571L-332.653 116.183L-427.322 126.167" stroke="url(#paint66_linear_14315_25532)" stroke-opacity="0.12" stroke-width="1.08501" stroke-linecap="round" stroke-linejoin="round"/>
<path d="M2744.5 -524H-427.323V1263H2744.5V-524Z" stroke="url(#paint67_linear_14315_25532)" stroke-opacity="0.12" stroke-width="1.08501" stroke-linecap="round" stroke-linejoin="round"/>
</g>
</g>
<defs>
<linearGradient id="paint0_linear_14315_25532" x1="-287.742" y1="972.804" x2="110.879" y2="972.804" gradientUnits="userSpaceOnUse">
<stop stop-color="#BDD0FB"/>
<stop offset="1" stop-color="#0A84FF"/>
</linearGradient>
<linearGradient id="paint1_linear_14315_25532" x1="-197.419" y1="797.759" x2="459.151" y2="797.759" gradientUnits="userSpaceOnUse">
<stop stop-color="#BDD0FB"/>
<stop offset="1" stop-color="#0A84FF"/>
</linearGradient>
<linearGradient id="paint2_linear_14315_25532" x1="1152.38" y1="106.212" x2="1199.98" y2="106.212" gradientUnits="userSpaceOnUse">
<stop stop-color="#BDD0FB"/>
<stop offset="1" stop-color="#0A84FF"/>
</linearGradient>
<linearGradient id="paint3_linear_14315_25532" x1="1652.37" y1="765.483" x2="2472.8" y2="765.483" gradientUnits="userSpaceOnUse">
<stop stop-color="#BDD0FB"/>
<stop offset="1" stop-color="#0A84FF"/>
</linearGradient>
<linearGradient id="paint4_linear_14315_25532" x1="342.983" y1="276.955" x2="1905.68" y2="276.955" gradientUnits="userSpaceOnUse">
<stop stop-color="#BDD0FB"/>
<stop offset="1" stop-color="#0A84FF"/>
</linearGradient>
<linearGradient id="paint5_linear_14315_25532" x1="1114.55" y1="106.212" x2="1116.94" y2="106.212" gradientUnits="userSpaceOnUse">
<stop stop-color="#BDD0FB"/>
<stop offset="1" stop-color="#0A84FF"/>
</linearGradient>
<linearGradient id="paint6_linear_14315_25532" x1="1299.36" y1="102.852" x2="1566.56" y2="102.852" gradientUnits="userSpaceOnUse">
<stop stop-color="#BDD0FB"/>
<stop offset="1" stop-color="#0A84FF"/>
</linearGradient>
<linearGradient id="paint7_linear_14315_25532" x1="1297.78" y1="543.057" x2="1365.28" y2="543.057" gradientUnits="userSpaceOnUse">
<stop stop-color="#BDD0FB"/>
<stop offset="1" stop-color="#0A84FF"/>
</linearGradient>
<linearGradient id="paint8_linear_14315_25532" x1="1243.89" y1="679.517" x2="1256.36" y2="679.517" gradientUnits="userSpaceOnUse">
<stop stop-color="#BDD0FB"/>
<stop offset="1" stop-color="#0A84FF"/>
</linearGradient>
<linearGradient id="paint9_linear_14315_25532" x1="394.402" y1="101.01" x2="843.479" y2="101.01" gradientUnits="userSpaceOnUse">
<stop stop-color="#BDD0FB"/>
<stop offset="1" stop-color="#0A84FF"/>
</linearGradient>
<linearGradient id="paint10_linear_14315_25532" x1="758.813" y1="370.427" x2="1817.81" y2="370.427" gradientUnits="userSpaceOnUse">
<stop stop-color="#BDD0FB"/>
<stop offset="1" stop-color="#0A84FF"/>
</linearGradient>
<linearGradient id="paint11_linear_14315_25532" x1="550.996" y1="161.235" x2="1691.26" y2="161.235" gradientUnits="userSpaceOnUse">
<stop stop-color="#BDD0FB"/>
<stop offset="1" stop-color="#0A84FF"/>
</linearGradient>
<linearGradient id="paint12_linear_14315_25532" x1="267.787" y1="331.928" x2="1982.56" y2="331.928" gradientUnits="userSpaceOnUse">
<stop stop-color="#BDD0FB"/>
<stop offset="1" stop-color="#0A84FF"/>
</linearGradient>
<linearGradient id="paint13_linear_14315_25532" x1="1260.89" y1="103.847" x2="1467.29" y2="103.847" gradientUnits="userSpaceOnUse">
<stop stop-color="#BDD0FB"/>
<stop offset="1" stop-color="#0A84FF"/>
</linearGradient>
<linearGradient id="paint14_linear_14315_25532" x1="1006.6" y1="597.832" x2="1240.86" y2="597.832" gradientUnits="userSpaceOnUse">
<stop stop-color="#BDD0FB"/>
<stop offset="1" stop-color="#0A84FF"/>
</linearGradient>
<linearGradient id="paint15_linear_14315_25532" x1="1401.1" y1="97.7503" x2="1813.46" y2="97.7503" gradientUnits="userSpaceOnUse">
<stop stop-color="#BDD0FB"/>
<stop offset="1" stop-color="#0A84FF"/>
</linearGradient>
<linearGradient id="paint16_linear_14315_25532" x1="1029.17" y1="106.236" x2="1082.04" y2="106.236" gradientUnits="userSpaceOnUse">
<stop stop-color="#BDD0FB"/>
<stop offset="1" stop-color="#0A84FF"/>
</linearGradient>
<linearGradient id="paint17_linear_14315_25532" x1="415.132" y1="229.671" x2="1831.1" y2="229.671" gradientUnits="userSpaceOnUse">
<stop stop-color="#BDD0FB"/>
<stop offset="1" stop-color="#0A84FF"/>
</linearGradient>
<linearGradient id="paint18_linear_14315_25532" x1="941.105" y1="106.236" x2="1046.33" y2="106.236" gradientUnits="userSpaceOnUse">
<stop stop-color="#BDD0FB"/>
<stop offset="1" stop-color="#0A84FF"/>
</linearGradient>
<linearGradient id="paint19_linear_14315_25532" x1="1660.67" y1="589.259" x2="2474.87" y2="589.259" gradientUnits="userSpaceOnUse">
<stop stop-color="#BDD0FB"/>
<stop offset="1" stop-color="#0A84FF"/>
</linearGradient>
<linearGradient id="paint20_linear_14315_25532" x1="1568.73" y1="951.146" x2="2112.99" y2="951.146" gradientUnits="userSpaceOnUse">
<stop stop-color="#BDD0FB"/>
<stop offset="1" stop-color="#0A84FF"/>
</linearGradient>
<linearGradient id="paint21_linear_14315_25532" x1="158.536" y1="955.133" x2="681.848" y2="955.133" gradientUnits="userSpaceOnUse">
<stop stop-color="#BDD0FB"/>
<stop offset="1" stop-color="#0A84FF"/>
</linearGradient>
<linearGradient id="paint22_linear_14315_25532" x1="847.983" y1="105.565" x2="1009.13" y2="105.565" gradientUnits="userSpaceOnUse">
<stop stop-color="#BDD0FB"/>
<stop offset="1" stop-color="#0A84FF"/>
</linearGradient>
<linearGradient id="paint23_linear_14315_25532" x1="974.604" y1="541.366" x2="1271.81" y2="541.366" gradientUnits="userSpaceOnUse">
<stop stop-color="#BDD0FB"/>
<stop offset="1" stop-color="#0A84FF"/>
</linearGradient>
<linearGradient id="paint24_linear_14315_25532" x1="748.671" y1="104.519" x2="970.315" y2="104.519" gradientUnits="userSpaceOnUse">
<stop stop-color="#BDD0FB"/>
<stop offset="1" stop-color="#354C69"/>
</linearGradient>
<linearGradient id="paint25_linear_14315_25532" x1="484.658" y1="190.874" x2="1759.45" y2="190.874" gradientUnits="userSpaceOnUse">
<stop stop-color="#BDD0FB"/>
<stop offset="1" stop-color="#0A84FF"/>
</linearGradient>
<linearGradient id="paint26_linear_14315_25532" x1="610.223" y1="985.171" x2="853.224" y2="985.171" gradientUnits="userSpaceOnUse">
<stop stop-color="#BDD0FB"/>
<stop offset="1" stop-color="#0A84FF"/>
</linearGradient>
<linearGradient id="paint27_linear_14315_25532" x1="1377.13" y1="984.381" x2="1618.74" y2="984.381" gradientUnits="userSpaceOnUse">
<stop stop-color="#BDD0FB"/>
<stop offset="1" stop-color="#0A84FF"/>
</linearGradient>
<linearGradient id="paint28_linear_14315_25532" x1="1223.88" y1="104.843" x2="1374.51" y2="104.843" gradientUnits="userSpaceOnUse">
<stop stop-color="#BDD0FB"/>
<stop offset="1" stop-color="#0A84FF"/>
</linearGradient>
<linearGradient id="paint29_linear_14315_25532" x1="644.696" y1="103.499" x2="930.974" y2="103.499" gradientUnits="userSpaceOnUse">
<stop stop-color="#BDD0FB"/>
<stop offset="1" stop-color="#0A84FF"/>
</linearGradient>
<linearGradient id="paint30_linear_14315_25532" x1="1004.48" y1="644.005" x2="1196.79" y2="644.005" gradientUnits="userSpaceOnUse">
<stop stop-color="#BDD0FB"/>
<stop offset="1" stop-color="#0A84FF"/>
</linearGradient>
<linearGradient id="paint31_linear_14315_25532" x1="1006.92" y1="1000.44" x2="1052" y2="1000.44" gradientUnits="userSpaceOnUse">
<stop stop-color="#BDD0FB"/>
<stop offset="1" stop-color="#0A84FF"/>
</linearGradient>
<linearGradient id="paint32_linear_14315_25532" x1="419.228" y1="972.855" x2="857.64" y2="972.855" gradientUnits="userSpaceOnUse">
<stop stop-color="#BDD0FB"/>
<stop offset="1" stop-color="#0A84FF"/>
</linearGradient>
<linearGradient id="paint33_linear_14315_25532" x1="1267.84" y1="992.828" x2="1403.61" y2="992.828" gradientUnits="userSpaceOnUse">
<stop stop-color="#BDD0FB"/>
<stop offset="1" stop-color="#0A84FF"/>
</linearGradient>
<linearGradient id="paint34_linear_14315_25532" x1="1052.18" y1="695.371" x2="1181.68" y2="695.371" gradientUnits="userSpaceOnUse">
<stop stop-color="#BDD0FB"/>
<stop offset="1" stop-color="#0A84FF"/>
</linearGradient>
<linearGradient id="paint35_linear_14315_25532" x1="-158.95" y1="517.34" x2="607.481" y2="517.34" gradientUnits="userSpaceOnUse">
<stop stop-color="#BDD0FB"/>
<stop offset="1" stop-color="#0A84FF"/>
</linearGradient>
<linearGradient id="paint36_linear_14315_25532" x1="928.833" y1="481.63" x2="1273.48" y2="481.63" gradientUnits="userSpaceOnUse">
<stop stop-color="#BDD0FB"/>
<stop offset="1" stop-color="#0A84FF"/>
</linearGradient>
<linearGradient id="paint37_linear_14315_25532" x1="1342.26" y1="100.488" x2="1678.34" y2="100.488" gradientUnits="userSpaceOnUse">
<stop stop-color="#BDD0FB"/>
<stop offset="1" stop-color="#0A84FF"/>
</linearGradient>
<linearGradient id="paint38_linear_14315_25532" x1="623.28" y1="136.398" x2="1617.2" y2="136.398" gradientUnits="userSpaceOnUse">
<stop stop-color="#BDD0FB"/>
<stop offset="1" stop-color="#0A84FF"/>
</linearGradient>
<linearGradient id="paint39_linear_14315_25532" x1="529.14" y1="101.732" x2="887.97" y2="101.732" gradientUnits="userSpaceOnUse">
<stop stop-color="#BDD0FB"/>
<stop offset="1" stop-color="#0A84FF"/>
</linearGradient>
<linearGradient id="paint40_linear_14315_25532" x1="1223" y1="718.312" x2="1224.18" y2="718.312" gradientUnits="userSpaceOnUse">
<stop stop-color="#BDD0FB"/>
<stop offset="1" stop-color="#0A84FF"/>
</linearGradient>
<linearGradient id="paint41_linear_14315_25532" x1="1007.24" y1="720.448" x2="1008.42" y2="720.448" gradientUnits="userSpaceOnUse">
<stop stop-color="#BDD0FB"/>
<stop offset="1" stop-color="#0A84FF"/>
</linearGradient>
<linearGradient id="paint42_linear_14315_25532" x1="203.979" y1="87.9204" x2="745.281" y2="87.9204" gradientUnits="userSpaceOnUse">
<stop stop-color="#BDD0FB"/>
<stop offset="1" stop-color="#0A84FF"/>
</linearGradient>
<linearGradient id="paint43_linear_14315_25532" x1="-155.03" y1="244.552" x2="622.597" y2="244.552" gradientUnits="userSpaceOnUse">
<stop stop-color="#BDD0FB"/>
<stop offset="1" stop-color="#0A84FF"/>
</linearGradient>
<linearGradient id="paint44_linear_14315_25532" x1="1161.61" y1="996.997" x2="1202.64" y2="996.997" gradientUnits="userSpaceOnUse">
<stop stop-color="#BDD0FB"/>
<stop offset="1" stop-color="#0A84FF"/>
</linearGradient>
<linearGradient id="paint45_linear_14315_25532" x1="-155.185" y1="324.448" x2="621.998" y2="324.448" gradientUnits="userSpaceOnUse">
<stop stop-color="#BDD0FB"/>
<stop offset="1" stop-color="#0A84FF"/>
</linearGradient>
<linearGradient id="paint46_linear_14315_25532" x1="-130.146" y1="87.2484" x2="644.646" y2="87.2484" gradientUnits="userSpaceOnUse">
<stop stop-color="#BDD0FB"/>
<stop offset="1" stop-color="#0A84FF"/>
</linearGradient>
<linearGradient id="paint47_linear_14315_25532" x1="1642.38" y1="322.109" x2="2470.32" y2="322.109" gradientUnits="userSpaceOnUse">
<stop stop-color="#BDD0FB"/>
<stop offset="1" stop-color="#0A84FF"/>
</linearGradient>
<linearGradient id="paint48_linear_14315_25532" x1="1642.82" y1="394.476" x2="2470.43" y2="394.476" gradientUnits="userSpaceOnUse">
<stop stop-color="#BDD0FB"/>
<stop offset="1" stop-color="#0A84FF"/>
</linearGradient>
<linearGradient id="paint49_linear_14315_25532" x1="1460.59" y1="970.478" x2="1850.65" y2="970.478" gradientUnits="userSpaceOnUse">
<stop stop-color="#BDD0FB"/>
<stop offset="1" stop-color="#0A84FF"/>
</linearGradient>
<linearGradient id="paint50_linear_14315_25532" x1="1579.47" y1="85.4317" x2="2324.89" y2="85.4317" gradientUnits="userSpaceOnUse">
<stop stop-color="#BDD0FB"/>
<stop offset="1" stop-color="#0A84FF"/>
</linearGradient>
<linearGradient id="paint51_linear_14315_25532" x1="1625.39" y1="157.078" x2="2466.09" y2="157.078" gradientUnits="userSpaceOnUse">
<stop stop-color="#BDD0FB"/>
<stop offset="1" stop-color="#0A84FF"/>
</linearGradient>
<linearGradient id="paint52_linear_14315_25532" x1="1187.87" y1="105.863" x2="1286" y2="105.863" gradientUnits="userSpaceOnUse">
<stop stop-color="#354C69"/>
<stop offset="1" stop-color="#BDD0FB"/>
</linearGradient>
<linearGradient id="paint53_linear_14315_25532" x1="1645.57" y1="455.53" x2="2471.11" y2="455.53" gradientUnits="userSpaceOnUse">
<stop stop-color="#BDD0FB"/>
<stop offset="1" stop-color="#0A84FF"/>
</linearGradient>
<linearGradient id="paint54_linear_14315_25532" x1="853.169" y1="355.028" x2="1383.45" y2="355.028" gradientUnits="userSpaceOnUse">
<stop stop-color="#BDD0FB"/>
<stop offset="1" stop-color="#0A84FF"/>
</linearGradient>
<linearGradient id="paint55_linear_14315_25532" x1="802.894" y1="292.739" x2="1434.15" y2="292.739" gradientUnits="userSpaceOnUse">
<stop stop-color="#BDD0FB"/>
<stop offset="1" stop-color="#0A84FF"/>
</linearGradient>
<linearGradient id="paint56_linear_14315_25532" x1="-96.9701" y1="931.84" x2="656.109" y2="931.84" gradientUnits="userSpaceOnUse">
<stop stop-color="#BDD0FB"/>
<stop offset="1" stop-color="#0A84FF"/>
</linearGradient>
<linearGradient id="paint57_linear_14315_25532" x1="-157.595" y1="460.52" x2="612.706" y2="460.52" gradientUnits="userSpaceOnUse">
<stop stop-color="#BDD0FB"/>
<stop offset="1" stop-color="#0A84FF"/>
</linearGradient>
<linearGradient id="paint58_linear_14315_25532" x1="-152.889" y1="166.37" x2="630.854" y2="166.37" gradientUnits="userSpaceOnUse">
<stop stop-color="#BDD0FB"/>
<stop offset="1" stop-color="#0A84FF"/>
</linearGradient>
<linearGradient id="paint59_linear_14315_25532" x1="-159.674" y1="589.425" x2="604.689" y2="589.425" gradientUnits="userSpaceOnUse">
<stop stop-color="#BDD0FB"/>
<stop offset="1" stop-color="#0A84FF"/>
</linearGradient>
<linearGradient id="paint60_linear_14315_25532" x1="749.118" y1="238.887" x2="1488.78" y2="238.887" gradientUnits="userSpaceOnUse">
<stop stop-color="#BDD0FB"/>
<stop offset="1" stop-color="#0A84FF"/>
</linearGradient>
<linearGradient id="paint61_linear_14315_25532" x1="1635.03" y1="241.304" x2="2468.49" y2="241.304" gradientUnits="userSpaceOnUse">
<stop stop-color="#BDD0FB"/>
<stop offset="1" stop-color="#0A84FF"/>
</linearGradient>
<linearGradient id="paint62_linear_14315_25532" x1="892.966" y1="415.809" x2="1343.14" y2="415.809" gradientUnits="userSpaceOnUse">
<stop stop-color="#BDD0FB"/>
<stop offset="1" stop-color="#0A84FF"/>
</linearGradient>
<linearGradient id="paint63_linear_14315_25532" x1="-157.326" y1="763.836" x2="613.743" y2="763.836" gradientUnits="userSpaceOnUse">
<stop stop-color="#BDD0FB"/>
<stop offset="1" stop-color="#354C69"/>
</linearGradient>
<linearGradient id="paint64_linear_14315_25532" x1="1651.23" y1="511.293" x2="2472.52" y2="511.293" gradientUnits="userSpaceOnUse">
<stop stop-color="#BDD0FB"/>
<stop offset="1" stop-color="#0A84FF"/>
</linearGradient>
<linearGradient id="paint65_linear_14315_25532" x1="1636.87" y1="925.745" x2="2397.31" y2="925.745" gradientUnits="userSpaceOnUse">
<stop stop-color="#BDD0FB"/>
<stop offset="1" stop-color="#0A84FF"/>
</linearGradient>
<linearGradient id="paint66_linear_14315_25532" x1="-156.489" y1="396.437" x2="616.973" y2="396.437" gradientUnits="userSpaceOnUse">
<stop stop-color="#BDD0FB"/>
<stop offset="1" stop-color="#0A84FF"/>
</linearGradient>
<linearGradient id="paint67_linear_14315_25532" x1="233.227" y1="371.35" x2="2119.66" y2="371.35" gradientUnits="userSpaceOnUse">
<stop stop-color="#BDD0FB"/>
<stop offset="1" stop-color="#0A84FF"/>
</linearGradient>
</defs>
</svg>
