<svg width="100" height="107" viewBox="0 0 100 107" fill="none" xmlns="http://www.w3.org/2000/svg">
<g filter="url(#filter0_dd_14939_302)">
<path d="M37.9231 83.1154C34.2096 85.2673 28.175 85.273 24.4327 83.1154C20.6981 80.9577 20.6827 77.4615 24.3943 75.3038C28.1019 73.1461 34.1423 73.1461 37.8769 75.3038C41.6135 77.4615 41.6308 80.9577 37.9231 83.1154Z" fill="#57B3FE" fill-opacity="0.188235"/>
<path d="M22.9518 74.4635C27.4518 71.8481 34.7787 71.8481 39.3172 74.4635C41.9133 75.9635 42.9902 78.002 42.6249 79.9635C42.6633 79.7135 42.7402 79.4827 42.7402 79.2327V81.9635C42.721 83.675 41.6056 85.3673 39.3748 86.675C34.8556 89.2904 27.5287 89.2904 22.971 86.675C20.7018 85.3673 19.5672 83.6366 19.5672 81.9058V79.175C19.5672 77.4635 20.7018 75.7712 22.9518 74.4635ZM24.4325 83.1173C28.1633 85.2712 34.2018 85.2712 37.9133 83.1173C39.1633 82.3866 39.9518 81.5212 40.3556 80.5981C39.9518 79.6558 39.1441 78.7519 37.8748 78.0212C34.1248 75.8673 28.0864 75.8673 24.3941 78.0212C23.1441 78.7519 22.3556 79.6173 21.9518 80.5404C22.3556 81.4827 23.1633 82.3866 24.4325 83.1173Z" fill="#1D2943"/>
<path d="M42.7403 79.2403L42.7326 81.9653C42.7287 83.671 41.6076 85.3749 39.3672 86.6749C34.8595 89.296 27.523 89.2979 22.9787 86.6749C20.698 85.3576 19.5595 83.6287 19.5653 81.9018L19.573 79.1787C19.5672 80.9056 20.7076 82.6345 22.9864 83.9518C27.5306 86.5749 34.8672 86.5729 39.3768 83.9518C41.6153 82.6499 42.7345 80.9479 42.7403 79.2403Z" fill="#1D2943"/>
<path d="M40.6904 79.2346L40.6827 81.9596C40.6866 80.5365 39.7462 79.1096 37.8654 78.025C34.1327 75.8692 28.0943 75.8692 24.3846 78.025C22.5385 79.0961 21.6154 80.5 21.6135 81.9038L21.6212 79.1807C21.625 77.7769 22.5481 76.373 24.3923 75.3C28.102 73.1461 34.1404 73.1461 37.8731 75.3C39.7539 76.3865 40.6943 77.8134 40.6904 79.2346Z" fill="#1D2943"/>
<path d="M22.9424 74.4637C18.4327 77.0848 18.452 81.3329 22.9866 83.9521C27.5308 86.5752 34.8673 86.5733 39.377 83.9521C43.8827 81.3329 43.8616 77.0848 39.3193 74.4618C34.7827 71.8425 27.4481 71.8464 22.9424 74.4637ZM24.4327 83.1118C20.7 80.9579 20.6808 77.4579 24.3943 75.3002C28.102 73.1464 34.1404 73.1464 37.875 75.3002C41.6097 77.4579 41.6308 80.956 37.9212 83.1118C34.2097 85.2695 28.1712 85.2695 24.4327 83.1118Z" fill="#4C5C75"/>
<path d="M39.2017 85.9254C39.2017 86.3292 39.3364 86.5984 39.5671 86.7331L41.221 87.7138C41.1633 87.6754 41.1056 87.6369 41.0671 87.5792C41.2979 87.8484 41.6825 87.8677 42.1248 87.6177C42.8364 87.2138 43.394 86.2523 43.394 85.4446C43.394 85.0023 43.2402 84.7138 42.971 84.5984L41.3556 83.6561C41.1248 83.5215 40.7979 83.5407 40.4517 83.7331C39.7402 84.1369 39.2017 85.1177 39.2017 85.9254Z" fill="#DEDFFB"/>
<path d="M43.019 84.6246C42.7844 84.4939 42.4671 84.5112 42.121 84.7189C41.419 85.1208 40.8556 86.0939 40.8556 86.8996C40.8556 87.3035 40.996 87.5842 41.221 87.715L39.5613 86.7362C39.3363 86.6054 39.196 86.3246 39.196 85.9227C39.196 85.1169 39.7479 84.1439 40.4498 83.74C40.8056 83.5342 41.1248 83.515 41.3594 83.6477L43.019 84.6246Z" fill="#F3F1FC"/>
<path d="M42.1153 84.7177C42.8211 84.31 43.3846 84.6311 43.3884 85.4427C43.3884 86.2465 42.8307 87.2157 42.125 87.6234C41.425 88.0273 40.8615 87.7061 40.8596 86.9023C40.8557 86.0927 41.4173 85.1215 42.1153 84.7177Z" fill="#DEDFFB"/>
<path d="M57.0327 94.4195C56.7212 95.1368 56.125 95.6791 55.3923 95.9637C55.1769 96.0464 54.9462 96.0983 54.7154 96.1137C54.6085 96.1406 54.4987 96.1542 54.3885 96.1541C53.9692 96.1541 53.55 96.0733 53.1577 95.8964C52.9942 95.8156 52.8308 95.706 52.6827 95.6272L41.5269 87.8041C41.4662 87.762 41.4113 87.7122 41.3635 87.656C41.2154 87.4925 41.1462 87.3291 41.1327 87.0175C41.1192 86.2733 41.6346 85.3637 42.2865 84.9848C42.5846 84.8098 42.8692 84.781 43.0712 84.8637L43.1269 84.8906L55.5827 90.5291C56.3019 90.856 56.8442 91.4522 57.1154 92.1829C57.4 92.9137 57.3712 93.7137 57.0327 94.4195Z" fill="#DF3260"/>
<path d="M57.0327 94.4195C56.7212 95.1368 56.125 95.6791 55.3923 95.9637C55.1769 96.0464 54.9462 96.0983 54.7154 96.1137C54.4173 96.0868 54.1192 95.9906 53.8346 95.8695C53.6712 95.7887 53.5077 95.6925 53.3596 95.5983L42.2058 87.7772C42.1486 87.7357 42.094 87.6907 42.0423 87.6425C41.8923 87.4791 41.825 87.3156 41.8115 86.9906C41.7981 86.2599 42.3115 85.3502 42.9635 84.9579C43.0154 84.9297 43.0702 84.9071 43.1269 84.8906L55.5827 90.5291C56.3019 90.856 56.8442 91.4522 57.1154 92.1829C57.4 92.9137 57.3712 93.7137 57.0327 94.4195Z" fill="#F45170"/>
<path d="M41.6634 70.1558C41.6634 72.3097 43.1826 74.925 45.048 76.002L75.6442 93.5212C76.7018 94.1174 77.6249 94.1174 78.2403 93.6174C78.2211 93.6558 78.1826 93.6943 78.1442 93.7135L84.798 89.8481C85.4134 89.502 85.7788 88.7327 85.7788 87.6558L85.9326 27.6943C85.9326 25.5404 84.4326 22.9058 82.548 21.8289L51.9518 4.30967C51.0095 3.77121 50.1442 3.71351 49.548 4.0789L42.798 7.98274C42.8365 7.96351 42.8749 7.94428 42.9134 7.94428C42.2403 8.27121 41.8172 9.04044 41.8172 10.1751L41.6634 70.1558Z" fill="#1D2943"/>
<path d="M42.8038 7.98787C43.4268 7.63595 44.2711 7.68402 45.2115 8.22633L75.8115 25.7417C77.6922 26.8244 79.1903 29.4398 79.1903 31.5917L79.0461 91.584C79.0461 92.6513 78.6634 93.4013 78.0576 93.7667L84.7999 89.8475C85.4057 89.4956 85.7884 88.7321 85.7884 87.6629L85.9326 27.6859C85.9326 25.5321 84.4326 22.9033 82.5518 21.8359L51.9538 4.3071C51.0115 3.76479 50.1518 3.71864 49.5461 4.08402L42.8038 7.98787Z" fill="#4C5C75"/>
<path d="M75.6481 93.5248C77.5212 94.6056 79.0423 93.7383 79.0481 91.5863L79.1904 31.5979C79.1962 29.446 77.6846 26.8286 75.8135 25.7479L45.2154 8.22864C43.3423 7.14787 41.8212 8.01518 41.8154 10.1671L41.6712 70.1556C41.6654 72.3075 43.177 74.9248 45.05 76.0056L75.6481 93.5248Z" fill="#1D2943"/>
<path d="M76.9614 34.0958C76.9633 32.8785 76.1018 31.3824 75.048 30.7727L46.4306 14.3977C46.1887 14.2578 45.9142 14.184 45.6347 14.1836C45.3552 14.1832 45.0805 14.2563 44.8381 14.3956C44.5958 14.5349 44.3943 14.7355 44.254 14.9772C44.1136 15.2189 44.0392 15.4932 44.0383 15.7727L43.9037 68.7304C43.8999 69.9497 44.7595 71.4439 45.8153 72.0535L74.4326 88.4285C74.6745 88.568 74.9488 88.6414 75.228 88.6415C75.5072 88.6417 75.7816 88.5685 76.0236 88.4292C76.2657 88.29 76.4669 88.0897 76.6072 87.8482C76.7475 87.6068 76.8219 87.3327 76.823 87.0535L76.9614 34.0958Z" fill="white"/>
<path d="M85.2595 35.8477C85.2595 35.1746 84.9903 34.6939 84.5672 34.54L83.3172 33.8092C82.9711 33.6169 82.4903 33.6362 81.9518 33.9439C80.8749 34.5592 80.0095 36.0785 80.0095 37.29C80.0288 37.9054 80.2403 38.3285 80.5864 38.54L81.8749 39.2708C82.2211 39.54 82.7403 39.5208 83.3364 39.1939C84.3941 38.5592 85.2595 37.0785 85.2595 35.8477ZM80.0095 44.5015C80.0288 45.0977 80.2403 45.54 80.5864 45.7515L81.8364 46.4439C81.8749 46.4823 81.9134 46.5015 81.9518 46.5208C82.3172 46.7323 82.798 46.7131 83.3364 46.3862C84.3941 45.7708 85.2595 44.29 85.2595 43.0592C85.2595 42.3862 84.9903 41.9054 84.5672 41.7515L83.3172 41.0208C82.9711 40.8285 82.4903 40.8477 81.9518 41.1554C80.8749 41.7708 80.0095 43.2708 80.0095 44.5015Z" fill="#DEDFFA"/>
<path d="M80.0153 37.2889C80.025 37.9004 80.2384 38.3292 80.5826 38.5369L81.948 39.3216C81.6038 39.1254 81.3903 38.6946 81.3903 38.0773C81.3807 36.8658 82.2403 35.3542 83.3134 34.7369C83.7942 34.4619 84.2403 34.41 84.575 34.5466L83.3211 33.8119C82.9692 33.6158 82.4884 33.6408 81.948 33.9504C80.875 34.5677 80.0153 36.0716 80.0153 37.2908V37.2889Z" fill="white"/>
<path d="M83.3152 34.7382C82.2441 35.3574 81.3826 36.8613 81.3864 38.0805C81.3902 39.3113 82.2556 39.8055 83.3287 39.1863C84.3999 38.569 85.2614 37.0767 85.2576 35.844C85.2537 34.6267 84.3864 34.119 83.3152 34.7382Z" fill="#DEDFFA"/>
<path d="M80.0153 44.4978C80.025 45.1074 80.2384 45.5363 80.5826 45.744L81.948 46.5286C81.6038 46.3324 81.3903 45.9017 81.3903 45.2844C81.3807 44.0728 82.2403 42.5613 83.3134 41.944C83.7942 41.669 84.2403 41.6171 84.575 41.7536L83.3211 41.019C82.9692 40.8228 82.4884 40.8478 81.948 41.1574C80.875 41.7747 80.0153 43.2786 80.0153 44.4978Z" fill="white"/>
<path d="M83.3152 41.9462C82.2441 42.5654 81.3826 44.0693 81.3864 45.2885C81.3902 46.5193 82.2556 47.0135 83.3287 46.3943C84.3999 45.7769 85.2614 44.2846 85.2576 43.0539C85.2537 41.8346 84.3864 41.3269 83.3152 41.9462Z" fill="#DEDFFA"/>
<path d="M73.1191 25.5925C72.4114 25.1848 71.8421 25.5098 71.8383 26.3137C71.8383 27.1252 72.4037 28.1175 73.1114 28.5252C73.8094 28.9291 74.3806 28.5944 74.3806 27.781C74.3844 26.9771 73.8171 25.9964 73.1191 25.5925ZM70.2941 24.9867C70.0306 24.8329 69.8191 24.9541 69.8191 25.2541C69.8276 25.4185 69.8749 25.5787 69.9571 25.7214C70.0393 25.8641 70.1541 25.9853 70.2921 26.0752C70.5517 26.2252 70.7633 26.1002 70.7633 25.7983C70.7633 25.5002 70.5537 25.1367 70.2941 24.9867Z" fill="#9EA9C9"/>
<path d="M48.4903 8.36696C48.6056 8.52081 48.7787 8.65542 48.971 8.77081C50.048 9.38619 51.798 9.36696 52.8364 8.75158C53.0357 8.64621 53.2122 8.50242 53.3557 8.3285C53.8749 7.73235 53.7403 7.00158 52.8941 6.50158C51.8364 5.88619 50.0672 5.88619 48.9903 6.50158C48.1249 7.00158 47.971 7.77081 48.4903 8.36696Z" fill="#111D33"/>
<path d="M48.4999 8.37141C48.6301 8.53648 48.7932 8.67269 48.9788 8.77141C50.048 9.37718 51.7903 9.36179 52.8442 8.7541C53.0432 8.64911 53.2171 8.50213 53.3538 8.32333C53.8807 7.73295 53.7384 6.99641 52.8922 6.50218C51.8365 5.89641 50.0653 5.89641 48.9941 6.50218C48.1326 6.99833 47.973 7.76372 48.4999 8.37141Z" fill="#EDEEF2"/>
<path d="M48.4999 8.37118C48.6301 8.53625 48.7932 8.67246 48.9788 8.77118C50.048 9.37695 51.7903 9.36157 52.8441 8.75388C53.0432 8.64889 53.2171 8.50191 53.3538 8.32311C53.2202 8.17772 53.0644 8.0544 52.8922 7.95772C51.8365 7.35003 50.0653 7.35003 48.9941 7.95772C48.7711 8.08272 48.6095 8.22695 48.4999 8.37118Z" fill="#111D33"/>
<path d="M44.0289 19.8869L76.9366 38.7177L76.9558 34.1023C76.9558 32.8811 76.0981 31.3734 75.0481 30.7831L46.4327 14.3946C46.1913 14.2547 45.9172 14.1809 45.6381 14.1807C45.3591 14.1804 45.0849 14.2536 44.8431 14.393C44.6014 14.5324 44.4006 14.7331 44.261 14.9747C44.1215 15.2164 44.048 15.4905 44.0481 15.7696L44.0289 19.8869Z" fill="#F45170"/>
<path d="M60.8076 25.3019C60.4172 25.0769 60.0961 25.2596 60.0942 25.7096C60.1068 25.9577 60.1778 26.1994 60.3014 26.4149C60.4251 26.6305 60.5979 26.8138 60.8057 26.95L74.5922 34.9115C74.9826 35.1365 75.3057 34.9519 75.3076 34.4942C75.2937 34.2477 75.222 34.0078 75.0984 33.7941C74.9748 33.5803 74.8028 33.3985 74.5961 33.2634L60.8076 25.3019ZM56.173 21.6615C55.3711 21.2 54.7115 21.575 54.7095 22.4961C54.7076 23.4076 55.3634 24.5423 56.1634 25.0057C56.973 25.473 57.6172 25.0884 57.6211 24.1769C57.6211 23.2538 56.9826 22.1288 56.173 21.6615ZM51.523 18.9769C50.7211 18.5134 50.0615 18.8884 50.0595 19.8096C50.0557 20.723 50.7115 21.8576 51.5134 22.3211C52.323 22.7884 52.9672 22.4038 52.9692 21.4903C52.973 20.5692 52.3326 19.4442 51.523 18.9769ZM46.873 16.2903C46.0711 15.8288 45.4115 16.2038 45.4076 17.125C45.4057 18.0384 46.0615 19.173 46.8634 19.6365C47.6711 20.1038 48.3153 19.7173 48.3192 18.8057C48.3211 17.8846 47.6826 16.7596 46.873 16.2903Z" fill="white"/>
<path d="M45.5595 23.9082L45.5153 39.3678L75.323 56.5774L75.3672 41.1159L45.5595 23.9082Z" fill="#F3F1FC"/>
<path d="M47.9153 32.9174L46.3364 32.0059C46.3287 34.6943 48.2172 37.977 50.5557 39.327L50.571 37.5078C49.1018 36.6578 47.921 34.6039 47.9153 32.9174Z" fill="#FFD06C"/>
<path d="M50.5942 29.5696C48.2442 28.2119 46.3442 29.2965 46.3365 31.9946L47.9154 32.9177C47.9192 31.2292 49.1192 30.5466 50.5885 31.3946L50.5942 29.5696Z" fill="#B28AFD"/>
<path d="M50.5941 29.5693L50.5883 31.3963C52.0594 32.2424 53.2498 34.3059 53.2441 35.9847C53.2402 37.6732 52.0421 38.3559 50.571 37.5078L50.5671 39.3347C52.9056 40.6847 54.8268 39.6001 54.8344 36.902C54.8421 34.2136 52.9325 30.9309 50.5941 29.5693Z" fill="#DBA660"/>
<path d="M69.396 45.3465C67.5806 44.2984 65.9825 44.8388 65.6075 46.6965C65.7806 47.0157 65.9671 47.3272 66.1671 47.6291C66.9998 48.883 68.1017 50.0522 69.3806 50.7926C70.7613 51.5888 72.0152 51.6888 72.9325 51.208C72.9428 51.2029 72.953 51.1978 72.9633 51.1926L73.0017 51.1714C73.0609 51.1386 73.1186 51.1033 73.1748 51.0657C72.8133 48.8291 71.2556 46.4195 69.396 45.3465ZM69.4037 40.5868C68.4267 40.0234 67.6267 40.4715 67.6229 41.6003C67.621 42.7311 68.4152 44.1003 69.3921 44.6638C70.3825 45.2368 71.1806 44.7888 71.1844 43.658C71.1883 42.5272 70.394 41.158 69.4037 40.5868Z" fill="#72D561"/>
<path d="M69.4154 38.9503C66.5731 37.3099 64.2577 38.6291 64.2481 41.8945C64.2442 43.7657 64.9923 45.8657 66.1673 47.6291C65.9673 47.3272 65.7788 47.0137 65.6058 46.6964C65.9827 44.8387 67.5808 44.2984 69.3961 45.3484C71.2558 46.4214 72.8134 48.8291 73.1731 51.0657C73.1173 51.1041 73.0615 51.1387 73.0019 51.1714C73.9519 50.6464 74.5423 49.4926 74.5481 47.8407C74.5577 44.5753 72.2654 40.5945 69.4154 38.9503ZM69.3923 44.6637C68.4154 44.1003 67.6211 42.7311 67.6231 41.6003C67.6269 40.4714 68.4269 40.0234 69.4038 40.5868C70.3942 41.158 71.1884 42.5272 71.1846 43.658C71.1827 44.7887 70.3827 45.2349 69.3923 44.6637Z" fill="white"/>
<path d="M56.2903 33.0654L62.8557 36.8539L62.8499 38.6L56.2923 34.8116L56.2903 33.0654ZM56.2903 40.552L62.8346 44.3289L62.8288 46.0962L56.2903 42.3212V40.552ZM56.2903 36.8077L62.8442 40.5924L62.8403 42.3577L56.2903 38.577V36.8077Z" fill="#DEDFFB"/>
<path d="M65.7402 79.4253C65.7402 80.0022 66.1441 80.6945 66.6441 80.983L72.3172 84.2714C72.5672 84.4253 72.7979 84.4253 72.9518 84.3291L74.4518 83.4638C74.6249 83.3676 74.721 83.1561 74.721 82.8676L74.7402 76.5984C74.7402 76.0214 74.3364 75.3291 73.8364 75.0599L68.1633 71.7714C67.8941 71.6176 67.6825 71.5984 67.5095 71.6945L66.0672 72.5599H66.0479C65.8748 72.6561 65.7595 72.8676 65.7595 73.1561L65.7402 79.4253Z" fill="#5EC363"/>
<path d="M66.6615 72.635C66.1615 72.3465 65.7576 72.5773 65.7576 73.1523L65.7384 79.4215C65.7384 79.9965 66.1365 80.6927 66.6365 80.9831L72.323 84.2657C72.8172 84.5504 73.2249 84.3196 73.2269 83.7427L73.2461 77.4734C73.2461 76.8965 72.8422 76.2042 72.3461 75.9196L66.6615 72.635Z" fill="#78E75A"/>
<path d="M72.9613 84.3269C73.1248 84.2307 73.2248 84.0288 73.2267 83.7423L73.246 77.473C73.246 76.8961 72.8421 76.2038 72.346 75.9192L66.6614 72.6365C66.4094 72.4903 66.1806 72.4769 66.019 72.5711L67.5133 71.7019C67.6767 71.6077 67.9037 71.623 68.1556 71.7673L73.8421 75.05C74.3344 75.3365 74.7402 76.0307 74.7383 76.6057L74.719 82.875C74.719 83.1615 74.619 83.3634 74.4556 83.4577L72.9613 84.3269Z" fill="#5EC363"/>
<path d="M55.3364 73.4054C55.3364 73.9823 55.7403 74.6939 56.2403 74.9823L61.9133 78.2516C62.1633 78.4054 62.3941 78.4054 62.548 78.3093C62.6057 78.2708 62.6441 78.2516 62.6826 78.1939C62.6826 78.2131 62.6633 78.2131 62.6633 78.2323L64.048 77.4439C64.221 77.3477 64.3172 77.1554 64.3172 76.867L64.3364 70.5977C64.3364 70.0208 63.9326 69.3285 63.4326 69.04L57.7595 65.7516C57.4903 65.617 57.2787 65.5977 57.1057 65.6939L55.6441 66.54L55.6249 66.5593H55.6057C55.4518 66.6554 55.3557 66.867 55.3557 67.1362L55.3364 73.4054Z" fill="#497BFE"/>
<path d="M56.2557 66.6285C55.7557 66.3401 55.3557 66.5689 55.3519 67.1439L55.3365 73.4132C55.3346 73.9901 55.7326 74.6862 56.2326 74.9747L61.9192 78.2574C62.4134 78.5439 62.8211 78.3112 62.823 77.7362L62.8403 71.467C62.8403 70.8901 62.4365 70.1978 61.9423 69.9112L56.2557 66.6285Z" fill="#57B3FE"/>
<path d="M62.5575 78.3195C62.7191 78.2234 62.821 78.0234 62.8229 77.7368L62.8402 71.4676C62.8402 70.8907 62.4364 70.1984 61.9422 69.9118L56.2556 66.6291C56.0056 66.4849 55.7768 66.4695 55.6152 66.5638L57.1095 65.6965C57.2729 65.6003 57.4979 65.6157 57.7518 65.7618L63.4364 69.0445C63.9306 69.3291 64.3364 70.0234 64.3345 70.5984L64.3152 76.8676C64.3152 77.1561 64.2133 77.3561 64.0518 77.4503L62.5575 78.3195Z" fill="#497BFE"/>
<path d="M44.9326 67.4054C44.9326 67.9823 45.3365 68.6747 45.8365 68.9631L51.5095 72.2516C51.7595 72.4054 51.9903 72.4054 52.1442 72.3093L53.6442 71.4439C53.8172 71.3477 53.9134 71.1554 53.9134 70.867L53.9326 64.5977C53.9326 64.0208 53.5288 63.3285 53.0288 63.04L47.3557 59.7516C47.0865 59.617 46.8749 59.5977 46.7018 59.6939L45.2595 60.54H45.2403C45.0672 60.6362 44.9518 60.8477 44.9518 61.1362L44.9326 67.4054Z" fill="#FEBC1F"/>
<path d="M52.1537 72.3117C52.3153 72.2156 52.4172 72.0156 52.4172 71.729L52.4364 65.4598C52.4364 64.8829 52.0326 64.1906 51.5326 63.9021L45.8518 60.6233C45.6018 60.4771 45.373 60.4636 45.2095 60.5579L46.7057 59.6886C46.8672 59.5925 47.0941 59.6079 47.346 59.754L53.0268 63.0329C53.5268 63.3213 53.9307 64.0156 53.9307 64.5906L53.9114 70.8598C53.9114 71.1483 53.8114 71.3483 53.648 71.4425L52.1537 72.3117Z" fill="#FEBC1F"/>
<path d="M45.8519 60.6231C45.3519 60.3346 44.95 60.5615 44.9481 61.1365L44.9308 67.4058C44.9308 67.9827 45.3269 68.6788 45.8288 68.9692L51.5077 72.2481C52.0077 72.5365 52.4173 72.3058 52.4173 71.7288L52.4365 65.4596C52.4365 64.8827 52.0327 64.1904 51.5327 63.9019L45.8519 60.6231Z" fill="#FFD06C"/>
<path d="M70.1652 56.6484L70.1498 62.3311L75.1114 65.1965L75.1306 59.5138L70.1652 56.6484Z" fill="#F45170"/>
<path d="M70.1442 64.2852L70.1288 69.9678L75.0904 72.8332L75.1077 67.1505L70.1442 64.2852Z" fill="#DBA660"/>
<path d="M45.2115 43.0752L45.2076 44.2367L68.7923 57.8521L68.7942 56.6906L45.2115 43.0752ZM50.8365 49.1733L50.8326 50.3348L68.7826 60.7002L68.7865 59.5387L50.8365 49.1733ZM45.1884 50.7213L45.1846 51.8713L68.7692 65.4867L68.773 64.3367L45.1884 50.7213ZM50.8153 56.8194L50.8115 57.9714L68.7615 68.3348L68.7653 67.1829L50.8153 56.8194Z" fill="#E3E7F0"/>
</g>
<defs>
<filter id="filter0_dd_14939_302" x="-6" y="-2" width="112" height="112" filterUnits="userSpaceOnUse" color-interpolation-filters="sRGB">
<feFlood flood-opacity="0" result="BackgroundImageFix"/>
<feColorMatrix in="SourceAlpha" type="matrix" values="0 0 0 0 0 0 0 0 0 0 0 0 0 0 0 0 0 0 127 0" result="hardAlpha"/>
<feMorphology radius="2" operator="erode" in="SourceAlpha" result="effect1_dropShadow_14939_302"/>
<feOffset dy="2"/>
<feGaussianBlur stdDeviation="2"/>
<feColorMatrix type="matrix" values="0 0 0 0 0.0627451 0 0 0 0 0.0941176 0 0 0 0 0.156863 0 0 0 0.06 0"/>
<feBlend mode="normal" in2="BackgroundImageFix" result="effect1_dropShadow_14939_302"/>
<feColorMatrix in="SourceAlpha" type="matrix" values="0 0 0 0 0 0 0 0 0 0 0 0 0 0 0 0 0 0 127 0" result="hardAlpha"/>
<feMorphology radius="2" operator="erode" in="SourceAlpha" result="effect2_dropShadow_14939_302"/>
<feOffset dy="4"/>
<feGaussianBlur stdDeviation="4"/>
<feColorMatrix type="matrix" values="0 0 0 0 0.0627451 0 0 0 0 0.0941176 0 0 0 0 0.156863 0 0 0 0.1 0"/>
<feBlend mode="normal" in2="effect1_dropShadow_14939_302" result="effect2_dropShadow_14939_302"/>
<feBlend mode="normal" in="SourceGraphic" in2="effect2_dropShadow_14939_302" result="shape"/>
</filter>
</defs>
</svg>
