<svg width="100" height="107" viewBox="0 0 100 107" fill="none" xmlns="http://www.w3.org/2000/svg">
<g filter="url(#filter0_dd_14939_254)">
<path d="M31.7576 67.3651C31.7576 68.6343 32.6422 70.1536 33.7384 70.7882L77.1807 95.8843C77.7769 96.2305 78.3153 96.2305 78.6807 95.942C78.6615 95.9805 78.623 95.9997 78.6038 96.0189L82.8345 93.519C83.1999 93.3074 83.4115 92.8843 83.4115 92.2497L83.5076 36.4036L83.5269 32.6151C83.5269 31.3651 82.6422 29.8266 81.5653 29.2112L38.5653 4.38433L38.0845 4.1151C37.5461 3.8074 37.0461 3.76894 36.6807 3.98048L32.4307 6.48048C32.4692 6.46125 32.4884 6.44202 32.5269 6.44202C32.123 6.63433 31.873 7.07663 31.873 7.74971V11.4997L79.2769 38.9036L31.8538 11.5189L31.7576 67.3651Z" fill="#DEDFFB"/>
<path d="M78.5962 96.0283L82.8366 93.5225C83.1923 93.3014 83.4135 92.8764 83.4135 92.2475L83.5173 36.4014L79.2789 38.9052L79.1769 94.7514C79.1769 95.3629 78.9558 95.8052 78.5981 96.0283H78.5962Z" fill="#DEDFFB"/>
<path d="M31.8577 11.5186L31.7558 67.3647C31.7519 68.6243 32.6384 70.1609 33.7365 70.7936L77.1846 95.8801C78.2808 96.5147 79.175 96.0051 79.1788 94.7455L79.2808 38.8993L31.8577 11.5186Z" fill="#F3F1FC"/>
<path d="M33.3538 67.3647C33.3538 68.0609 33.9308 69.0609 34.5231 69.4166L77.5673 94.2686L77.6865 39.8147L33.4384 14.2686L33.3538 67.3647Z" fill="white"/>
<path d="M31.873 7.74971V11.4997L79.2769 38.9036L83.5076 36.4036L83.5269 32.6151C83.5269 31.3651 82.6422 29.8266 81.5653 29.2112L38.5653 4.38433L38.0845 4.1151C37.5461 3.8074 37.0461 3.76894 36.6807 3.98048L32.4307 6.48048C32.4692 6.46125 32.4884 6.44202 32.5269 6.44202C32.123 6.63433 31.873 7.07663 31.873 7.74971Z" fill="#BF7D5A"/>
<path d="M32.4404 6.47841C32.8154 6.27456 33.3077 6.30918 33.8539 6.61302L37.3424 8.63995L77.3039 31.7053C78.3943 32.3342 79.2789 33.8323 79.2962 35.1092L79.277 35.1284V38.9053L83.5193 36.4034L83.5347 32.6246C83.5347 31.3649 82.6501 29.8323 81.5616 29.2015L38.5577 4.38418L38.0904 4.11302C37.5443 3.80533 37.052 3.77264 36.677 3.97648L32.4404 6.47841Z" fill="#BF7D5A"/>
<path d="M31.8654 7.74346V11.5031L79.2693 38.8935L79.2981 35.1319C79.2981 33.8877 78.4096 32.3473 77.3154 31.6973L33.8539 6.61653C32.7577 5.99538 31.8692 6.49923 31.8692 7.74346H31.8654Z" fill="#DBA660"/>
<path d="M76.0616 32.7917C75.3885 32.4033 74.8308 32.7091 74.8308 33.4937C74.827 34.2783 75.3789 35.2341 76.052 35.6244C76.7347 36.0187 77.3001 35.7071 77.302 34.9225C77.3039 34.1379 76.7443 33.186 76.0616 32.7917ZM72.0097 30.4533C71.327 30.0591 70.7712 30.3648 70.7693 31.1494C70.7674 31.9341 71.3193 32.8898 72.002 33.2841C72.6847 33.6783 73.2405 33.361 73.2424 32.5783C73.2443 31.7937 72.6924 30.8475 72.0116 30.4533H72.0097ZM67.9501 28.1091C67.2674 27.7148 66.7116 28.0225 66.7097 28.8071C66.7078 29.5917 67.2597 30.5475 67.9405 30.9417C68.6251 31.336 69.1808 31.0187 69.1828 30.2341C69.1847 29.4494 68.6328 28.5033 67.9501 28.1091ZM34.4501 8.28983C33.9116 7.98021 33.4501 8.22444 33.4482 8.86098C33.4462 9.49944 33.9039 10.2917 34.4424 10.6033L54.3866 22.1187C54.9578 22.4456 55.402 22.1764 55.4058 21.5379C55.4058 20.9014 54.9635 20.1341 54.3943 19.8052L34.4501 8.28983Z" fill="white"/>
<path d="M63.5654 47.5898L63.5443 55.186L74.452 61.4841L74.4712 53.8879L63.5654 47.5898Z" fill="#F45170"/>
<path d="M50.0847 39.8076L50.0617 47.4038L60.9694 53.6999L60.9924 46.1038L50.0847 39.8076Z" fill="#B0B8CF"/>
<path d="M36.5904 32.0166L36.5673 39.6128L47.475 45.9089L47.498 38.3128L36.5904 32.0166Z" fill="#78E75A"/>
<path d="M70.0731 62.0322L70.0596 66.8553L74.2693 69.2861L74.2827 64.4611L70.0731 62.0322Z" fill="#BF7D5A"/>
<path d="M57.1828 56.1533L57.179 57.8572L68.1732 64.2033L68.179 62.4995L57.1828 56.1533Z" fill="#DEDFFB"/>
<path d="M49.654 50.2422L49.6405 55.0672L53.8386 57.4903L53.8521 52.6672L49.654 50.2422Z" fill="#8FABFE"/>
<path d="M36.7635 44.3633L36.7577 46.0671L47.7442 52.4094L47.75 50.7056L36.7635 44.3633Z" fill="#DEDFFB"/>
<path d="M70.0731 70.3115L70.0596 75.1365L74.2693 77.5654L74.2827 72.7404L70.0731 70.3115Z" fill="#8FABFE"/>
<path d="M57.1828 64.4307L57.179 66.1364L68.1732 72.4826L68.179 70.7787L57.1828 64.4307Z" fill="#DEDFFB"/>
<path d="M49.654 58.5205L49.6405 63.3474L53.8386 65.7705L53.8521 60.9436L49.654 58.5205Z" fill="#FFD06C"/>
<path d="M36.7635 52.6416L36.7577 54.3454L47.7442 60.6878L47.75 58.9839L36.7635 52.6416Z" fill="#DEDFFB"/>
<path d="M20.8925 15.6348C20.8925 17.5963 22.2963 20.0001 24.0079 21.0001L70.0079 47.5578C70.9117 48.0771 71.7194 48.1155 72.2963 47.7501C72.3348 47.7309 72.3732 47.7117 72.4117 47.6732L73.7002 46.9232C74.2579 46.6155 74.604 45.9232 74.604 44.9425C74.604 43.9617 74.2579 42.8463 73.7002 41.8848C73.1425 40.9232 72.354 40.0578 71.4886 39.5578L25.4886 13.0001C24.6232 12.5001 23.8348 12.4617 23.2579 12.7886L21.8155 13.6348C21.8506 13.6134 21.8901 13.6003 21.9309 13.5963C21.2963 13.8848 20.9117 14.5963 20.8925 15.6348Z" fill="#497BFE"/>
<path d="M23.2674 12.7887C23.8347 12.4579 24.6193 12.5021 25.4828 13.0002L71.4943 39.5675C72.352 40.0637 73.1443 40.9329 73.6962 41.8887C74.2501 42.8463 74.6039 43.9637 74.6001 44.9483C74.5981 45.9252 74.2539 46.6098 73.6962 46.9348L72.2385 47.781C72.7962 47.4579 73.1405 46.7733 73.1424 45.7963C73.1462 44.8098 72.7924 43.6925 72.2385 42.7367C71.6847 41.781 70.8943 40.9098 70.0366 40.4156L24.0251 13.8483C23.1597 13.3483 22.3751 13.304 21.8078 13.6348L23.2674 12.7887Z" fill="#497BFE"/>
<path d="M24.025 13.8478C22.3077 12.8575 20.9038 13.6575 20.8981 15.6305C20.8923 17.6036 22.2885 20.0055 24.0038 20.9959L70.0154 47.5613C71.7327 48.5517 73.1365 47.7671 73.1423 45.794C73.1461 44.8074 72.7923 43.6921 72.2385 42.7344C71.6865 41.7767 70.8942 40.9074 70.0365 40.4132L24.025 13.8478Z" fill="#57B3FE"/>
<path d="M21.8809 15.6379C21.8809 17.2649 23.0771 19.3206 24.4867 20.1437L41.2809 29.8437C41.7117 30.0802 42.0251 30.1379 42.204 30.1379C42.8482 30.1379 42.9463 29.3745 42.9463 28.9245C42.9463 28.1399 42.6732 27.2187 42.1636 26.3572C41.6924 25.5149 41.0078 24.7879 40.3213 24.3956L23.5271 14.6976C23.1155 14.461 22.8021 14.4033 22.6251 14.4033C21.979 14.4033 21.8809 15.1668 21.8809 15.6379ZM69.4059 41.786C68.5444 41.2879 67.8348 41.6783 67.8309 42.6822C67.829 43.686 68.5348 44.9091 69.3963 45.4072C70.2694 45.911 70.9924 45.5129 70.9944 44.5091C70.9982 43.5052 70.279 42.2899 69.4059 41.786ZM64.2232 38.7937C63.3501 38.2899 62.6405 38.6802 62.6367 39.6841C62.6348 40.6879 63.3405 41.911 64.2136 42.4149C65.0867 42.9187 65.7982 42.5149 65.8001 41.511C65.804 40.5072 65.0982 39.2995 64.2232 38.7937ZM59.029 35.7956C58.1559 35.2899 57.4463 35.6802 57.4424 36.686C57.4405 37.6899 58.1463 38.9129 59.0194 39.4168C59.8924 39.9206 60.604 39.5149 60.6059 38.5129C60.6098 37.5091 59.904 36.2995 59.029 35.7956ZM44.9848 30.3149C44.554 29.3552 44.6117 28.4149 45.1617 28.1014C45.4751 27.9245 45.8674 27.9841 46.2771 28.1976C46.6694 28.4341 47.0617 28.8456 47.3751 29.3745C47.6694 29.8841 47.8271 30.4322 47.8271 30.9033C47.8271 31.3937 47.6694 31.7456 47.3751 31.9226C47.0617 32.0783 46.6694 32.0399 46.2598 31.8052C45.899 31.5869 45.5905 31.2922 45.3559 30.9418L44.4367 31.4726L44.0828 30.8245L44.9848 30.3149ZM45.5136 30.4341C45.6987 30.7484 45.9533 31.0161 46.2578 31.2168C46.5328 31.3745 46.8078 31.3937 47.004 31.2745C47.2001 31.1783 47.3174 30.9226 47.3174 30.6091C47.3017 30.2482 47.1938 29.8973 47.004 29.5899C46.8078 29.2379 46.5328 28.9629 46.2578 28.8072C46.004 28.6495 45.729 28.611 45.5328 28.7283C45.1213 28.9629 45.1213 29.7283 45.5136 30.4341Z" fill="white"/>
<path d="M68.1904 85.9207L68.1866 86.9534L74.25 90.4534L74.252 89.4207L68.1904 85.9207ZM37.5327 63.0053L43.1289 66.2361V67.265L37.5327 64.0342V63.0053ZM40.8058 67.5053L40.8019 68.5342L49.3404 73.463L49.3443 72.4361L40.8058 67.5053ZM38.7366 68.9169L38.7346 69.9496L54.6923 79.163L54.6962 78.1303L38.7366 68.9169ZM37.5327 57.7842L46.8635 63.1726L46.8596 64.2053L37.5327 58.8207V57.7842Z" fill="#DEDFFB"/>
<path d="M44.3077 66.917L44.3057 67.9458L54.5115 73.8381L54.5134 72.8093L44.3077 66.917Z" fill="#FFD06C"/>
<path d="M37.5326 60.3955L58.5903 72.5513L58.5865 73.5859L37.5326 61.432V60.3955Z" fill="#DEDFFB"/>
<path d="M48.3462 64.0283L48.3443 65.061L65.752 75.1129L65.7559 74.0783L48.3462 64.0283Z" fill="#78E75A"/>
<path d="M67.4769 75.0752L67.475 76.1079L74.2789 80.0367L74.2827 79.0021L67.4769 75.0752ZM56.0269 78.8983L56.0231 79.9329L66.6981 86.0944L66.7019 85.0617L56.0269 78.8983Z" fill="#DEDFFB"/>
<path d="M61.1578 79.2578L61.1559 80.2847L74.2578 87.8482L74.2598 86.8213L61.1578 79.2578Z" fill="#8FABFE"/>
<path d="M51.104 73.4519L51.1021 74.4808L60.2117 79.7404L60.2155 78.7115L51.104 73.4519ZM55.4905 73.3731L55.4867 74.4019L63.9001 79.2577L63.9021 78.2308L55.4905 73.3731ZM66.329 79.6327L66.3271 80.6596L74.2636 85.2423L74.2675 84.2154L66.329 79.6327ZM59.8001 73.25L59.7963 74.2846L74.2713 82.6423L74.2751 81.6096L59.8001 73.25Z" fill="#DEDFFB"/>
<path d="M54.7808 90.507L45.1788 96.0551L16.4692 79.3743V76.557L19.5981 74.7454L20.6692 75.3666L23.0635 73.9781L23.0538 72.7416L26.0635 71.0166L54.7731 87.6993L54.7808 90.507Z" fill="#9EA9C9"/>
<path d="M16.4692 76.557V79.3647L45.1807 96.057L54.7769 90.5186V87.6916L26.0653 71.0186L23.0653 72.7493V73.9801L20.6615 75.3647L19.6038 74.7493L16.4692 76.557Z" fill="#FEBC1F"/>
<path d="M51.7673 90.6634L23.0577 73.9807L23.0539 72.7441L51.7616 89.4268L51.7673 90.6634Z" fill="#FEBC1F"/>
<path d="M51.7635 89.4262L23.0558 72.7435L26.0655 71.0166L54.7712 87.6993L51.7635 89.4262Z" fill="#FFD06C"/>
<path d="M48.3077 92.6612L19.6 75.9785L23.0596 73.9805L51.7673 90.6632L48.3077 92.6612Z" fill="#F9A83D"/>
<path d="M45.1732 93.2422L16.4674 76.5595L19.5963 74.7422L48.304 91.4249L45.1732 93.2422Z" fill="#FFD06C"/>
<path d="M45.179 96.0557L16.4713 79.3711L16.4674 76.5596L45.1732 93.2423L45.179 96.0557Z" fill="#FEBC1F"/>
<path d="M54.7711 87.7002L54.7769 90.5117L45.1788 96.056L45.173 93.2425L48.3038 91.4252L48.3076 92.6617L51.7672 90.6637L51.7634 89.4271L54.7711 87.7002Z" fill="#EF7B56"/>
<path d="M32.9482 75.4496L31.6463 76.2054L31.0963 75.8881L32.3982 75.1304L32.9482 75.4496ZM34.2982 76.2285L32.0329 77.5439L31.4809 77.2266L33.7463 75.9092L34.2982 76.2285ZM53.0886 87.0765L51.7867 87.8342L51.2348 87.515L52.5367 86.7592L53.0886 87.0765ZM51.7405 86.2977L50.4367 87.0554L49.8867 86.7362L51.1886 85.9804L51.7405 86.2977ZM50.4098 85.5304L49.1079 86.2862L48.5559 85.9689L49.8579 85.2112L50.4098 85.5304ZM49.0598 84.7496L47.7579 85.5073L47.2079 85.19L48.5098 84.4323L49.0598 84.7496ZM47.7309 83.9842L45.4655 85.2996L44.9136 84.9823L47.179 83.665L47.7309 83.9842ZM46.3809 83.2054L45.079 83.9612L44.529 83.6439L45.8309 82.8862L46.3809 83.2054ZM45.0521 82.4362L43.7502 83.1939L43.179 82.865L44.4809 82.1073L45.0521 82.4362ZM43.7021 81.6573L42.4002 82.415L41.8502 82.0958L43.1521 81.34L43.7021 81.6573ZM42.354 80.8785L41.0521 81.6362L40.5002 81.3169L41.8021 80.5612L42.354 80.8785ZM41.0232 80.1112L38.7579 81.4285L38.2079 81.1092L40.4732 79.7939L41.0232 80.1112ZM39.654 79.3208L38.354 80.0785L37.8213 79.7708L39.1232 79.015L39.654 79.3208ZM30.2694 73.9035L28.9675 74.6592L28.4155 74.3419L29.7194 73.5842L30.2694 73.9035ZM31.6194 74.6804L30.3155 75.4381L29.7655 75.1208L31.0675 74.3631L31.6194 74.6804ZM27.5905 72.3554L25.3252 73.6727L24.7752 73.3535L27.0405 72.0381L27.5905 72.3554ZM28.9405 73.1342L27.6367 73.8919L27.0867 73.5727L28.3886 72.8169L28.9405 73.1342ZM38.3271 78.5535L37.0232 79.3112L36.4905 79.0035L37.7944 78.2458L38.3271 78.5535ZM35.6463 77.0073L34.3444 77.7631L33.7752 77.4362L35.0771 76.6785L35.6463 77.0073ZM36.9771 77.7746L35.6752 78.5323L35.1232 78.2131L36.4252 77.4573L36.9771 77.7746ZM21.6329 77.6189L20.329 78.3766L19.779 78.0592L21.0809 77.3015L21.6329 77.6189ZM21.2463 76.2823L18.9809 77.5977L18.429 77.2804L20.6944 75.9631L21.2463 76.2823ZM25.6405 79.9342L24.3386 80.6919L23.8059 80.3842L25.1098 79.6265L25.6405 79.9342ZM24.3117 79.1669L23.0098 79.9227L22.4771 79.615L23.779 78.8592L24.3117 79.1669ZM28.3578 81.5035L27.0559 82.2592L26.4867 81.9323L27.7886 81.1746L28.3578 81.5035ZM29.6886 82.2708L28.3867 83.0285L27.8348 82.7092L29.1367 81.9535L29.6886 82.2708ZM36.3944 86.1439L35.0925 86.8996L34.5425 86.5823L35.8444 85.8246L36.3944 86.1439ZM35.0463 85.365L33.7444 86.1208L33.1925 85.8035L34.4944 85.0458L35.0463 85.365ZM34.679 84.0381L32.4136 85.3535L31.8636 85.0362L34.1271 83.7189L34.679 84.0381ZM32.3655 83.8169L31.0655 84.5746L30.5136 84.2573L31.8155 83.4996L32.3655 83.8169ZM31.0386 83.0496L29.7348 83.8073L29.1655 83.4785L30.4675 82.7208L31.0386 83.0496ZM22.9617 78.3881L21.6598 79.1439L21.1098 78.8266L22.4117 78.0689L22.9617 78.3881ZM27.9713 80.165L25.7059 81.4804L25.1559 81.1631L27.4213 79.8458L27.9713 80.165ZM37.7444 86.9227L36.4425 87.6785L35.8713 87.3516L37.1752 86.5919L37.7444 86.9227ZM44.4329 90.7823L43.129 91.54L42.579 91.2227L43.8809 90.465L44.4329 90.7823ZM45.7809 91.5612L44.479 92.3189L43.9463 92.0112L45.2482 91.2554L45.7809 91.5612ZM43.1021 90.015L41.8002 90.7727L41.2482 90.4535L42.5521 89.6977L43.1021 90.015ZM41.3848 87.9092L39.1213 89.2265L38.5502 88.8958L40.8155 87.5804L41.3848 87.9092ZM41.754 89.2362L40.4502 89.9939L39.9002 89.6746L41.2021 88.9189L41.754 89.2362ZM39.0752 87.69L37.7713 88.4477L37.2213 88.1285L38.5232 87.3708L39.0752 87.69Z" fill="#4C5C75"/>
<path d="M22.8155 61.1155L22.8539 62.4425C22.8539 62.5963 22.8924 62.7694 22.9693 62.9232V64.5002C22.9693 65.0194 23.3155 65.5386 23.9885 65.9232C25.3732 66.7309 27.5847 66.7309 28.9693 65.9232C29.6616 65.5386 29.9886 65.0001 29.9886 64.4809V63.0963C30.1017 62.89 30.1613 62.6585 30.1616 62.4232V61.0963C30.1616 60.9232 30.1232 60.7502 30.027 60.5771L29.9886 34.2501C29.9886 34.3078 29.9501 34.3655 29.9501 34.4232C29.9693 34.1925 29.9501 33.9617 29.8539 33.7309V33.7117C29.8155 33.6348 29.777 33.5578 29.7193 33.4809L28.3539 31.1348L26.4885 27.8848L24.5847 31.1155L23.1809 33.5386C23.1424 33.5963 23.1039 33.654 23.0847 33.6925V33.7117C23.0078 33.8848 22.9501 34.0771 22.9501 34.2694L22.9885 60.4809C22.8539 60.6925 22.7962 60.904 22.8155 61.1155Z" fill="#F45170"/>
<path d="M22.975 62.1074V64.5017C22.975 65.0151 23.3173 65.5343 23.9942 65.9286C25.3634 66.7247 27.5865 66.7247 28.9596 65.9286C29.6557 65.5286 29.998 65.0055 29.998 64.4805L29.9923 62.1074H22.975Z" fill="#4C5C75"/>
<path d="M22.8078 61.109L22.8578 62.4436C22.8578 62.984 23.2155 63.5244 23.927 63.9359C25.3578 64.7686 27.6828 64.7686 29.127 63.9359C29.8482 63.5186 30.1616 62.9744 30.1616 62.4244V61.0859L22.8078 61.109Z" fill="#DEDFFB"/>
<path d="M23.8943 59.5899C22.4539 60.4206 22.4443 61.7706 23.8751 62.6014C25.3097 63.4341 27.6366 63.4341 29.077 62.6014C30.5154 61.7726 30.5251 60.4226 29.0924 59.5899C27.6616 58.7591 25.3328 58.7591 23.8943 59.5899Z" fill="#F3F1FC"/>
<path d="M22.948 34.2633L22.9942 60.9364C22.9961 61.4557 23.3365 61.971 24.0134 62.3653C25.3865 63.1614 27.6134 63.1595 28.9903 62.3653C29.6826 61.9653 30.0288 61.4422 30.0268 60.9153L29.9807 34.2422C29.9807 34.7672 29.6345 35.2922 28.9422 35.6922C27.5653 36.4883 25.3403 36.4883 23.9692 35.6922C23.2903 35.298 22.948 34.7806 22.948 34.2633Z" fill="#F45170"/>
<path d="M23.0808 33.7116L23.0885 33.6943C23.1146 33.6434 23.1435 33.594 23.1751 33.5462L24.5904 31.1193L26.4827 27.8789L28.3577 31.1289L29.7212 33.4789C29.7712 33.5507 29.8149 33.6266 29.852 33.7058L29.8635 33.7251H29.8597C30.1693 34.4058 29.8654 35.1616 28.9443 35.6924C27.5654 36.4885 25.3404 36.4885 23.9693 35.6924C23.0462 35.1539 22.752 34.3943 23.0808 33.7116Z" fill="#FFD06C"/>
<path d="M24.5904 31.1193C25.8095 31.5485 27.1379 31.5526 28.3596 31.1309L26.4827 27.8809L24.5904 31.1193Z" fill="#111D33"/>
</g>
<defs>
<filter id="filter0_dd_14939_254" x="-6" y="-2" width="112" height="112" filterUnits="userSpaceOnUse" color-interpolation-filters="sRGB">
<feFlood flood-opacity="0" result="BackgroundImageFix"/>
<feColorMatrix in="SourceAlpha" type="matrix" values="0 0 0 0 0 0 0 0 0 0 0 0 0 0 0 0 0 0 127 0" result="hardAlpha"/>
<feMorphology radius="2" operator="erode" in="SourceAlpha" result="effect1_dropShadow_14939_254"/>
<feOffset dy="2"/>
<feGaussianBlur stdDeviation="2"/>
<feColorMatrix type="matrix" values="0 0 0 0 0.0627451 0 0 0 0 0.0941176 0 0 0 0 0.156863 0 0 0 0.06 0"/>
<feBlend mode="normal" in2="BackgroundImageFix" result="effect1_dropShadow_14939_254"/>
<feColorMatrix in="SourceAlpha" type="matrix" values="0 0 0 0 0 0 0 0 0 0 0 0 0 0 0 0 0 0 127 0" result="hardAlpha"/>
<feMorphology radius="2" operator="erode" in="SourceAlpha" result="effect2_dropShadow_14939_254"/>
<feOffset dy="4"/>
<feGaussianBlur stdDeviation="4"/>
<feColorMatrix type="matrix" values="0 0 0 0 0.0627451 0 0 0 0 0.0941176 0 0 0 0 0.156863 0 0 0 0.1 0"/>
<feBlend mode="normal" in2="effect1_dropShadow_14939_254" result="effect2_dropShadow_14939_254"/>
<feBlend mode="normal" in="SourceGraphic" in2="effect2_dropShadow_14939_254" result="shape"/>
</filter>
</defs>
</svg>
