<svg width="101" height="22" viewBox="0 0 101 22" fill="none" xmlns="http://www.w3.org/2000/svg">
<path fill-rule="evenodd" clip-rule="evenodd" d="M0.881532 9.95085C0.0355471 11.5509 -0.228859 13.2786 0.207612 15.1599C1.23427 19.5848 5.82725 23.577 9.97057 21.3764C12.2562 20.162 13.1606 17.1872 11.5897 14.8842C10.7282 13.6212 9.35056 12.559 7.84385 11.5472C5.90468 10.2836 3.08167 8.26669 3.37303 5.48535C2.25232 6.78884 1.49064 8.28941 2.37735 9.96128C3.05815 11.2433 4.33659 12.4184 5.95286 13.534C6.64513 14.0811 7.31733 14.6497 7.80599 15.4073C9.18251 17.5403 7.60296 18.9838 5.58234 18.7382C3.58008 18.495 2.60333 17.4482 2.16686 15.9802C2.94574 16.6543 3.751 17.2787 4.70137 17.5452C6.26716 17.9842 6.68298 16.9453 6.23275 15.8003C5.9953 15.1961 5.55653 14.6245 5.02485 14.1683C3.37475 12.7488 2.3567 11.8167 0.881532 9.95085Z" fill="#194185"/>
<path fill-rule="evenodd" clip-rule="evenodd" d="M10.8717 20.7465C12.4661 19.3159 12.9342 16.8545 11.5903 14.8842C10.7289 13.6212 9.3512 12.559 7.84449 11.5472C5.90532 10.2836 3.08231 8.26669 3.37367 5.48535C2.71065 7.52869 3.03069 8.91506 4.44621 10.372C6.19438 12.171 8.52816 13.4831 10.1031 15.4233C11.2347 16.8176 11.8301 18.4932 10.8717 20.7465Z" fill="#3A94CF"/>
<path fill-rule="evenodd" clip-rule="evenodd" d="M6.4007 16.7068C6.41676 16.4324 6.35883 16.1205 6.23207 15.7994C5.99463 15.1952 5.55529 14.6236 5.02418 14.1674C3.3735 12.7485 2.35603 11.8158 0.880859 9.95117C2.35201 13.8672 5.24786 13.9187 6.4007 16.7068Z" fill="#3A94CF"/>
<mask id="mask0_14932_183" style="mask-type:luminance" maskUnits="userSpaceOnUse" x="4" y="0" width="12" height="21">
<path d="M4.37036 0H15.5293V20.469H4.37036V0Z" fill="white"/>
</mask>
<g mask="url(#mask0_14932_183)">
<path fill-rule="evenodd" clip-rule="evenodd" d="M7.87016 0C5.98662 1.54846 3.64941 3.67653 4.7512 6.18465C5.66314 8.25991 8.57276 10.1909 10.2286 11.6264C13.2053 14.2057 15.4749 16.2705 12.4763 20.3136C14.9426 17.811 15.9492 14.9235 13.5753 11.9162C12.9191 11.0842 12.1379 10.3082 11.2421 9.58181C9.55123 8.21017 7.10677 6.68811 7.09071 4.12289C8.53892 6.50944 9.81564 7.12527 11.7783 8.65286C13.6005 10.0705 14.8015 11.7105 15.4129 13.5604C15.2523 11.4416 14.4964 9.53392 13.2902 7.78837C12.4081 6.51067 11.2902 5.3263 10.2366 4.10263C9.05282 2.72547 8.40413 1.86405 7.87016 0Z" fill="#3A94CF"/>
</g>
<mask id="mask1_14932_183" style="mask-type:luminance" maskUnits="userSpaceOnUse" x="7" y="0" width="9" height="14">
<path d="M7.74756 0H15.5295V13.7102H7.74756V0Z" fill="white"/>
</mask>
<g mask="url(#mask1_14932_183)">
<path fill-rule="evenodd" clip-rule="evenodd" d="M15.0885 12.7215C15.2106 12.9965 15.3185 13.2753 15.4131 13.5602C15.2525 11.4413 14.4966 9.53367 13.2904 7.78812C12.4083 6.51042 11.2904 5.32605 10.2368 4.10238C9.05245 2.72645 8.40434 1.86441 7.87036 0.000976562C7.87954 1.34069 8.15828 2.51523 8.73929 3.69347C9.44017 5.11422 10.3412 5.8289 11.533 7.0231C12.1072 7.59778 12.6434 8.21054 13.1373 8.8675C13.9379 9.93092 14.8533 11.3891 15.0885 12.7215Z" fill="#3A94CF"/>
</g>
<path fill-rule="evenodd" clip-rule="evenodd" d="M4.87354 3.2832C4.42846 4.17593 4.2954 5.14787 4.7508 6.18488C5.66274 8.26015 8.57178 10.1911 10.2276 11.6266C11.0788 12.3634 11.8714 13.059 12.5 13.77C10.675 11.063 7.67533 9.51942 5.98393 6.95175C5.2647 5.85947 4.82937 4.63826 4.87354 3.2832Z" fill="#3A94CF"/>
<path d="M27.1062 16.9999C26.6094 16.9999 26.1511 16.9486 25.7344 16.8461C25.3145 16.7435 24.9299 16.6121 24.5806 16.4486C24.228 16.2788 23.8947 16.1025 23.5806 15.923L23.5678 13.3333C23.8146 13.5127 24.0838 13.6922 24.3754 13.8717C24.6639 14.0448 24.9652 14.2018 25.2729 14.3461C25.587 14.4839 25.9011 14.5961 26.2088 14.6794C26.5165 14.7563 26.8145 14.7948 27.1062 14.7948C27.3882 14.7948 27.6382 14.7435 27.8626 14.6409C28.0837 14.532 28.26 14.3781 28.3882 14.1794C28.5164 13.9743 28.5805 13.7243 28.5805 13.423C28.5805 13.1602 28.494 12.9358 28.3241 12.7563C28.1607 12.5769 27.9299 12.4166 27.6318 12.2692C27.3305 12.1249 26.9812 11.9743 26.5806 11.8205C26.1094 11.6506 25.6863 11.4615 25.3113 11.2564C24.9427 11.0512 24.6254 10.8205 24.3626 10.5641C24.0966 10.3012 23.8915 9.98714 23.7472 9.62817C23.5998 9.26278 23.5293 8.8301 23.5293 8.33331C23.5293 7.82049 23.6222 7.35895 23.8113 6.9487C24.0069 6.53845 24.2761 6.18909 24.619 5.89743C24.9684 5.60897 25.3786 5.38461 25.8498 5.23077C26.3177 5.07692 26.8306 5 27.3882 5C27.9171 5 28.4299 5.07051 28.9267 5.20513C29.4203 5.34295 29.9139 5.53525 30.401 5.78204V8.23074C30.1254 8.0192 29.8177 7.83331 29.478 7.67946C29.1446 7.51921 28.7985 7.39421 28.4395 7.30767C28.087 7.21473 27.7536 7.16665 27.4395 7.16665C26.9523 7.16665 26.5741 7.28844 26.3113 7.52562C26.0549 7.75639 25.9267 8.05126 25.9267 8.41023C25.9267 8.68587 25.9972 8.91022 26.1447 9.08971C26.2985 9.2692 26.51 9.42304 26.7857 9.55124C27.0581 9.67945 27.369 9.80765 27.7216 9.93586C28.1831 10.0897 28.6126 10.2692 29.0164 10.4743C29.4171 10.673 29.7664 10.9102 30.0677 11.1923C30.3754 11.4679 30.6094 11.7884 30.7728 12.1538C30.9427 12.5128 31.0292 12.9358 31.0292 13.423C31.0292 13.9967 30.9299 14.5095 30.7344 14.9615C30.5356 15.407 30.2632 15.782 29.9139 16.0897C29.5613 16.3909 29.1478 16.6153 28.6703 16.7691C28.1895 16.923 27.6703 16.9999 27.1062 16.9999Z" fill="white"/>
<path d="M43.8288 7.89746C44.3159 7.89746 44.7294 7.97118 45.0723 8.11541C45.4217 8.25323 45.707 8.44553 45.9313 8.69233C46.1525 8.94232 46.3287 9.22758 46.457 9.55129C46.5852 9.87821 46.6749 10.2276 46.7262 10.6026C46.7775 10.9712 46.8031 11.3461 46.8031 11.7308V16.7051H44.5339V11.7179C44.5339 11.4615 44.5115 11.2179 44.4698 10.9872C44.4345 10.7564 44.3672 10.5577 44.2647 10.3846C44.1685 10.2051 44.0339 10.0705 43.8544 9.97437C43.6749 9.8718 43.4442 9.82052 43.1621 9.82052C42.8544 9.82052 42.5403 9.91988 42.2262 10.1154C41.9185 10.3045 41.6429 10.5609 41.4057 10.8846C41.4217 11.0321 41.4314 11.1731 41.4314 11.3077C41.4378 11.4455 41.4442 11.5865 41.4442 11.7308V16.7051H39.2262V11.7179C39.2262 11.1026 39.1173 10.6346 38.9057 10.3077C38.7006 9.98398 38.3545 9.82052 37.8673 9.82052C37.5596 9.82052 37.2519 9.91988 36.9442 10.1154C36.6429 10.3141 36.3737 10.5769 36.1365 10.9103V16.7051H33.8545V8.19233H35.7904L36.0468 9.07694C36.4218 8.71797 36.8224 8.43271 37.2519 8.21797C37.6878 8.00643 38.1141 7.89746 38.5339 7.89746C38.9859 7.89746 39.3737 7.96156 39.7006 8.08977C40.0243 8.21156 40.2935 8.38143 40.5083 8.60258C40.7294 8.81733 40.9089 9.07053 41.0467 9.35899C41.3096 9.07694 41.598 8.82694 41.9057 8.60258C42.2198 8.38143 42.5403 8.21156 42.8672 8.08977C43.191 7.96156 43.5115 7.89746 43.8288 7.89746Z" fill="white"/>
<path d="M53.3858 7.89746C54.264 7.89746 54.9819 8.0449 55.5396 8.33335C56.1037 8.6154 56.5171 9.02566 56.7832 9.56411C57.0556 10.1026 57.1934 10.7532 57.1934 11.5128L57.1806 16.7051H55.2575L54.9883 15.8077C54.7639 16.0384 54.5075 16.2435 54.2191 16.423C53.937 16.6025 53.6358 16.7435 53.3217 16.8461C53.0043 16.9487 52.6838 16.9999 52.3601 16.9999C51.8121 16.9999 51.3377 16.9006 50.9371 16.7051C50.5428 16.5 50.2383 16.2051 50.0268 15.8205C49.8121 15.4359 49.7063 14.9743 49.7063 14.4359C49.7063 13.891 49.8345 13.4199 50.0909 13.0256C50.3473 12.625 50.7063 12.3141 51.1678 12.0897C51.6294 11.8686 52.1678 11.7564 52.7832 11.7564C53.0717 11.7564 53.4018 11.7788 53.7704 11.8205C54.1454 11.8654 54.5268 11.9199 54.9114 11.9872V11.5641C54.9114 11.3333 54.8857 11.1154 54.8345 10.9103C54.7896 10.6987 54.7063 10.5096 54.5781 10.3462C54.4498 10.1763 54.2575 10.0449 54.0011 9.94873C53.7511 9.85578 53.4274 9.8077 53.0268 9.8077C52.4691 9.8077 51.937 9.89103 51.4242 10.0513C50.9114 10.2051 50.4403 10.4071 50.014 10.6538L50.2191 8.70515C50.655 8.44874 51.1422 8.25323 51.6806 8.11541C52.2255 7.97118 52.796 7.89746 53.3858 7.89746ZM53.0781 15.3333C53.4178 15.3333 53.7479 15.2532 54.0652 15.0897C54.3793 14.9198 54.6614 14.6859 54.9114 14.3846V13.2949C54.6293 13.2372 54.3537 13.1891 54.0909 13.1538C53.8249 13.1218 53.5588 13.1025 53.296 13.1025C52.8088 13.1025 52.4274 13.1859 52.155 13.3461C51.889 13.5096 51.7576 13.8013 51.7576 14.2179C51.7576 14.6121 51.8729 14.8974 52.1037 15.0769C52.3345 15.25 52.6582 15.3333 53.0781 15.3333Z" fill="white"/>
<path d="M65.8995 8.08977L66.0277 10.1667C65.7616 10.0737 65.5181 10.0064 65.2969 9.96155C65.0726 9.91026 64.8546 9.88462 64.6431 9.88462C64.2745 9.88462 63.9283 9.9936 63.6046 10.2051C63.2777 10.4103 63.0021 10.6891 62.7713 11.0385V16.7051H60.4893V8.19233H62.4251L62.6815 9.14104C63.0149 8.72438 63.3642 8.41028 63.7328 8.20515C64.0982 8.00002 64.47 7.89746 64.8482 7.89746C65.0437 7.89746 65.2328 7.91669 65.4123 7.94874C65.5918 7.97438 65.752 8.02246 65.8995 8.08977Z" fill="white"/>
<path d="M67.9221 9.80796L71.499 5.76953H71.7554V8.19259H74.3708V10.1541H71.7041V13.5002C71.7041 13.8079 71.7586 14.0707 71.8708 14.2823C71.9894 14.4874 72.1464 14.6413 72.3452 14.7438C72.5407 14.8464 72.7554 14.8977 72.9862 14.8977C73.2586 14.8977 73.5118 14.8784 73.7426 14.8336C73.9798 14.7823 74.1913 14.7278 74.3708 14.6669C74.5503 14.5996 74.6849 14.5483 74.781 14.513L74.7169 16.5515C74.4766 16.6637 74.1913 16.763 73.858 16.8592C73.5246 16.9521 73.1176 17.0002 72.64 17.0002C72.0311 17.0002 71.5182 16.9137 71.1016 16.7438C70.6817 16.5835 70.3484 16.3464 70.1016 16.0387C69.8612 15.7246 69.6849 15.3528 69.576 14.9233C69.4734 14.4874 69.4221 14.0098 69.4221 13.4874V10.1541H67.9221V9.80796Z" fill="white"/>
<path d="M86.1775 16.9999C85.6807 16.9999 85.2224 16.9486 84.8057 16.8461C84.3858 16.7435 84.0012 16.6121 83.6519 16.4486C83.2993 16.2788 82.966 16.1025 82.6519 15.923L82.639 13.3333C82.8858 13.5127 83.1551 13.6922 83.4467 13.8717C83.7352 14.0448 84.0365 14.2018 84.3442 14.3461C84.6583 14.4839 84.9724 14.5961 85.2801 14.6794C85.5877 14.7563 85.8858 14.7948 86.1775 14.7948C86.4595 14.7948 86.7095 14.7435 86.9339 14.6409C87.155 14.532 87.3313 14.3781 87.4595 14.1794C87.5877 13.9743 87.6518 13.7243 87.6518 13.423C87.6518 13.1602 87.5653 12.9358 87.3954 12.7563C87.232 12.5769 87.0012 12.4166 86.7031 12.2692C86.4018 12.1249 86.0525 11.9743 85.6518 11.8205C85.1807 11.6506 84.7576 11.4615 84.3826 11.2564C84.014 11.0512 83.6967 10.8205 83.4339 10.5641C83.1679 10.3012 82.9628 9.98714 82.8185 9.62817C82.6711 9.26278 82.6006 8.8301 82.6006 8.33331C82.6006 7.82049 82.6935 7.35895 82.8826 6.9487C83.0781 6.53845 83.3474 6.18909 83.6903 5.89743C84.0397 5.60897 84.4499 5.38461 84.9211 5.23077C85.389 5.07692 85.9018 5 86.4595 5C86.9884 5 87.5012 5.07051 87.998 5.20513C88.4916 5.34295 88.9851 5.53525 89.4723 5.78204V8.23074C89.1967 8.0192 88.889 7.83331 88.5493 7.67946C88.2159 7.51921 87.8698 7.39421 87.5108 7.30767C87.1582 7.21473 86.8249 7.16665 86.5108 7.16665C86.0236 7.16665 85.6454 7.28844 85.3826 7.52562C85.1262 7.75639 84.998 8.05126 84.998 8.41023C84.998 8.68587 85.0685 8.91022 85.2159 9.08971C85.3698 9.2692 85.5813 9.42304 85.857 9.55124C86.1294 9.67945 86.4403 9.80765 86.7929 9.93586C87.2544 10.0897 87.6839 10.2692 88.0877 10.4743C88.4884 10.673 88.8377 10.9102 89.139 11.1923C89.4467 11.4679 89.6807 11.7884 89.8441 12.1538C90.014 12.5128 90.1005 12.9358 90.1005 13.423C90.1005 13.9967 90.0012 14.5095 89.8057 14.9615C89.6069 15.407 89.3345 15.782 88.9851 16.0897C88.6326 16.3909 88.2191 16.6153 87.7416 16.7691C87.2608 16.923 86.7416 16.9999 86.1775 16.9999Z" fill="white"/>
<path d="M98.5922 8.19238H100.874V16.7051H98.9383L98.6691 15.7692C98.4191 16.0096 98.1467 16.2244 97.8486 16.4103C97.5473 16.5897 97.2364 16.7308 96.9127 16.8333C96.5954 16.9423 96.2749 17 95.9512 17C95.2909 17 94.7332 16.859 94.2717 16.5769C93.8166 16.2949 93.4704 15.8654 93.2332 15.2821C92.9929 14.6923 92.8743 13.9359 92.8743 13.0129V8.19238H95.1435V13.0257C95.1435 13.6923 95.2653 14.2019 95.5153 14.5513C95.7621 14.8942 96.1499 15.0641 96.6819 15.0641C96.9383 15.0641 97.1819 15.0192 97.4127 14.9231C97.6435 14.8205 97.8614 14.6891 98.0665 14.5257C98.2717 14.3558 98.4511 14.1667 98.605 13.9616L98.5922 8.19238Z" fill="white"/>
</svg>
