<svg width="100" height="107" viewBox="0 0 100 107" fill="none" xmlns="http://www.w3.org/2000/svg">
<g filter="url(#filter0_dd_14939_362)">
<path d="M34.0385 7.88451C34.0385 7.6922 34.0385 7.6922 34.0385 7.88451V7.88451ZM33.0769 68.846C33.0769 70.3845 34.2308 72.3076 35.5769 73.0768L75.3846 95.9614C75.9615 96.3461 76.7308 96.346 77.1154 96.1537L84.0385 92.1153C84.4231 91.923 84.8077 91.346 84.8077 90.5768L85 31.1537C85 29.6153 83.8462 27.6922 82.5 26.923L42.6923 4.03835C41.9231 3.65374 41.3462 3.65374 40.9615 3.84604L34.0385 7.6922H33.8461C33.2692 7.88451 33.0769 8.46143 33.0769 9.23066V68.846ZM34.0385 7.88451C34.0385 7.6922 34.0385 7.6922 34.0385 7.88451V7.88451Z" fill="#DEDFFB"/>
<path d="M34.0385 7.88451C34.4231 7.6922 35.1923 7.6922 35.7692 8.07681L75.5769 30.9614C76.9231 31.7307 78.0769 33.6537 78.0769 35.1922L77.8846 94.6153C77.8846 95.3845 77.6923 95.9614 77.1154 96.1537L84.0385 92.1153C84.4231 91.923 84.8077 91.346 84.8077 90.5768L85 31.1537C85 29.6153 83.8462 27.6922 82.5 26.923L42.6923 4.03835C41.9231 3.65374 41.3461 3.65374 40.9615 3.84604L34.0385 7.88451Z" fill="#DEDFFB"/>
<path d="M35.7692 8.07654C34.4231 7.30731 33.2692 7.88424 33.2692 9.4227L33.0769 68.8458C33.0769 70.3842 34.2307 72.3073 35.5769 73.0765L75.3846 95.9612C76.7307 96.7304 77.8846 96.1535 77.8846 94.615L78.0769 35.1919C78.0769 33.6535 76.9231 31.7304 75.5769 30.9612L35.7692 8.07654Z" fill="#F3F1FC"/>
<path d="M75 35.1927C75 34.6158 74.6154 33.8465 74.0385 33.4619L38.8462 13.2696C37.6923 12.5004 36.1538 13.4619 36.1538 14.8081L35.9615 68.8465C35.9615 69.4235 36.3462 70.1927 36.9231 70.5773L72.1154 90.7696C73.2692 91.5388 74.8077 90.5773 74.8077 89.2312L75 35.1927Z" fill="white"/>
<path d="M69.6154 35.7689L72.5 34.0381V25.9612C72.5 24.615 71.5385 23.0766 70.5769 22.4997L62.8846 18.0766C62.8846 15.3843 60.9615 11.9227 58.4615 10.5766C57.3077 9.80736 56.1538 9.80736 55.3846 10.192L52.3077 11.9227L46.3462 8.4612C45.7692 8.07659 45.3846 8.07659 45 8.2689L42.1154 9.99966C41.7308 10.192 41.5385 10.5766 41.5385 11.3458V19.4227L69.6154 35.7689Z" fill="#AA6256"/>
<path d="M42.1153 10.192C42.4999 9.99974 42.8846 9.99974 43.4615 10.3844L51.1538 14.8074L54.2307 13.0767L46.5384 8.65359C45.9615 8.26897 45.5769 8.26897 45.1922 8.46128L42.1153 10.192Z" fill="#AA6256"/>
<path d="M52.4999 12.1152C53.2691 11.7306 54.423 11.7306 55.5768 12.4999C57.8845 13.846 59.9999 17.3075 59.9999 19.9999L62.8845 18.2691C62.8845 15.5768 60.9614 12.1152 58.4614 10.7691C57.3076 9.99986 56.1537 9.99986 55.3845 10.3845L52.4999 12.1152Z" fill="#BF7D5A"/>
<path d="M60 20.0003L67.6923 24.4234C68.8462 25.0003 69.6154 26.5388 69.6154 27.8849V35.9618L72.5 34.2311V26.1541C72.5 24.808 71.5385 23.2695 70.5769 22.6926L62.8846 18.2695L60 20.0003Z" fill="#AA6256"/>
<path d="M55.577 12.3076C53.077 10.9615 51.1539 11.923 51.1539 14.8076L43.4616 10.3845C42.3078 9.80761 41.5386 10.3845 41.5386 11.5384V19.6153L69.6155 35.7691V27.6922C69.6155 26.3461 68.6539 24.8076 67.6924 24.2307L60.0001 19.8076C60.0001 17.1153 57.8847 13.8461 55.577 12.3076Z" fill="#DBA660"/>
<path d="M55.5768 14.8073C54.6153 14.2304 53.8461 14.8073 53.8461 15.7689C53.8461 16.9227 54.6153 18.2689 55.5768 18.6535C56.5384 19.2304 57.3076 18.8458 57.3076 17.6919C57.3076 16.7304 56.5384 15.3843 55.5768 14.8073Z" fill="white"/>
<path d="M63.4615 68.4614C62.6922 68.0768 62.3076 68.4614 62.3076 69.2307V77.8845C62.3076 78.6537 62.8845 79.6153 63.4615 79.9999L71.1538 84.2307C71.923 84.6153 72.3076 84.2307 72.3076 83.4614V74.8076C72.3076 74.0384 71.7307 73.0768 71.1538 72.6922L63.4615 68.4614Z" fill="#78E75A"/>
<path d="M63.6538 52.6919C62.8845 52.3073 62.4999 52.6919 62.4999 53.4611V62.115C62.4999 62.8842 63.0768 63.8458 63.6538 64.2304L71.1538 68.6534C71.923 69.0381 72.3076 68.6534 72.3076 67.8842V59.2304C72.3076 58.4611 71.7307 57.4996 71.1538 57.115L63.6538 52.6919Z" fill="#57B3FE"/>
<path d="M63.6538 37.1157C62.8845 36.7311 62.4999 37.1157 62.4999 37.885V46.5388C62.4999 47.308 63.0768 48.2696 63.6538 48.6542L71.1538 53.0773C71.923 53.4619 72.3076 53.0773 72.3076 52.308V43.6542C72.3076 42.885 71.7307 41.9234 71.1538 41.5388L63.6538 37.1157Z" fill="#F45170"/>
<path d="M64.2309 40.1919C64.0386 40.1919 64.0386 39.9996 63.8463 40.1919C63.654 40.3842 63.654 40.7688 63.8463 41.1535L68.4617 49.2304C68.654 49.4227 69.0386 49.8073 69.2309 49.615L70.7693 48.6535C70.9617 48.4611 70.9617 48.0765 70.7693 47.6919C70.577 47.4996 70.1924 47.115 70.0001 47.3073L68.8463 48.0765L64.6155 40.5765C64.6155 40.3842 64.4232 40.1919 64.2309 40.1919ZM64.2309 55.3842C64.0386 55.3842 64.0386 55.1919 63.8463 55.3842C63.654 55.5765 63.654 55.9611 63.8463 56.3458L68.4617 64.4227C68.654 64.615 69.0386 64.9996 69.2309 64.8073L70.7693 63.8458C70.9617 63.6535 70.9617 63.2688 70.7693 62.8842C70.577 62.6919 70.1924 62.3073 70.0001 62.4996L68.8463 63.2688L64.6155 55.7688C64.6155 55.5765 64.4232 55.3842 64.2309 55.3842ZM64.2309 71.3458C64.0386 71.3458 64.0386 71.1535 63.8463 71.3458C63.654 71.5381 63.654 71.9227 63.8463 72.3073L68.4617 80.3842C68.654 80.5765 69.0386 80.9612 69.2309 80.7688L70.7693 79.8073C70.9617 79.615 70.9617 79.2304 70.7693 78.8458C70.577 78.6535 70.1924 78.2688 70.0001 78.4612L68.8463 79.2304L64.6155 71.7304C64.6155 71.5381 64.4232 71.3458 64.2309 71.3458Z" fill="white"/>
<path d="M39.423 25.384C39.0384 25.1917 38.6538 25.384 38.6538 25.7687C38.6538 26.3456 39.0384 26.9225 39.423 27.1148L59.6153 38.8456C59.9999 39.0379 60.3845 38.8456 60.3845 38.461C60.3845 37.884 59.9999 37.3071 59.6153 37.1148L39.423 25.384ZM45.9614 34.6148C45.5768 34.4225 45.1922 34.6148 45.1922 34.9994C45.1922 35.5763 45.5768 36.1533 45.9614 36.3456L59.6153 44.6148C59.9999 44.8071 60.3845 44.6148 60.3845 44.2302C60.3845 43.8456 59.9999 43.0763 59.6153 42.884L45.9614 34.6148ZM39.423 41.3456C39.0384 41.1533 38.6538 41.3456 38.6538 41.7302C38.6538 42.1148 39.0384 42.884 39.423 43.0763L59.6153 54.8071C59.9999 54.9994 60.3845 54.8071 60.3845 54.4225C60.3845 53.8456 59.9999 53.2687 59.6153 53.0763L39.423 41.3456ZM45.9614 50.5763C45.5768 50.384 45.1922 50.5763 45.1922 50.961C45.1922 51.3456 45.5768 52.1148 45.9614 52.3071L59.6153 60.5763C59.9999 60.7687 60.3845 60.5763 60.3845 60.1917C60.3845 59.6148 59.9999 59.0379 59.6153 58.8456L45.9614 50.5763ZM39.423 57.4994C39.0384 57.3071 38.6538 57.4994 38.6538 57.884C38.6538 58.461 39.0384 59.0379 39.423 59.2302L59.6153 70.961C59.9999 71.1533 60.3845 70.961 60.3845 70.5764C60.3845 70.1917 59.9999 69.4225 59.6153 69.2302L39.423 57.4994ZM45.9614 66.7302C45.5768 66.5379 45.1922 66.7302 45.1922 67.1148C45.1922 67.4994 45.5768 68.2687 45.9614 68.461L59.6153 76.7302C59.9999 76.9225 60.3845 76.7302 60.3845 76.3456C60.3845 75.961 59.9999 75.1917 59.6153 74.9994L45.9614 66.7302Z" fill="#DEDFFB"/>
</g>
<defs>
<filter id="filter0_dd_14939_362" x="-6" y="-2" width="112" height="112" filterUnits="userSpaceOnUse" color-interpolation-filters="sRGB">
<feFlood flood-opacity="0" result="BackgroundImageFix"/>
<feColorMatrix in="SourceAlpha" type="matrix" values="0 0 0 0 0 0 0 0 0 0 0 0 0 0 0 0 0 0 127 0" result="hardAlpha"/>
<feMorphology radius="2" operator="erode" in="SourceAlpha" result="effect1_dropShadow_14939_362"/>
<feOffset dy="2"/>
<feGaussianBlur stdDeviation="2"/>
<feColorMatrix type="matrix" values="0 0 0 0 0.0627451 0 0 0 0 0.0941176 0 0 0 0 0.156863 0 0 0 0.06 0"/>
<feBlend mode="normal" in2="BackgroundImageFix" result="effect1_dropShadow_14939_362"/>
<feColorMatrix in="SourceAlpha" type="matrix" values="0 0 0 0 0 0 0 0 0 0 0 0 0 0 0 0 0 0 127 0" result="hardAlpha"/>
<feMorphology radius="2" operator="erode" in="SourceAlpha" result="effect2_dropShadow_14939_362"/>
<feOffset dy="4"/>
<feGaussianBlur stdDeviation="4"/>
<feColorMatrix type="matrix" values="0 0 0 0 0.0627451 0 0 0 0 0.0941176 0 0 0 0 0.156863 0 0 0 0.1 0"/>
<feBlend mode="normal" in2="effect1_dropShadow_14939_362" result="effect2_dropShadow_14939_362"/>
<feBlend mode="normal" in="SourceGraphic" in2="effect2_dropShadow_14939_362" result="shape"/>
</filter>
</defs>
</svg>
