<svg width="106" height="101" viewBox="0 0 106 101" fill="none" xmlns="http://www.w3.org/2000/svg">
<g filter="url(#filter0_dd_14939_34)">
<path d="M97.7885 45.6906C97.6923 45.633 97.5769 45.5945 97.4616 45.5945C97.6346 45.6329 97.7885 45.6906 97.9231 45.7676C97.8846 45.7291 97.8462 45.7099 97.7885 45.6906ZM95.8173 45.7233C96.4096 45.5118 96.9673 45.4695 97.4616 45.5945C96.9789 45.456 96.4212 45.5041 95.8173 45.7233Z" fill="#4C5C75"/>
<path d="M20.5192 66.5554V70.8823L49.173 87.4015L99.1538 58.4208L99.1346 48.3631C99.1153 47.0746 98.6538 46.1707 97.923 45.7669C97.7884 45.69 97.6346 45.6323 97.4615 45.5938C96.9653 45.4688 96.4096 45.5111 95.8173 45.7227C96.4192 45.5034 96.9788 45.4534 97.4615 45.5938C97.5769 45.5938 97.6903 45.6323 97.7865 45.69L69.3057 29.2477C68.575 28.8246 67.5557 28.9015 66.4403 29.5361C66.2865 29.6323 66.1134 29.7284 65.9596 29.8438L24.0365 59.94C22.0173 61.3823 20.5 64.2284 20.5192 66.5554Z" fill="#4C5C75"/>
<path d="M97.7885 45.6906C97.6923 45.633 97.5769 45.5945 97.4616 45.5945C97.6346 45.6329 97.7885 45.6906 97.9231 45.7676C97.8846 45.7291 97.8462 45.7099 97.7885 45.6906ZM95.8173 45.7233C96.4096 45.5118 96.9673 45.4695 97.4616 45.5945C96.9789 45.456 96.4212 45.5041 95.8173 45.7233Z" fill="#1D2943"/>
<path d="M20.5116 66.5632L20.525 70.8824L49.1731 87.4074L49.1635 83.0921C49.1539 80.7517 50.6692 77.9055 52.6846 76.4574L94.6 46.3767C94.7599 46.262 94.9255 46.1554 95.0962 46.0574C96.2 45.417 97.2173 45.3536 97.9539 45.7824L69.3058 29.2536C68.5692 28.8267 67.5519 28.8901 66.4442 29.5286C66.2846 29.6247 66.1173 29.7286 65.9519 29.8517L24.0366 59.9286C22.0173 61.3786 20.5058 64.2267 20.5116 66.5632Z" fill="#4C5C75"/>
<path d="M24.6019 60.7189L66.5346 30.6304C66.6615 30.5377 66.793 30.4517 66.9289 30.3727C67.4039 30.0977 67.8596 29.9535 68.2442 29.9535C68.4458 29.9483 68.6451 29.9974 68.8212 30.0958L94.8212 45.0997C94.7539 45.1362 94.6827 45.1747 94.6154 45.215C94.4212 45.3247 94.2308 45.4497 94.0327 45.59L52.1173 75.667C49.8327 77.3112 48.1789 80.4343 48.1885 83.0939L48.1962 85.7227L21.4923 70.3189L21.4808 66.5612C21.475 64.5458 22.8462 61.9804 24.6 60.7189H24.6019Z" fill="#1D2943"/>
<path d="M95.0961 46.0574C94.9327 46.1536 94.7673 46.2594 94.6 46.3786L52.6846 76.4574C50.6673 77.9074 49.1557 80.7536 49.1615 83.0921L49.173 87.4074L99.1538 58.4132L99.1269 48.3632C99.1192 45.7805 97.2827 44.7959 95.0961 46.0574ZM24.3461 65.7324C24.7596 65.519 25.3154 65.5671 25.9134 65.9382L42.0403 75.9498C43.2365 76.7036 44.1711 78.4401 44.1173 79.8498C44.0942 80.5478 43.8288 81.0324 43.425 81.2478L44.1846 80.8382C44.5884 80.6228 44.8557 80.1382 44.8769 79.4401C44.9327 78.0305 43.9961 76.294 42.8 75.5478L26.675 65.5286C26.0769 65.1574 25.5211 65.1094 25.1077 65.3228L24.3461 65.7324Z" fill="#1D2943"/>
<path d="M25.9153 65.9424C24.7192 65.1981 23.7038 65.727 23.6538 67.1347C23.6019 68.5404 24.5384 70.2847 25.7346 71.0289L41.8557 81.0404C43.0557 81.7885 44.0672 81.2558 44.1192 79.8481C44.1692 78.4424 43.2384 76.7 42.0365 75.9539L25.9153 65.9424Z" fill="#4C5C75"/>
<path d="M24.3846 67.1653C24.3827 67.2653 24.3885 67.3768 24.3961 67.4883C24.465 68.0798 24.6598 68.6496 24.9673 69.1595C25.0096 69.2268 25.0404 69.2845 25.0827 69.3422C25.348 69.7664 25.7023 70.128 26.1211 70.4018L26.6442 70.7326L32.4442 74.3153L35.3865 76.1518L37.2769 77.3306L37.9019 77.7191L38.6019 78.1556L40.4827 79.323L41.7942 80.1345L42.2423 80.4172C42.4259 80.5422 42.6384 80.6183 42.8596 80.6383C43.2942 80.6537 43.3673 80.1306 43.3885 79.8191C43.3916 79.6471 43.3787 79.4752 43.35 79.3056C43.2865 78.8903 43.1327 78.4403 42.9115 78.0287V78.0191C42.5981 77.4172 42.1461 76.8883 41.6423 76.5826L41.6 76.5576L40.2654 75.721L36.4923 73.3768L33.5615 71.5499L25.5327 66.5672C25.3485 66.4419 25.1353 66.3658 24.9135 66.346C24.4788 66.3307 24.3942 66.8537 24.3846 67.1653Z" fill="#1D2943"/>
<path d="M24.3845 67.1652C24.3831 67.3053 24.3908 67.4453 24.4075 67.5844C24.4866 68.1407 24.6763 68.6756 24.9652 69.1575C25.0075 69.2267 25.0402 69.2863 25.0806 69.3421C25.371 69.7863 25.7248 70.1556 26.1191 70.3998L26.646 70.7325L32.446 74.3152L35.3845 76.1536L35.6479 76.3171L37.2768 77.3306L37.8998 77.719L38.1306 77.8613L38.6018 78.1556L40.3999 79.271L40.4037 79.2748L40.4806 79.3229L41.7941 80.1344L41.9998 80.2652L42.2402 80.419C42.5383 80.5921 42.7364 80.6363 42.8614 80.6383C43.2941 80.6537 43.3691 80.1325 43.3883 79.821C43.3909 79.7053 43.3851 79.5896 43.371 79.4748C43.3691 79.4171 43.3595 79.3613 43.3518 79.3056C43.2864 78.8883 43.1325 78.4402 42.9114 78.0286V78.019C42.8897 77.9746 42.8653 77.9316 42.8383 77.8902C42.8383 77.8844 42.8325 77.8748 42.8306 77.871C42.5229 77.3287 42.1056 76.8633 41.6441 76.5825L41.5979 76.5575L40.2652 75.7229L36.8652 73.6094L36.4922 73.3786L33.5614 71.5517L32.5229 70.9094L29.0614 68.7556L25.8383 66.7556L25.5306 66.5671C25.348 66.4415 25.136 66.3653 24.9152 66.346C24.4787 66.3325 24.3941 66.8536 24.3845 67.1652Z" fill="#1D2943"/>
<path d="M6.846 78.2288V80.1327C6.846 80.4404 7.05754 80.7288 7.46138 80.9596L22.6152 89.7865C23.4229 90.248 24.7114 90.248 25.5383 89.7673C25.5575 89.7673 25.6729 89.6904 25.7306 89.6711C26.5575 89.1711 30.1922 87.075 43.3652 79.4788C43.3652 79.4211 43.3652 79.3634 43.346 79.3057C43.2883 78.8827 43.1345 78.4404 42.9037 78.0365V78.0173C42.8845 77.9788 42.8652 77.9403 42.846 77.8827C42.846 77.8827 42.8268 77.8827 42.8268 77.8634C42.5191 77.325 42.1152 76.8634 41.6537 76.575L41.596 76.5557C31.1537 70.075 25.846 66.7673 25.846 66.748C11.4998 75.0365 8.36523 76.8442 7.82677 77.1711C7.82677 77.1711 7.82677 77.1519 7.80754 77.1711H7.78831L7.76908 77.1904H7.74985C7.69216 77.2288 7.596 77.2865 7.46138 77.3634C7.05754 77.6134 6.846 77.9019 6.846 78.2288Z" fill="#DBA660"/>
<path d="M6.84609 78.2307V80.1384C6.84609 80.4442 7.05379 80.7345 7.45571 80.9672L22.6096 89.7846C23.4134 90.2576 24.7134 90.2576 25.5288 89.773L43.3711 79.4749C43.3692 79.4172 43.3596 79.3615 43.3519 79.3057C43.2865 78.8884 43.1326 78.4403 42.9115 78.0288V78.0192C42.8898 77.9747 42.8654 77.9317 42.8384 77.8903C42.8384 77.8846 42.8326 77.8749 42.8307 77.8711L42.2346 78.2153C24.798 88.2826 51.4961 72.873 25.5153 87.8615C24.7134 88.3307 23.4134 88.3307 22.6115 87.8615L7.44225 79.0596C7.0384 78.8249 6.84609 78.5192 6.84609 78.2307Z" fill="#AA6256"/>
<path d="M6.8462 78.2309C6.8462 78.5194 7.03851 78.8251 7.44235 79.0578L22.6097 87.8617C23.4135 88.3309 24.7135 88.3309 25.5154 87.8617L42.2347 78.2155L42.8308 77.8694C42.5231 77.329 42.1058 76.8636 41.6443 76.5809L41.5981 76.5578L25.8385 66.7578L7.45581 77.3713C7.05389 77.6059 6.84812 77.9097 6.84812 78.229L6.8462 78.2309Z" fill="#DBA660"/>
<g opacity="0.3">
<path d="M16.477 73.6364C16.3789 73.6922 16.327 73.7325 16.327 73.7691C16.3693 74.0633 16.0443 74.2902 16.0077 74.5749C15.9981 74.6652 15.8731 74.7441 16.0673 74.8229C16.1473 74.8583 16.2347 74.8735 16.3219 74.8672C16.4091 74.8608 16.4934 74.833 16.5673 74.7864C16.6366 74.7422 16.6808 74.721 16.7404 74.6864C16.8558 74.8018 16.9981 74.9056 17.0193 75.0037C17.025 75.0191 17.0096 75.0345 16.9827 75.0498C16.9231 75.0845 16.802 75.1191 16.752 75.1441C16.625 75.0902 16.5731 75.0556 16.502 75.0498C16.1558 75.0345 15.8173 75.0172 15.4596 75.0075C15.4462 75.0845 15.427 75.1556 15.3962 75.2345C15.45 75.2999 15.4558 75.3499 15.3923 75.3883C15.2673 75.7691 15.2116 76.1441 15.1981 76.5152C15.1923 76.6402 15.1923 76.7614 15.1904 76.8825C15.2039 77.0075 15.1981 77.1325 15.2154 77.2575C15.2265 77.3805 15.2419 77.503 15.2616 77.6249C15.2789 77.7056 15.2904 77.7845 15.3077 77.8614C15.3366 78.0306 15.3846 78.1999 15.427 78.3614C15.4539 78.4268 15.475 78.5018 15.4962 78.5652C15.6981 79.1287 15.975 79.6806 16.3481 80.2133C16.6723 80.6935 17.0462 81.1383 17.4635 81.5402C17.9811 82.0462 18.548 82.4991 19.1558 82.8922L19.7673 82.9306L19.9827 82.9402C20.3193 82.8518 20.5289 82.9883 20.7462 83.1095C20.9039 83.1902 21.0423 83.2825 21.227 83.3325C21.4484 83.3957 21.6852 83.3773 21.8943 83.2806C22.0116 83.2133 21.952 83.1306 21.7558 82.9999C21.3308 82.721 20.9596 82.421 20.8173 82.0633L20.7981 81.9652C20.9943 81.7095 20.7423 81.4768 20.5673 81.2383C20.5346 81.1883 20.552 81.1056 20.6058 81.0652C20.777 80.946 20.9731 80.8383 21.1539 80.7191C21.2404 80.6479 21.4077 80.5883 21.2693 80.4614C21.2423 80.4364 21.3308 80.3652 21.3789 80.321C21.6289 80.1575 21.7385 79.9768 21.5866 79.7325C21.5481 79.6633 21.6827 79.5691 21.75 79.4825L21.8654 79.4902C22.0077 79.7056 22.202 79.921 22.2923 80.1422C22.327 80.2229 22.3116 80.2806 22.2481 80.3191C22.1577 80.3691 21.9731 80.3825 21.6885 80.3652C21.692 80.4566 21.7004 80.5478 21.7135 80.6383C21.752 80.7768 21.8558 80.8691 22.1308 80.871C22.2058 80.8729 22.302 80.8941 22.3423 80.9325C22.5981 81.1249 22.9116 81.121 23.2404 81.0575C23.5039 81.0018 23.7827 80.9325 24.0462 80.8768C24.2193 80.8402 24.4231 80.8152 24.6808 80.7729C24.7731 80.7037 24.7693 80.5902 24.6039 80.4691C24.5346 80.4229 24.5039 80.3652 24.4693 80.3037C24.3154 80.1095 24.1693 79.9114 24.0481 79.7037C24.0058 79.6383 23.9904 79.5691 23.975 79.5037L23.95 79.4422C23.9362 79.3705 23.8998 79.3051 23.8462 79.2556C23.7673 79.1749 23.6327 79.1114 23.5366 79.0306C23.4791 78.9725 23.4397 78.8991 23.4231 78.8191C23.4289 78.7749 23.5116 78.7306 23.552 78.6883C23.625 78.721 23.725 78.7441 23.7635 78.7825C23.9135 78.9383 24.052 79.1018 24.1866 79.2614C24.293 79.3737 24.4047 79.4808 24.5212 79.5825C24.6289 79.7056 24.752 79.8287 24.8385 79.9537C24.9846 80.1768 25.0808 80.4095 25.2039 80.6402C25.2808 80.7999 25.1596 80.9287 24.9731 81.0364C24.8885 81.0864 24.7866 81.1325 24.6866 81.171L24.6212 81.2018C24.5673 81.2325 24.525 81.2749 24.477 81.3095C24.5731 81.3479 24.6693 81.3902 24.777 81.4229C25.0077 81.4768 25.2443 81.5114 25.4712 81.5729C25.9615 81.7023 26.4723 81.735 26.975 81.6691C27.4904 81.5922 27.8443 81.6652 28.1866 81.9479C28.3885 82.1037 28.5712 82.2652 28.75 82.4306C29.0366 82.7095 29.6923 82.9172 30.1981 82.8518C30.5657 82.7913 30.9427 82.8658 31.2596 83.0614C31.4943 83.2037 31.8827 83.2614 32.202 83.3556C32.35 83.3941 32.5077 83.4249 32.652 83.4729C32.7673 83.5114 32.8904 83.5479 33.0039 83.5729L34.4866 82.7172C34.3404 82.4845 34.2308 82.2787 34 82.1037C33.6404 81.8018 33.3231 81.4864 32.9173 81.1999C32.552 80.9306 32.0981 80.6999 31.6673 80.4633C31.2885 80.2729 31.2596 80.0075 31.102 79.771C30.9904 79.6133 30.9154 79.4979 30.602 79.4441C30.4193 79.4133 30.2481 79.2902 30.1058 79.1941C30.0673 79.1672 30.1193 79.0768 30.1635 79.0345C30.2596 78.9652 30.352 78.9268 30.3077 78.8037C30.2808 78.7345 30.3193 78.6825 30.3885 78.6441C30.4861 78.5967 30.5896 78.5624 30.6962 78.5422C30.9904 78.4595 31.2923 78.3806 31.5173 78.2499C31.6317 78.189 31.7285 78.0995 31.7981 77.9902C31.952 77.7345 32.1173 77.4729 31.825 77.1864C31.7731 77.1306 31.7654 77.0556 31.7558 76.9902C31.7539 76.7499 31.5443 76.5614 31.2173 76.4075C30.8904 76.2575 30.4866 76.1537 30.2943 75.9075C30.2635 75.8691 30.0635 75.8633 29.9366 75.8499C29.7789 75.8306 29.6039 75.8402 29.4462 75.8056C29.2673 75.7672 29.1058 75.7037 28.9173 75.7672L28.7635 75.7595C28.5866 75.6191 28.3327 75.6306 28.102 75.6114L27.9923 75.5902C27.7539 75.4518 27.5616 75.4691 27.402 75.5614C27.3635 75.5825 27.327 75.6095 27.2923 75.6383C27.1711 75.5738 27.0363 75.5387 26.899 75.536C26.7616 75.5334 26.6256 75.5631 26.502 75.6229C26.4366 75.6499 26.3481 75.6749 26.2789 75.696C26.1462 75.7364 26.0096 75.7633 25.8712 75.8056L25.7231 75.8306C25.377 75.9941 25.0308 76.1633 24.6231 76.3537C24.8231 76.4191 24.975 76.4787 25.1289 76.5152C25.3731 76.5825 25.377 76.6191 25.2712 76.746C25.127 76.8998 25.0635 77.0825 24.9827 77.2556C24.9635 77.3133 24.9789 77.3787 24.975 77.4422C24.9659 77.474 24.9454 77.5014 24.9173 77.5191C24.877 77.5441 24.8135 77.5402 24.7212 77.4999C24.4885 77.3999 24.3789 77.3652 24.2943 77.4133C24.2357 77.4559 24.1882 77.512 24.1558 77.5768C23.9948 77.8148 23.7783 78.0102 23.525 78.146C23.4385 78.196 23.3443 78.2441 23.2423 78.2902C23.0808 78.3691 22.902 78.3864 22.6846 78.3306C22.4962 78.2691 22.3 78.2152 22.1346 78.1441C21.9327 78.0595 21.9231 77.9787 22.0654 77.8979C22.2566 77.8124 22.4433 77.7174 22.625 77.6133C22.7981 77.5133 22.7596 77.3999 22.6116 77.2787C22.5314 77.2241 22.4666 77.15 22.4231 77.0633C22.4077 77.0056 22.4731 76.9537 22.4943 76.9056C22.6 76.9249 22.7135 76.9422 22.7654 76.9768C22.9481 77.1133 23.1404 77.1191 23.4116 77.0787C23.2693 76.9133 23.1462 76.7614 22.9981 76.6152C22.8596 76.4941 22.8481 76.3941 23 76.2902C23.1673 76.1787 23.2827 76.0633 23.0327 75.9075C22.9943 75.8806 23.0481 75.8037 23.0904 75.7499C23.3404 75.8941 23.3404 76.046 23.2673 76.2075C23.2096 76.3306 23.3289 76.4095 23.4885 76.4941C23.6423 76.5575 23.7962 76.6287 23.927 76.5633C23.8116 76.4287 23.677 76.3133 23.6096 76.1922C23.5712 76.1191 23.6135 76.0325 23.6327 75.9614L23.7154 75.8575C23.8358 75.637 24.0221 75.4595 24.2481 75.3499L24.4443 75.3018C24.7539 75.3229 25.0481 75.3556 25.3404 75.3845C25.602 75.4095 25.8827 75.4345 26.0827 75.571L26.227 75.5941C26.227 75.4902 26.2654 75.4172 26.3462 75.3691C26.4179 75.3322 26.4965 75.3106 26.577 75.3056C26.6346 75.2075 26.6712 75.121 26.7193 75.0172C26.575 74.9537 26.4058 74.8749 26.2308 74.7999C26.1654 74.7672 26.0654 74.7345 26.025 74.6845C25.927 74.5556 25.8212 74.546 25.6846 74.6095L25.6327 74.6402C25.616 74.6547 25.598 74.6676 25.5789 74.6787C25.5346 74.7037 25.4827 74.7229 25.4308 74.746C25.077 74.8999 24.9981 74.8902 24.6443 74.6999C24.4962 74.6249 24.4 74.5595 24.3789 74.4345C24.3635 74.3075 24.175 74.296 24.0135 74.3575C23.906 74.4068 23.7894 74.433 23.6712 74.4345C23.3374 74.4284 23.0038 74.4111 22.6712 74.3825C22.5224 74.3614 22.3712 74.3994 22.25 74.4883C22.2336 74.5011 22.2162 74.5127 22.1981 74.5229C22.0712 74.596 21.9308 74.5806 21.7789 74.4941C21.6385 74.4018 21.4827 74.321 21.2693 74.2325C21.2885 74.2999 21.3154 74.3672 21.3327 74.4268C21.3846 74.6325 21.2481 74.8268 21.0096 74.9652C20.7651 75.0971 20.4913 75.1652 20.2135 75.1633C19.9308 75.1672 19.6366 75.2152 19.3481 75.1191C19.3096 75.1056 19.2135 75.1422 19.1616 75.1614C18.9366 75.271 18.5923 75.2383 18.3577 75.0556L19.2077 74.696C19.2173 74.5595 18.9635 74.4172 18.5404 74.3633C18.3789 74.3518 18.2077 74.3345 18.0731 74.2902C17.9943 74.2652 17.9558 74.1864 17.9 74.1287C17.9904 74.121 18.0693 74.0902 18.1616 74.0922C18.4193 74.0999 18.6731 74.1114 18.927 74.1402C19.302 74.1864 19.6558 74.2864 19.952 74.4575C20.1468 74.5642 20.3533 74.648 20.5673 74.7075C20.671 74.7277 20.7783 74.7183 20.877 74.6806C20.9116 74.6614 20.8558 74.571 20.8346 74.5191C20.8096 74.3652 20.7577 74.2191 20.777 74.0729C20.8346 74.0306 21.002 74.0133 21.1039 73.9902C21.1808 73.971 21.3212 73.9633 21.3635 73.9402C21.402 73.8787 21.3443 73.7845 21.275 73.7479C21.0577 73.6383 20.8346 73.5383 20.6 73.4518C20.4943 73.4172 20.3558 73.4229 20.2231 73.4172C19.8827 73.4268 19.5385 73.4441 19.1885 73.4441C19.0789 73.4441 18.952 73.3883 18.8346 73.3672C18.7193 73.3479 18.6039 73.3287 18.4808 73.3133C18.3635 73.2999 18.2173 73.3075 18.127 73.271C17.6943 73.1172 17.402 73.2441 17.0981 73.3672C16.8981 73.4556 16.675 73.5441 16.477 73.6364Z" fill="#F8F9FE"/>
<g opacity="0.5">
<path d="M35.5095 77.0232C35.4961 77.1212 35.5768 77.2328 35.7307 77.2866C35.8252 77.3412 35.9288 77.3783 36.0365 77.3962C36.0749 77.3962 36.1038 77.4116 36.1461 77.4251H36.1749C36.2711 77.4386 36.3826 77.4828 36.4788 77.4962C36.5595 77.5097 36.6845 77.5501 36.7557 77.5347C37.1153 77.4251 37.3518 77.5789 37.5999 77.6597C37.7845 77.7309 37.9422 77.8155 38.1288 77.8616C38.2495 77.8948 38.3752 77.9059 38.4999 77.8943L38.7076 77.8809C38.9576 77.7309 39.2865 77.8424 39.5499 77.7982C39.6191 77.7847 39.7288 77.827 39.7711 77.8559C40.1071 78.072 40.5131 78.1512 40.9057 78.077C41.0018 78.0616 41.0999 78.077 41.1845 78.0905C41.4595 78.1578 41.6134 78.1578 41.7365 78.077C41.8134 78.0418 41.8773 77.9832 41.9192 77.9097L41.9576 77.8559L42.0691 77.8405C42.0961 77.9366 42.1922 78.0328 42.1826 78.1193C42.1922 78.1578 42.2076 78.202 42.2345 78.2155C42.2345 78.2289 42.2345 78.2289 42.2499 78.2289L42.8384 77.8905C42.8384 77.8847 42.8326 77.8751 42.8307 77.8712C42.523 77.3289 42.1057 76.8636 41.6441 76.5828L41.598 76.5578L40.2653 75.7232L36.8653 73.6097C36.8326 73.6674 36.7845 73.7174 36.7268 73.7578C36.6845 73.7712 36.6691 73.7866 36.6461 73.8001C36.2845 74.0078 36.1615 74.3232 36.4345 74.602C36.5211 74.6866 36.5345 74.7559 36.4345 74.8116C36.4095 74.8366 36.3672 74.8501 36.2961 74.8655C36.2576 74.8789 36.2153 74.8924 36.1749 74.9232C35.9653 75.0462 35.9115 75.2674 36.1038 75.4059C36.3538 75.5982 36.3538 75.752 36.1191 75.8905C36.0768 75.9155 36.023 75.9289 35.9653 75.9578C35.9518 75.9732 35.9268 75.9732 35.9115 75.9866C35.8538 76.0289 35.8134 76.0693 35.773 76.0962C35.7228 76.1648 35.6809 76.2391 35.648 76.3174C35.5442 76.552 35.5326 76.7905 35.5095 77.0232ZM28.8365 70.9193C28.923 70.9059 29.0038 70.8809 29.1153 70.8655C29.4615 70.8097 29.8191 70.7674 30.1807 70.7001C30.6095 70.6424 30.998 70.6712 31.3018 70.8924C31.398 70.9616 31.4961 70.9501 31.6076 70.8924C31.6615 70.8655 31.7172 70.8386 31.7845 70.8097C31.9807 70.7136 32.1595 70.7001 32.3422 70.8386C32.3917 70.8849 32.4571 70.9104 32.5249 70.9097L29.0615 68.7559C29.0392 68.7807 29.0225 68.81 29.0125 68.8419C29.0026 68.8737 28.9996 68.9074 29.0038 68.9405C29.0038 69.0655 28.9076 69.2039 28.8653 69.3443C29.0038 69.4136 29.173 69.4809 29.3076 69.5501L29.2691 69.6482L28.5884 69.5635L28.5345 69.6212C28.923 70.0078 29.0461 70.4078 28.8365 70.9193Z" fill="#F8F9FE"/>
</g>
</g>
<path d="M21.6866 85.3941L23.3635 86.3691L27.0251 84.2537L25.3481 83.2806L21.6866 85.3941ZM26.927 82.3691L28.6039 83.3441L32.2654 81.2287L30.5885 80.2537L26.927 82.3691ZM32.1712 79.3402L33.8481 80.3152L37.5058 78.2037L35.8289 77.2287L32.1712 79.3402ZM37.4135 76.3152L39.0885 77.2883L41.0039 76.1844L40.2654 75.7229L39.3866 75.1768L37.4135 76.3152Z" fill="#F8F9FE"/>
<path d="M14.2538 78.5116L13.1653 77.877L11.9057 78.6059L12.9961 79.2385L14.2538 78.5116ZM11.0057 77.2635C10.6153 77.4885 10.6172 77.8559 11.0057 78.0809L11.5441 78.3943L12.8038 77.6674L11.5576 76.9443L11.0057 77.2635ZM15.3711 76.6059L16.4595 77.2385L17.7134 76.5135L16.6249 75.8809L15.3711 76.6059Z" fill="#FFD06C"/>
<path d="M13.3942 75.8843L17.6942 78.3824L18.0634 78.1709L16.8211 77.4478L18.075 76.7228L17.7134 76.5132L16.4596 77.2382L15.3711 76.6036L16.6249 75.8805L16.2634 75.6689L15.0096 76.3939L13.7634 75.6709L13.3942 75.8843Z" fill="#FEBC1F"/>
<path d="M15.8577 79.4424L14.6154 78.7213L13.3577 79.4482L13.8961 79.7617C14.1147 79.8737 14.3568 79.9325 14.6024 79.9331C14.8481 79.9338 15.0904 79.8764 15.3096 79.7655L18.6115 77.8578C19.0019 77.6328 19.0038 77.2617 18.6154 77.0386L18.0769 76.7232L16.8211 77.4482L18.0634 78.1693L17.6942 78.3809L13.3942 75.8828L11.9211 76.7347L16.2211 79.2347L15.8577 79.4424Z" fill="#FFD06C"/>
<path d="M13.7634 75.6713L15.0096 76.3943L16.2634 75.6713L15.725 75.3559C15.5053 75.2445 15.2626 75.1865 15.0163 75.1865C14.7701 75.1865 14.5273 75.2445 14.3077 75.3559L13.7634 75.6713Z" fill="#FFD06C"/>
<path d="M11.5578 76.942L12.8039 77.667L11.5443 78.394L11.902 78.6055L13.1655 77.8786L14.2539 78.5113L12.9962 79.2382L13.352 79.4497L14.6155 78.7209L15.8578 79.442L16.2231 79.2324L11.9212 76.7324L11.5578 76.942Z" fill="#FEBC1F"/>
<path d="M88.3115 42.7691C88.8807 43.1057 88.8923 43.7537 88.3327 44.2191C87.775 44.6845 86.8596 44.7903 86.2884 44.4538L69.1961 34.3903C68.6288 34.0557 68.6192 33.4076 69.1769 32.9422C69.7365 32.4749 70.65 32.3711 71.2192 32.7057L88.3115 42.7691Z" fill="#E3E7F0"/>
<path d="M87.0692 44.2195C87.427 44.2252 87.776 44.1077 88.0576 43.8868C88.2307 43.7426 88.3249 43.5772 88.3134 43.433C88.3018 43.2926 88.1865 43.1965 88.0922 43.1407L70.9999 33.0791C70.8281 32.9867 70.6354 32.9397 70.4403 32.9426C70.0833 32.9365 69.735 33.0533 69.4538 33.2734C69.2807 33.4195 69.1845 33.5849 69.198 33.7311C69.2076 33.8695 69.323 33.9657 69.4153 34.0195L86.5076 44.083C86.6803 44.175 86.8736 44.2232 87.0692 44.2195Z" fill="#1D2943"/>
<path d="M69.1961 33.7305C69.2095 33.869 69.3211 33.9652 69.4153 34.019L70.2307 34.5017L86.5076 44.0805L86.5422 44.0998C86.7061 44.1802 86.8866 44.221 87.0691 44.219C87.4268 44.2291 87.7764 44.1119 88.0557 43.8882C88.2326 43.7421 88.3249 43.5767 88.3134 43.4325C88.3018 43.2921 88.1864 43.1959 88.0903 43.1402L87.2326 42.6363L86.5518 42.2363L70.9999 33.0786C70.8282 32.9859 70.6354 32.9395 70.4403 32.944C70.373 32.9421 70.3057 32.944 70.2403 32.9555C69.9523 32.9828 69.6784 33.093 69.4518 33.2729C69.2788 33.419 69.1864 33.5844 69.1961 33.7305Z" fill="#9EA9C9"/>
<path d="M44.8558 47.9963L68.9904 61.8328L89.1635 47.3463L65.0288 33.5078L44.8558 47.9963Z" fill="#4C5C75"/>
<path d="M51.7115 44.2887L73.9269 57.0252L87.2731 47.4406L65.0577 34.7021L51.7115 44.2887Z" fill="#57B3FE"/>
<path d="M86.5422 47.4785L85.5095 48.2189L65.0788 36.4862L65.0903 35.165L86.5422 47.4785Z" fill="#5094FF"/>
<path d="M65.0903 35.165L65.0788 36.4862L53.4499 44.8285L52.4307 44.2477L65.0903 35.165Z" fill="#3D7CEA"/>
<path d="M85.5095 48.219L73.8999 56.5594L53.4499 44.8286L65.0788 36.4863L85.5095 48.219Z" fill="#497BFE"/>
<path d="M55.3269 51.575C55.3269 51.6135 55.3269 51.6327 55.3461 51.6327L55.5384 52.9212C55.5576 53.0943 55.6538 53.2481 55.8461 53.3635L60.6153 56.1519C61.0384 56.4019 61.7307 56.3635 62.1538 56.0366L64.1346 54.5558C64.3846 54.3827 64.4807 54.1519 64.4615 53.9404L64.2499 52.6519C64.2499 52.4596 64.1346 52.3058 63.923 52.1712L59.173 49.3635C58.7307 49.1135 58.0384 49.1712 57.6153 49.4789L55.6346 50.9789C55.4038 51.1519 55.2884 51.3827 55.3269 51.575Z" fill="#78E75A"/>
<path d="M55.3249 51.5791L55.5345 52.9253C55.5557 53.0906 55.6615 53.2464 55.8518 53.3579L60.6115 56.1579C61.0403 56.4099 61.7345 56.356 62.1615 56.0349L64.1384 54.5541C64.3768 54.3753 64.4788 54.1503 64.4518 53.9445L64.2442 52.5983C64.273 52.806 64.1672 53.0291 63.9288 53.2079L61.9557 54.6887C61.5288 55.0099 60.8307 55.0637 60.4018 54.8118L55.6461 52.0118C55.4538 51.8983 55.3461 51.7426 55.3249 51.5791Z" fill="#5EC363"/>
<path d="M63.923 52.1653C64.3538 52.4192 64.3577 52.8865 63.9288 53.2057L61.9557 54.6865C61.5269 55.0096 60.8307 55.0634 60.4019 54.8096L55.6442 52.0096C55.2153 51.7557 55.2115 51.2903 55.6403 50.9711L57.6134 49.4884C58.0423 49.1673 58.7384 49.1115 59.1673 49.3653L63.923 52.1653Z" fill="#78E75A"/>
<path d="M48.7883 47.3831L48.9229 48.287C48.9422 48.4023 49.0191 48.5177 49.1345 48.5947L52.3845 50.4985C52.6922 50.6716 53.1537 50.6331 53.4422 50.4216L54.7883 49.4023C54.9614 49.287 55.0383 49.1331 55.0191 48.9793L54.8652 48.1331C54.8845 47.9985 54.8076 47.8639 54.6537 47.7677L51.4037 45.8639C51.1152 45.6908 50.6345 45.7293 50.346 45.9408L48.9999 46.96C48.7883 47.1139 48.7306 47.3446 48.846 47.5177C48.8076 47.4793 48.7883 47.4216 48.7883 47.3831Z" fill="#FFD06C"/>
<path d="M48.7826 47.373L48.9269 48.2923C48.9403 48.4038 49.0134 48.5096 49.1423 48.5865L52.3903 50.5C52.558 50.5823 52.7447 50.6178 52.9308 50.6029C53.1169 50.5881 53.2956 50.5232 53.448 50.4154L54.7961 49.4038C54.9596 49.2827 55.0288 49.1307 55.0096 48.9884L54.8692 48.0692C54.8884 48.2115 54.8173 48.3634 54.6538 48.4865L53.3076 49.4961C53.0153 49.7154 52.5384 49.7519 52.2461 49.5807L49.0019 47.6692C48.8711 47.5923 48.798 47.4865 48.7826 47.373Z" fill="#FEBC1F"/>
<path d="M54.65 47.7727C54.9443 47.9458 54.9462 48.265 54.6539 48.4842L53.3077 49.4938C53.1547 49.6022 52.9752 49.667 52.7884 49.6816C52.6015 49.6962 52.4141 49.6599 52.2462 49.5765L49.0019 47.6669C48.7077 47.4938 48.7058 47.1765 48.9981 46.9554L50.3443 45.9458C50.4973 45.8375 50.6767 45.7726 50.8636 45.758C51.0505 45.7435 51.2379 45.7798 51.4058 45.8631L54.65 47.7727ZM64.7693 56.5362L64.9039 57.4592C64.9231 57.5746 65 57.6708 65.1346 57.7477L68.3654 59.6515C68.6731 59.8246 69.1346 59.7862 69.4231 59.5746L70.7885 58.5746C70.9423 58.44 71.0193 58.2862 71 58.1515L70.8462 57.2862V57.2669C70.8462 57.1515 70.7885 57.0362 70.6346 56.94L67.3846 55.0169C67.0962 54.8438 66.6154 54.8823 66.3269 55.1131L64.9808 56.1131C64.8269 56.2477 64.75 56.4015 64.7693 56.5362Z" fill="#FFD06C"/>
<path d="M64.7653 56.5361L64.9095 57.4554C64.923 57.5669 64.9961 57.6727 65.1249 57.7496L68.373 59.6592C68.5406 59.7415 68.7273 59.7771 68.9135 59.7622C69.0996 59.7473 69.2783 59.6825 69.4307 59.5746L70.7788 58.565C70.9422 58.4438 71.0115 58.29 70.9922 58.1496L70.8518 57.2304C70.8711 57.3727 70.7999 57.5246 70.6365 57.6457L69.2903 58.6573C68.998 58.8765 68.5211 58.9131 68.2288 58.7419L64.9845 56.8304C64.8538 56.7534 64.7807 56.6477 64.7653 56.5361Z" fill="#FEBC1F"/>
<path d="M70.6345 56.9368C70.9268 57.1098 70.9288 57.4271 70.6365 57.6483L69.2903 58.6579C69.1373 58.7662 68.9578 58.8311 68.7709 58.8457C68.5841 58.8602 68.3967 58.8239 68.2288 58.7406L64.9845 56.831C64.6903 56.6579 64.6884 56.3406 64.9807 56.1194L66.3268 55.1098C66.4799 55.0015 66.6593 54.9366 66.8462 54.9221C67.0331 54.9075 67.2205 54.9438 67.3884 55.0271L70.6345 56.9368Z" fill="#FFD06C"/>
<path d="M36.2884 66.344L36.4615 67.3824C36.4719 67.4537 36.5003 67.5211 36.544 67.5783C36.5878 67.6355 36.6454 67.6806 36.7114 67.7094L40.3845 69.8824C40.7307 70.0747 41.2691 70.0363 41.5961 69.7863L43.1153 68.6517C43.3076 68.4978 43.3845 68.3247 43.3653 68.1709L43.2115 67.1709C43.2115 67.0363 43.1345 66.8824 42.9615 66.7863L39.2691 64.6324C38.9422 64.4209 38.4038 64.4594 38.0768 64.7094L36.5384 65.8632C36.3076 66.0363 36.2499 66.267 36.3268 66.4401C36.3076 66.4017 36.2884 66.3824 36.2884 66.344Z" fill="#57B3FE"/>
<path d="M36.2942 66.3389L36.4538 67.3812C36.4731 67.5081 36.5557 67.6293 36.7038 67.7158L40.3884 69.885C40.7211 70.0812 41.2615 70.0389 41.5923 69.7889L43.1211 68.6427C43.3057 68.5042 43.3884 68.3312 43.3654 68.1696L43.2038 67.1273C43.225 67.2869 43.1442 67.46 42.9615 67.5985L41.4307 68.7466C41.0981 68.9966 40.5615 69.0369 40.225 68.8427L36.5404 66.6716C36.3942 66.585 36.3115 66.4658 36.2942 66.3389Z" fill="#497BFE"/>
<path d="M42.9558 66.7926C43.2904 66.9888 43.2904 67.3503 42.9597 67.6003L41.4308 68.7465C41.1001 68.9965 40.5597 69.0368 40.227 68.8426L36.5405 66.6715C36.2078 66.4753 36.2058 66.1138 36.5366 65.8638L38.0674 64.7176C38.3981 64.4676 38.9385 64.4272 39.2712 64.6215L42.9558 66.7926Z" fill="#57B3FE"/>
<path d="M28.2114 61.5946L28.3652 62.6138C28.3845 62.7484 28.4614 62.8638 28.6152 62.96L32.2883 65.1138C32.6345 65.3253 33.1729 65.2677 33.4999 65.0177L35.0383 63.883C35.2114 63.7484 35.2883 63.5753 35.2691 63.4023L35.1152 62.4215V62.4023C35.1152 62.2484 35.0191 62.133 34.8652 62.0369L31.1729 59.8638C30.846 59.6715 30.3075 59.71 29.9806 59.96L28.4422 61.0946C28.2499 61.2484 28.1729 61.4215 28.2114 61.5946Z" fill="#5EC363"/>
<path d="M28.2019 61.5732L28.3654 62.6175C28.3827 62.7444 28.4635 62.8655 28.6115 62.9521L32.2961 65.1213C32.6308 65.3156 33.1692 65.2752 33.5 65.0252L35.0308 63.879C35.2135 63.7406 35.2961 63.5675 35.2731 63.4059L35.1135 62.3617C35.1365 62.5213 35.0558 62.6963 34.8692 62.8348L33.3385 63.9829C33.0096 64.2309 32.4692 64.2713 32.1365 64.0752L28.4519 61.9059C28.3019 61.8194 28.2211 61.7021 28.2019 61.5732Z" fill="#5EC363"/>
<path d="M34.8652 62.0272C35.1979 62.2252 35.1999 62.5849 34.8691 62.8349L33.3383 63.9829C33.0076 64.231 32.4691 64.2714 32.1345 64.0772L28.4499 61.906C28.1172 61.7099 28.1152 61.3483 28.446 61.1002L29.9749 59.9522C30.3076 59.7041 30.846 59.6637 31.1806 59.8579L34.8652 62.0272Z" fill="#78E75A"/>
<path d="M44.3846 71.0939L44.5384 72.1516C44.5576 72.267 44.6538 72.3824 44.7884 72.4785L48.4807 74.6516C48.8076 74.8439 49.3461 74.8054 49.673 74.5554L51.2115 73.4016C51.4038 73.267 51.4807 73.0939 51.4615 72.9401L51.3076 71.9593C51.3076 71.9401 51.3076 71.9016 51.2884 71.8824C51.2884 71.7477 51.1923 71.6324 51.0384 71.5554L47.3653 69.3824C47.0192 69.1901 46.4807 69.2285 46.1538 69.4785L44.6346 70.6324C44.4423 70.767 44.3653 70.9401 44.3846 71.0939Z" fill="#F45170"/>
<path d="M44.3847 71.0996L44.5462 72.1438C44.5635 72.2708 44.6443 72.39 44.7924 72.4765L48.4789 74.6477C48.8116 74.8438 49.352 74.8015 49.6808 74.5535L51.2116 73.4035C51.3962 73.265 51.477 73.0919 51.4539 72.9323L51.2943 71.8881C51.3174 72.0496 51.2347 72.2227 51.0501 72.3611L49.5212 73.5111C49.1905 73.7573 48.6501 73.7996 48.3174 73.6035L44.6328 71.4342C44.4847 71.3477 44.402 71.2265 44.3828 71.0996H44.3847Z" fill="#DF3260"/>
<path d="M51.0461 71.5563C51.3788 71.7524 51.3808 72.114 51.05 72.3621L49.5211 73.5101C49.1904 73.7601 48.65 73.8005 48.3173 73.6063L44.6308 71.4332C44.2981 71.239 44.2962 70.8774 44.6269 70.6294L46.1577 69.4813C46.4885 69.2313 47.0269 69.1909 47.3615 69.3851L51.0461 71.5563Z" fill="#F45170"/>
<path d="M43.6923 55.4022L40.0192 53.2291C39.673 53.0368 39.1346 53.0753 38.8076 53.3253L37.2884 54.4791C37.0961 54.6137 36.9999 54.7868 37.0384 54.9599L37.1923 55.9983C37.2115 56.1137 37.2884 56.2291 37.4423 56.3253L41.1346 58.4984C41.4615 58.6907 42 58.6522 42.3269 58.4022L43.8653 57.2484C44.0384 57.1137 44.1346 56.9407 44.1153 56.7676L43.9615 55.806V55.7868C43.9615 55.7676 43.9615 55.7483 43.9423 55.7291C43.9423 55.5945 43.8461 55.4791 43.6923 55.4022ZM46.9038 58.0945L45.3653 59.2291C45.1538 59.383 45.0769 59.5945 45.1538 59.7676L45.2884 60.7484C45.3076 60.883 45.3846 60.9984 45.5384 61.0945L49.2307 63.2484C49.5576 63.4599 50.0961 63.4022 50.423 63.1522L51.9615 62.0176C52.1346 61.883 52.2307 61.7099 52.1923 61.5368L52.0384 60.556V60.5368C52.0384 60.383 51.9615 60.2676 51.7884 60.1714L48.1153 57.9984C47.7692 57.806 47.2307 57.8445 46.9038 58.0945ZM48.2692 53.9407C48.4615 53.806 48.5384 53.633 48.5192 53.4599L48.3653 52.4791V52.4599C48.3653 52.306 48.2884 52.1907 48.1153 52.0945L44.423 49.9214C44.0961 49.7291 43.5576 49.7676 43.2307 50.0176L41.6923 51.1522C41.4615 51.3253 41.3846 51.556 41.4999 51.7483C41.4615 51.7099 41.4423 51.6714 41.4423 51.633L41.6153 52.6714C41.6257 52.7427 41.6542 52.8101 41.6979 52.8673C41.7417 52.9245 41.7993 52.9696 41.8653 52.9983L45.5384 55.1714C45.8846 55.383 46.423 55.3253 46.7499 55.0753L48.2692 53.9407ZM40.9615 62.556C40.7692 62.6907 40.6923 62.8637 40.7115 63.0176L40.8653 64.0753C40.8846 64.1907 40.9615 64.306 41.1153 64.4022L44.8076 66.5753C45.1346 66.7676 45.673 66.7291 46 66.4791L47.5384 65.3253C47.7307 65.1907 47.8076 65.0176 47.7884 64.8637L47.6346 63.883V63.8637C47.6346 63.8445 47.6346 63.8253 47.6153 63.806C47.6153 63.6714 47.5192 63.556 47.3653 63.4791L43.6923 61.306C43.3461 61.1137 42.8076 61.1522 42.4807 61.4022L40.9615 62.556ZM58.0384 62.5368L61.7307 64.7099C62.0576 64.9022 62.5961 64.8637 62.923 64.6137L64.4615 63.4599C64.6538 63.3253 64.7307 63.1522 64.7115 62.9984L64.5576 62.0176V61.9984C64.5576 61.9791 64.5576 61.9599 64.5384 61.9407C64.5384 61.806 64.4423 61.6907 64.2884 61.6137L60.6153 59.4407C60.2692 59.2484 59.7307 59.2868 59.4038 59.5368L57.8846 60.6907C57.6923 60.8253 57.6153 60.9983 57.6346 61.1522L57.7884 62.2099C57.8076 62.3253 57.9038 62.4407 58.0384 62.5368ZM56.3653 58.7099C56.5576 58.556 56.6346 58.383 56.6153 58.2291L56.4615 57.2291C56.4615 57.0945 56.3653 56.9599 56.2115 56.8445L52.5192 54.6907C52.1923 54.4791 51.6538 54.5176 51.3076 54.7676L49.7884 55.9214C49.5576 56.0945 49.4999 56.3253 49.5769 56.4983C49.5576 56.4599 49.5384 56.4407 49.5384 56.4022L49.7115 57.4407C49.7216 57.5095 49.7477 57.5749 49.7878 57.6317C49.8279 57.6885 49.8808 57.7351 49.9423 57.7676L53.6346 59.9407C53.9615 60.133 54.4999 60.0945 54.8461 59.8445L56.3653 58.7099ZM53.6346 65.8445L57.3076 68.0176C57.6346 68.2099 58.1923 68.1714 58.5192 67.9214L60.0384 66.7868C60.2307 66.633 60.3076 66.4599 60.2884 66.306L60.1346 65.306C60.1346 65.1714 60.0576 65.0368 59.8846 64.9214L56.1923 62.7676C55.8653 62.556 55.3269 62.6137 55 62.8445L53.4615 63.9984C53.2307 64.1714 53.173 64.4022 53.2499 64.5753C53.2307 64.5368 53.2115 64.5176 53.2115 64.4791L53.3846 65.5176C53.3846 65.6522 53.4807 65.7676 53.6346 65.8445ZM49.0384 67.306C48.8269 67.4599 48.7499 67.6714 48.8269 67.8445L48.9615 68.8253C48.9807 68.9599 49.0576 69.0753 49.2115 69.1714L52.8846 71.3253C53.2307 71.5368 53.7692 71.4984 54.0961 71.2484L55.6346 70.0945C55.8076 69.9599 55.8846 69.7868 55.8653 69.6137L55.7115 68.633V68.6137C55.7115 68.4599 55.6346 68.3445 55.4615 68.2484L51.7692 66.0753C51.4423 65.883 50.9038 65.9214 50.5769 66.1714L49.0384 67.306ZM32.6153 58.2676L32.7884 59.306C32.7884 59.4214 32.8846 59.556 33.0192 59.633L36.7115 61.806C37.0384 61.9983 37.5769 61.9599 37.923 61.7099L39.4423 60.556C39.6346 60.4214 39.7115 60.2484 39.6923 60.0945L39.5384 59.133L39.5192 59.056C39.5192 58.9214 39.423 58.806 39.2884 58.7099L35.5961 56.5368C35.2692 56.3445 34.7307 56.383 34.3846 56.633L32.8653 57.7868C32.6346 57.9599 32.5769 58.1907 32.6538 58.3637C32.6346 58.3253 32.6153 58.306 32.6153 58.2676Z" fill="#E3E7F0"/>
<path d="M49.5404 56.3965L49.7038 57.4388C49.7212 57.5657 49.8019 57.6869 49.95 57.7734L53.6346 59.9426C53.9673 60.1388 54.5058 60.0965 54.8365 59.8465L56.3673 58.7003C56.5538 58.5619 56.6327 58.3888 56.6096 58.2273L56.45 57.1849C56.4731 57.3446 56.3923 57.5176 56.2058 57.658L54.6769 58.8042C54.3462 59.0542 53.8058 59.0946 53.4731 58.9003L49.7885 56.7311C49.6385 56.6426 49.5596 56.5234 49.5404 56.3965Z" fill="#B0B8CF"/>
<path d="M56.2039 56.8502C56.5385 57.0464 56.5404 57.4079 56.2077 57.6579L54.6789 58.8041C54.3462 59.0541 53.8077 59.0945 53.475 58.9002L49.7904 56.7291C49.4558 56.5329 49.4539 56.1714 49.7847 55.9214L51.3154 54.7752C51.6462 54.5252 52.1866 54.4848 52.5193 54.6791L56.2039 56.8502Z" fill="#E3E7F0"/>
<path d="M40.7076 63.0234L40.8711 64.0657C40.8884 64.1946 40.9691 64.3138 41.1211 64.4004L44.8038 66.5696C45.1364 66.7677 45.6768 66.7254 46.0057 66.4773L47.5364 65.3273C47.723 65.1888 47.8057 65.0157 47.7826 64.8581L47.6191 63.8119C47.6422 63.9734 47.5614 64.1465 47.3768 64.285L45.8461 65.433C45.5153 65.683 44.9749 65.7254 44.6422 65.5273L40.9576 63.3581C40.8095 63.2715 40.7268 63.1504 40.7076 63.0234Z" fill="#B0B8CF"/>
<path d="M47.3711 63.479C47.7057 63.6751 47.7077 64.0367 47.375 64.2847L45.8461 65.4328C45.5154 65.6828 44.975 65.7232 44.6423 65.529L40.9577 63.3559C40.623 63.1617 40.6211 62.7982 40.9519 62.552L42.4827 61.404C42.8154 61.154 43.3538 61.1117 43.6865 61.3078L47.3711 63.479Z" fill="#E3E7F0"/>
<path d="M41.45 51.6289L41.6115 52.6751C41.6288 52.802 41.7115 52.9193 41.8615 53.0058L45.5442 55.177C45.8788 55.3731 46.4173 55.3308 46.75 55.0828L48.2769 53.9366C48.4635 53.7981 48.5462 53.6251 48.5231 53.4635L48.3615 52.4193C48.3808 52.5789 48.3 52.752 48.1173 52.8904L46.5865 54.0404C46.2558 54.2904 45.7154 54.3289 45.3827 54.1328L41.6981 51.9635C41.55 51.877 41.4692 51.7597 41.45 51.6289Z" fill="#B0B8CF"/>
<path d="M48.1135 52.0848C48.4462 52.2829 48.4481 52.6425 48.1174 52.8925L46.5866 54.0405C46.2558 54.2905 45.7174 54.329 45.3828 54.1348L41.6981 51.9636C41.3655 51.7675 41.3616 51.4059 41.6943 51.1579L43.2251 50.0098C43.5558 49.7617 44.0943 49.7213 44.4289 49.9155L48.1135 52.0848Z" fill="#E3E7F0"/>
<path d="M37.0328 54.9424L37.1943 55.9905C37.2135 56.1174 37.2943 56.2347 37.4443 56.3212L41.1289 58.4924C41.4616 58.6885 42.002 58.6462 42.3328 58.3962L43.8635 57.2482C44.0462 57.1097 44.1289 56.9366 44.1058 56.7751L43.9443 55.7328C43.9655 55.8943 43.8866 56.0674 43.702 56.2058L42.1712 57.3539C41.8385 57.6039 41.3001 57.6462 40.9655 57.4482L37.2808 55.2789C37.2168 55.2457 37.1611 55.1982 37.1182 55.1403C37.0752 55.0823 37.046 55.0153 37.0328 54.9443V54.9424Z" fill="#B0B8CF"/>
<path d="M43.698 55.4002C44.0307 55.5963 44.0326 55.9579 43.7019 56.2059L42.1711 57.354C41.8403 57.604 41.2999 57.6444 40.9672 57.4502L37.2807 55.279C36.948 55.0829 36.9461 54.7213 37.2788 54.4713L38.8076 53.3233C39.1403 53.0752 39.6788 53.0348 40.0115 53.229L43.698 55.4002Z" fill="#E3E7F0"/>
<path d="M32.6192 58.2598L32.7788 59.3021C32.7961 59.429 32.8807 59.5501 33.0288 59.6367L36.7115 61.8059C37.0442 62.004 37.5845 61.9598 37.9172 61.7136L39.448 60.5636C39.6307 60.4252 39.7115 60.2521 39.6903 60.0905L39.5269 59.0482C39.5499 59.2078 39.4692 59.3809 39.2845 59.5194L37.7538 60.6675C37.423 60.9175 36.8845 60.9578 36.5518 60.7636L32.8653 58.5925C32.7172 58.5059 32.6345 58.3867 32.6192 58.2598Z" fill="#B0B8CF"/>
<path d="M39.2808 58.7135C39.6135 58.9097 39.6173 59.2712 39.2846 59.5212L37.7558 60.6674C37.4231 60.9174 36.8846 60.9597 36.5519 60.7635L32.8654 58.5924C32.5327 58.3962 32.5308 58.0347 32.8615 57.7866L34.3923 56.6385C34.7231 56.3885 35.2615 56.3481 35.5962 56.5424L39.2808 58.7135Z" fill="#E3E7F0"/>
<path d="M57.6326 61.1582L57.7922 62.2024C57.8095 62.3294 57.8941 62.4486 58.0422 62.537L61.7249 64.7063C62.0576 64.9044 62.598 64.8601 62.9307 64.6121L64.4614 63.464C64.6441 63.3236 64.7249 63.1505 64.7037 62.9909L64.5403 61.9467C64.5634 62.1082 64.4826 62.2813 64.298 62.4197L62.7672 63.5659C62.4364 63.8178 61.898 63.8582 61.5653 63.6621L57.8787 61.4928C57.7307 61.4063 57.648 61.2851 57.6326 61.1582Z" fill="#B0B8CF"/>
<path d="M64.2942 61.6139C64.6269 61.8101 64.6288 62.1716 64.298 62.4197L62.7692 63.5677C62.4365 63.8177 61.898 63.8581 61.5654 63.6639L57.8788 61.4908C57.5461 61.2966 57.5442 60.9351 57.875 60.687L59.4057 59.5389C59.7365 59.2889 60.275 59.2485 60.6096 59.4427L64.2942 61.6139Z" fill="#E3E7F0"/>
<path d="M53.2155 64.4736L53.3751 65.5159C53.3943 65.6448 53.477 65.7659 53.6251 65.8506L57.3097 68.0217C57.6424 68.214 58.1828 68.1736 58.5135 67.9256L60.0443 66.7775C60.2308 66.639 60.3097 66.4659 60.2866 66.3044L60.127 65.2621C60.1501 65.4236 60.0693 65.5967 59.8828 65.7352L58.3539 66.8813C58.0193 67.1313 57.4828 67.1717 57.1501 66.9775L53.4616 64.8082C53.3155 64.7217 53.2328 64.6006 53.2155 64.4736Z" fill="#B0B8CF"/>
<path d="M59.8789 64.9274C60.2116 65.1235 60.2135 65.4851 59.8828 65.7351L58.3539 66.8812C58.0212 67.1312 57.4808 67.1735 57.1481 66.9774L53.4635 64.8062C53.1289 64.6101 53.127 64.2485 53.4597 64.0005L54.9905 62.8524C55.3212 62.6024 55.8597 62.562 56.1943 62.7562L59.8789 64.9274Z" fill="#E3E7F0"/>
<path d="M48.8 67.7881L48.9615 68.8304C48.9808 68.9573 49.0615 69.0765 49.2077 69.1631L52.8923 71.3323C53.2289 71.5304 53.7654 71.4862 54.0981 71.2381L55.6289 70.0919C55.8135 69.9535 55.8923 69.7804 55.8712 69.6189L55.7115 68.5765C55.7327 68.7342 55.6519 68.9073 55.4654 69.0458L53.9346 70.1958C53.6077 70.4458 53.0654 70.4862 52.7327 70.2881L49.0481 68.1188C48.8981 68.0323 48.8192 67.915 48.8 67.7881Z" fill="#B0B8CF"/>
<path d="M55.4615 68.2426C55.7961 68.4388 55.798 68.8003 55.4653 69.0484L53.9365 70.1965C53.6057 70.4446 53.0653 70.4869 52.7326 70.2907L49.048 68.1215C48.7134 67.9253 48.7115 67.5638 49.0422 67.3138L50.573 66.1676C50.9057 65.9176 51.4441 65.8753 51.7768 66.0715L55.4615 68.2426Z" fill="#E3E7F0"/>
<path d="M45.1287 59.71L45.2883 60.7523C45.3056 60.8811 45.3902 61.0003 45.5383 61.0869L49.221 63.2561C49.5537 63.4523 50.0941 63.41 50.4268 63.16L51.9537 62.0138C52.1402 61.8753 52.2229 61.7023 52.1998 61.5407L52.0364 60.4984C52.0595 60.66 51.9787 60.833 51.7941 60.9715L50.2633 62.1177C49.9325 62.3677 49.3941 62.408 49.0595 62.2138L45.3748 60.0446C45.2268 59.9561 45.1441 59.8369 45.1287 59.71Z" fill="#B0B8CF"/>
<path d="M51.7884 60.1637C52.123 60.3599 52.1249 60.7214 51.7941 60.9714L50.2634 62.1176C49.9326 62.3676 49.3941 62.4099 49.0595 62.2137L45.3749 60.0426C45.0422 59.8464 45.0403 59.4849 45.3711 59.2368L46.9018 58.0887C47.2326 57.8387 47.7711 57.7983 48.1057 57.9926L51.7884 60.1637Z" fill="#E3E7F0"/>
<path d="M73.5037 42.9381C75.7287 44.2477 75.7383 46.6227 73.5229 48.24C71.3114 49.8534 67.7114 50.1034 65.4845 48.7919C63.2537 47.4784 63.2479 45.1054 65.4575 43.4919C67.6729 41.8727 71.2729 41.6246 73.5037 42.9381Z" fill="#F45170"/>
<path d="M69.6633 43.5459L69.6922 46.7978L71.8326 46.5824L71.8518 47.5517L68.5499 47.8863L68.5172 43.6594L69.6633 43.5459Z" fill="white"/>
<path d="M52.0192 83.2093L52.0385 85.7286L53.9231 86.8247L97.9615 61.2862L97.9231 53.7093C97.9231 52.5747 97.5192 51.7862 96.8846 51.4209H96.8654L95 50.3439C94.3462 49.9593 93.4615 50.017 92.4808 50.5747C72.6923 64.7209 69.4 67.1209 55.1154 77.3632C53.3462 78.6324 52.0192 81.1516 52.0192 83.2093Z" fill="#111D33"/>
<path d="M52.0192 83.2003L52.0307 85.735L53.925 86.8253L53.9153 84.2946C53.9077 82.235 55.2423 79.7273 57.0192 78.4484L93.9423 51.9561C94.0829 51.8546 94.2286 51.7602 94.3788 51.6734C95.3519 51.11 96.248 51.0561 96.8961 51.433L95 50.3369C94.3519 49.9619 93.4557 50.0196 92.4807 50.5811C92.3384 50.6657 92.1923 50.758 92.0461 50.8657L55.123 77.36C53.3442 78.6369 52.0134 81.1446 52.0173 83.2023L52.0192 83.2003Z" fill="#4C5C75"/>
<path d="M94.3789 51.6731C94.2346 51.7539 94.0904 51.8481 93.9423 51.9539L57.0192 78.4501C55.2423 79.727 53.9096 82.2347 53.9154 84.2943L53.925 86.827L97.9539 61.2866L97.9289 53.702C97.9231 51.427 96.3058 50.5597 94.3789 51.6712V51.6731Z" fill="#111D33"/>
<path d="M70.3846 32.9406C70.3846 33.5175 70.4039 34.0752 70.4615 34.6329C100.725 52.4521 75.0808 37.3483 86.5192 44.0752C86.5192 44.0752 86.5385 44.0944 86.5577 44.0944C86.6923 44.1714 86.8654 44.2098 87.0385 44.2098C86.9423 43.6137 86.8654 43.0175 86.8269 42.4021C86.3462 35.6713 88.8846 28.8444 94.4615 21.7098L93.7885 20.8444L78.6539 12.0752C73.1346 19.1521 70.3462 26.1521 70.3846 32.9406Z" fill="#DEDFFB"/>
<path d="M70.3865 32.9482C70.3865 33.5116 70.4057 34.0751 70.4634 34.6405L71.5134 35.2597L72.6019 35.902L83.5577 42.3501L84.5673 42.9328L85.6153 43.5539C85.5577 42.9135 85.5192 42.2732 85.5192 41.6308C85.5 34.8712 88.2769 27.9001 93.7942 20.8482L78.6615 12.0674C73.1269 19.1578 70.348 26.1501 70.3865 32.9482Z" fill="#F3F1FC"/>
<path d="M71.3788 33.3169C71.3946 33.966 71.4395 34.6141 71.5134 35.2592L72.6019 35.9015L83.5576 42.3496L84.5673 42.9323C84.5288 42.3111 84.5288 41.69 84.548 41.0477C84.6634 34.5419 87.2673 27.8785 92.3173 21.1381L78.9134 13.3496C73.7673 20.1477 71.2615 26.8496 71.3788 33.3169Z" fill="white"/>
<path d="M85.5192 41.6309C85.5192 42.2732 85.5577 42.9136 85.6154 43.5539L86.5096 44.0789C86.5096 44.0789 86.5289 44.0982 86.5481 44.0982C86.6978 44.1773 86.8653 44.217 87.0346 44.2136C86.9385 43.6136 86.8596 43.0097 86.8192 42.4078C86.3539 35.6674 88.8789 28.8501 94.4539 21.702L93.7942 20.8482C88.2769 27.8982 85.5 34.8712 85.5192 41.6309ZM78.4231 15.6924L90.1308 22.4809C90.3289 22.2251 90.5058 21.9674 90.7039 21.6924L78.9942 14.8809C78.8173 15.1559 78.6192 15.4136 78.4231 15.6886V15.6924ZM76.5673 18.6136L88.2942 25.4251C88.4519 25.1482 88.6096 24.852 88.8077 24.577L77.0808 17.7655C76.9019 18.0405 76.7442 18.3366 76.5673 18.6136ZM74.9673 21.6924L86.675 28.4847C86.8135 28.1886 86.9519 27.8924 87.1096 27.6174L75.4019 20.8059C75.2442 21.102 75.1058 21.3962 74.9673 21.6924ZM73.6635 24.952L85.3327 31.7232C85.434 31.4078 85.5528 31.0984 85.6885 30.7962L74.0192 24.0039L73.6635 24.952ZM72.775 28.427L84.3058 35.1385C84.3846 34.8039 84.4635 34.4674 84.5635 34.1116L72.9923 27.4001C72.9154 27.7347 72.8346 28.0712 72.775 28.427ZM72.3808 32.1982L83.6942 38.7924C83.7135 38.4366 83.7731 38.0616 83.8135 37.7059L72.4212 31.0712C72.4019 31.4462 72.3808 31.8212 72.3808 32.1982ZM72.4846 35.1251C72.5055 35.3864 72.544 35.646 72.6 35.902L83.5577 42.3501C83.5385 42.0789 83.5385 41.8059 83.5385 41.5347L72.4846 35.1251Z" fill="#DEDFFB"/>
<path d="M33.3597 18.8134C33.3597 19.398 32.9539 20.1095 32.4443 20.4018C32.3315 20.4682 32.2066 20.5114 32.077 20.5288C31.975 20.4268 31.9116 20.2614 31.9116 20.0326C31.9116 19.4614 32.3174 18.7499 32.827 18.4576C32.9441 18.3812 33.0796 18.3373 33.2193 18.3307C33.3181 18.4716 33.3675 18.6414 33.3597 18.8134ZM38.7077 15.7268C38.7077 16.3114 38.302 17.023 37.7808 17.3153C37.6695 17.3949 37.5368 17.4391 37.4 17.4422C37.3012 17.3013 37.2518 17.1315 37.2597 16.9595C37.2597 16.3749 37.6674 15.6634 38.1635 15.3711C38.2799 15.2929 38.4158 15.249 38.5558 15.2441C38.6632 15.3815 38.7158 15.5527 38.7077 15.7268Z" fill="white"/>
<path d="M11.5385 48.8441V51.1711C11.5385 51.4211 11.577 52.2095 11.6155 52.4403C12.2558 55.0018 15.9001 56.3114 18.6924 56.5557C22.2501 56.8037 27.4674 55.7153 28.2885 52.4403C28.3644 52.1975 28.4033 51.9446 28.4039 51.6903L28.3847 48.8634C28.3847 48.7672 28.3847 48.6903 28.3655 48.6134C28.4112 48.4373 28.437 48.2567 28.4424 48.0749V45.248C28.4424 45.1326 28.4232 45.0364 28.4039 44.9403C28.4039 44.7864 28.4039 44.6326 28.3655 44.4787C27.6097 41.5345 23.0443 40.3057 19.9616 40.3057C17.0885 40.3057 13.1482 41.373 11.8847 43.9018C11.8078 44.0941 11.7308 44.2864 11.6731 44.4787C11.6155 44.7287 11.577 44.9787 11.5962 45.2287L11.577 47.5557C11.577 47.6903 11.5962 47.9595 11.6155 48.2287C11.5578 48.4403 11.5385 48.6326 11.5385 48.8441Z" fill="#F9A83D"/>
<path d="M11.5385 48.8309L11.5327 51.179C11.5327 51.4117 11.5674 52.2079 11.6231 52.4406C12.2654 55.0675 16.0001 56.3252 18.7001 56.5502C19.5154 56.6194 20.352 56.6232 21.1731 56.5502C23.8847 56.3155 27.6154 55.0579 28.2962 52.4348C28.3606 52.1939 28.3936 51.9457 28.3943 51.6963L28.3904 48.8232C28.3904 49.054 28.3558 49.2925 28.2943 49.5232C28.0943 50.3021 27.5693 51.0559 26.7174 51.7155C25.1981 52.8886 23.0789 53.4752 21.1731 53.6348C17.6885 53.9444 12.4116 52.7502 11.6231 49.5232C11.5654 49.2963 11.5385 49.0617 11.5385 48.8309Z" fill="#FFD06C"/>
<path d="M11.6307 48.09C11.5076 48.567 11.5038 49.0477 11.623 49.5246C12.4038 52.717 17.573 53.9477 21.1711 53.6343C23.0692 53.4727 25.2211 52.8843 26.7153 51.7112C27.5673 51.0554 28.0923 50.2996 28.2961 49.5208C28.4204 49.0518 28.4243 48.559 28.3076 48.0881C27.673 45.5246 24.0423 44.215 21.2288 43.9746C20.4058 43.9063 19.5786 43.9069 18.7557 43.9766C15.9384 44.2189 12.2942 45.5227 11.6307 48.09Z" fill="#F9A83D"/>
<path d="M11.625 49.5268C12.3135 52.4402 16.8673 53.6941 19.9154 53.6941C20.3327 53.6941 20.752 53.6787 21.1693 53.6364C23.0116 53.4748 25.3039 52.8768 26.7135 51.7133C27.5635 51.0595 28.0923 50.2941 28.302 49.5268C28.4273 49.0568 28.4273 48.5621 28.302 48.0921C27.8539 46.1614 25.4096 44.8306 23.4827 44.3729C22.7448 44.1662 21.9888 44.031 21.225 43.9691C20.7923 43.9402 20.3481 43.9268 19.9154 43.9268C19.5385 43.9268 19.1346 43.9402 18.7596 43.9844C18.6885 43.9844 18.6327 43.996 18.5635 44.0114C17.8476 44.065 17.1389 44.1907 16.4481 44.3864C14.5135 44.8575 12.1462 46.1537 11.625 48.0921C11.5 48.5671 11.5 49.0537 11.625 49.5268Z" fill="#F9A83D"/>
<path d="M19.9153 52.9962C20.3095 52.9962 20.7037 52.9846 21.0999 52.9442C23.5787 52.7288 27.0095 51.6269 27.6307 49.3442C27.7247 48.9926 27.724 48.6224 27.6287 48.2712C27.2441 46.6135 24.9845 45.4442 23.3211 45.0519C22.6161 44.8527 21.8935 44.7226 21.1634 44.6635C20.7634 44.6365 20.3326 44.625 19.9134 44.625C19.5634 44.625 19.1864 44.6365 18.8364 44.675L18.6172 44.7058C17.9345 44.7577 17.2711 44.8769 16.6364 45.0577C14.9634 45.4673 12.748 46.5962 12.298 48.2731C12.2037 48.6288 12.2037 48.9923 12.298 49.35C12.9018 51.9077 17.2287 52.9962 19.9134 52.9962H19.9153Z" fill="#FFD475"/>
<path d="M16.2769 48.8851C16.3784 48.6403 16.5648 48.4402 16.8019 48.3217C17.1319 48.1211 17.5051 48.0024 17.8903 47.9755C18.2561 47.9604 18.6224 47.9908 18.9807 48.0659C19.2884 48.1428 19.6346 48.2448 20.0307 48.3871L21.5422 47.514C21.1914 47.3334 20.8219 47.1916 20.4403 47.0909L20.2615 47.0274C20.1326 46.9505 20.0826 46.8621 20.0942 46.7717C20.1076 46.6813 20.1596 46.6044 20.2615 46.5409C20.4719 46.4356 20.7141 46.4129 20.9403 46.4774C21.4153 46.6044 21.9019 46.7851 22.3634 47.0274L22.7596 46.7967C22.8668 46.7429 22.9858 46.7164 23.1057 46.7198C23.498 46.7198 23.7634 46.9851 23.4269 47.1948L23.0288 47.4255C23.3115 47.6294 23.5038 47.8351 23.5923 48.0524C23.7076 48.2832 23.7076 48.514 23.6307 48.7198C23.5059 48.9535 23.3145 49.1449 23.0807 49.2698C22.7596 49.4505 22.4269 49.5524 22.0423 49.5774C21.6961 49.6044 21.3249 49.5774 20.9788 49.489C20.6846 49.4371 20.3249 49.3351 19.9538 49.2063L18.4923 50.0524C18.9038 50.2448 19.3519 50.4101 19.8384 50.514C19.9146 50.5333 19.9877 50.5631 20.0557 50.6024C20.1711 50.6678 20.248 50.7563 20.2365 50.8467C20.2365 50.9371 20.1711 51.014 20.0557 51.0774C19.9578 51.1339 19.849 51.1687 19.7365 51.1794L19.3903 51.1544C18.7749 51.014 18.1846 50.8082 17.648 50.5524L17.2499 50.7832C17.148 50.8332 17.0192 50.8717 16.9038 50.8717C16.373 50.8198 16.3288 50.5351 16.5711 50.3986L16.9807 50.1544C16.5288 49.8659 16.123 49.4044 16.2769 48.8851ZM22.2346 48.7313C22.4153 48.6159 22.5038 48.5005 22.4653 48.3467C22.4403 48.2063 22.3365 48.0659 22.1711 47.9236L20.8634 48.6813C21.1147 48.7579 21.372 48.8132 21.6326 48.8467C21.8404 48.8709 22.0505 48.8306 22.2346 48.7313ZM17.8403 49.6678L19.1096 48.9236C18.7884 48.8217 18.4942 48.7448 18.2749 48.7198C18.0442 48.6813 17.8788 48.7063 17.7365 48.7967C17.4672 48.9505 17.198 49.2063 17.8403 49.6678Z" fill="#F9A83D"/>
<path d="M11.5864 45.2157L11.5806 47.5637C11.5806 47.7964 11.6152 48.5926 11.671 48.8253C12.4479 51.9984 17.6326 53.2541 21.221 52.9349C23.1402 52.7695 25.2922 52.1753 26.7653 51.0118C27.6172 50.358 28.1422 49.6003 28.3441 48.8195C28.4092 48.5787 28.4428 48.3305 28.4441 48.0811L28.4383 45.2061C28.4383 45.4387 28.4056 45.6753 28.3441 45.908C27.6672 48.5195 23.9652 49.7907 21.221 50.0195C20.3964 50.0927 19.5668 50.0927 18.7422 50.0195C15.9537 49.7849 12.2999 48.4714 11.671 45.908C11.6152 45.6811 11.5864 45.4464 11.5864 45.2157Z" fill="#FFD06C"/>
<path d="M11.6789 44.4749C11.5558 44.9499 11.5539 45.4326 11.6712 45.9095C12.2885 48.4306 15.8366 49.7749 18.7442 50.0191C19.5684 50.0897 20.397 50.0897 21.2212 50.0191C23.9365 49.7883 27.6558 48.5383 28.3462 45.9056C28.4698 45.4365 28.4731 44.9437 28.3558 44.4729C27.7212 41.9095 24.0904 40.5999 21.2789 40.3595C20.4553 40.2903 19.6274 40.2903 18.8039 40.3595C16.1019 40.5941 12.3616 41.8402 11.6789 44.4749Z" fill="#F9A83D"/>
<path d="M11.6729 45.9115C12.2652 48.4115 15.7998 49.7384 18.6133 50.0077C18.6537 50.0077 18.696 50.0231 18.7383 50.0231C19.1421 50.05 19.546 50.0769 19.9633 50.0769C20.3825 50.0769 20.7998 50.0634 21.2171 50.0231C21.9992 49.9612 22.7738 49.826 23.5306 49.6192C25.4652 49.1481 27.8229 47.8481 28.3518 45.9115C28.4771 45.4415 28.4771 44.9469 28.3518 44.4769C27.9018 42.5442 25.4595 41.2134 23.5306 40.7577C22.7927 40.551 22.0367 40.4158 21.2729 40.3538C20.8421 40.325 20.396 40.3115 19.9652 40.3115C19.5883 40.3115 19.1845 40.325 18.8075 40.3692C18.7383 40.3692 18.6825 40.3808 18.6133 40.3961C17.8883 40.4519 17.1768 40.5769 16.4941 40.7711C14.5518 41.2442 12.1941 42.5365 11.6748 44.4769C11.5498 44.95 11.5498 45.4384 11.6748 45.9115H11.6729Z" fill="#F9A83D"/>
<path d="M19.9634 49.3809C20.3595 49.3809 20.7538 49.3694 21.1499 49.329C21.8911 49.2717 22.6252 49.1442 23.3422 48.9482C24.9826 48.5482 27.2172 47.4232 27.6788 45.729C27.7734 45.3776 27.7734 45.0074 27.6788 44.6559C27.2922 42.9925 25.0326 41.829 23.3711 41.4367C22.6655 41.2374 21.9423 41.1072 21.2115 41.0482C20.8115 41.0213 20.3807 41.0098 19.9634 41.0098C19.6134 41.0098 19.2345 41.0213 18.8826 41.0598L18.6672 41.0905C17.9845 41.1425 17.3192 41.2598 16.6865 41.4425C15.0038 41.854 12.7942 42.9905 12.348 44.6578C12.2519 45.0136 12.2519 45.3771 12.348 45.7348C12.7442 47.4098 14.9692 48.5136 16.6711 48.9578C17.3294 49.1317 18.0009 49.2513 18.6788 49.3155C19.1749 49.354 19.5634 49.3809 19.9634 49.3809Z" fill="#FFD475"/>
<path d="M16.4269 45.9478C16.3618 45.8487 16.319 45.7367 16.3014 45.6195C16.2838 45.5023 16.2919 45.3827 16.325 45.2689C16.4265 45.0241 16.6129 44.824 16.85 44.7055C17.1806 44.5046 17.5545 44.3859 17.9404 44.3593C18.3055 44.3444 18.6711 44.3747 19.0288 44.4497C19.3365 44.5266 19.6827 44.6285 20.0788 44.7689L21.5923 43.8978C21.2414 43.7172 20.8719 43.5754 20.4904 43.4747L20.3096 43.4112C20.1827 43.3343 20.1308 43.2439 20.1442 43.1555C20.1558 43.0651 20.2077 42.9882 20.3096 42.9247C20.52 42.8194 20.7622 42.7967 20.9885 42.8612C21.4635 42.9882 21.95 43.1689 22.4115 43.4112L22.8096 43.1805C22.9169 43.1266 23.0358 43.1002 23.1558 43.1035C23.2714 43.1002 23.386 43.1267 23.4885 43.1805C23.5788 43.2324 23.6288 43.3093 23.6288 43.3728C23.6288 43.4497 23.5788 43.5132 23.475 43.5785L23.0788 43.8093C23.3596 44.0132 23.5519 44.2189 23.6423 44.4362C23.7577 44.667 23.7577 44.8978 23.6808 45.1035C23.5554 45.3376 23.3633 45.529 23.1288 45.6535C22.8096 45.8343 22.475 45.9362 22.0904 45.9612C21.7442 45.9882 21.3731 45.9612 21.0288 45.8728C20.7327 45.8209 20.375 45.7189 20.0019 45.5901L18.5404 46.4362C18.9519 46.6285 19.4 46.7939 19.8865 46.8978C19.9634 46.917 20.0371 46.9467 20.1058 46.9862C20.2211 47.0516 20.2981 47.1401 20.2846 47.2305C20.2846 47.3209 20.2211 47.3978 20.1058 47.4612C20.0073 47.518 19.8978 47.5527 19.7846 47.5632L19.4385 47.5382C18.8231 47.3978 18.2346 47.192 17.6961 46.9362L17.2981 47.167C17.1961 47.217 17.0673 47.2555 16.9519 47.2555C16.8361 47.2491 16.7229 47.219 16.6192 47.167C16.5308 47.1151 16.4788 47.0382 16.4788 46.9747C16.4788 46.8978 16.5308 46.8324 16.6192 46.7824L17.0288 46.5382C16.7835 46.3927 16.577 46.1902 16.4269 45.9478ZM22.2846 45.1151C22.4635 44.9997 22.5538 44.8843 22.5154 44.7305C22.4885 44.5901 22.3865 44.4497 22.2192 44.3074L20.9115 45.0651C21.1628 45.1417 21.4202 45.197 21.6808 45.2305C21.8891 45.2551 22.1 45.2148 22.2846 45.1151ZM17.8885 46.0516L19.1577 45.3074C18.8365 45.2055 18.5423 45.1285 18.3231 45.1035C18.0923 45.0651 17.9269 45.0901 17.7846 45.1805C17.5154 45.3343 17.2461 45.5901 17.8885 46.0516Z" fill="#F9A83D"/>
<g opacity="0.3">
<path d="M19.9635 40.3115V50.0769C20.3827 50.0769 20.8 50.0634 21.2173 50.0231C21.9994 49.9612 22.774 49.826 23.5308 49.6192V40.7577C22.7929 40.551 22.0368 40.4158 21.2731 40.3538C20.8423 40.325 20.3942 40.3115 19.9635 40.3115ZM16.4942 40.7711V49.6327C17.1769 49.8134 17.8885 49.9404 18.6135 50.0077V40.3961C17.8885 40.4519 17.1769 40.5769 16.4942 40.7711Z" fill="white"/>
</g>
</g>
<defs>
<filter id="filter0_dd_14939_34" x="-3" y="-1.5" width="112" height="112" filterUnits="userSpaceOnUse" color-interpolation-filters="sRGB">
<feFlood flood-opacity="0" result="BackgroundImageFix"/>
<feColorMatrix in="SourceAlpha" type="matrix" values="0 0 0 0 0 0 0 0 0 0 0 0 0 0 0 0 0 0 127 0" result="hardAlpha"/>
<feMorphology radius="2" operator="erode" in="SourceAlpha" result="effect1_dropShadow_14939_34"/>
<feOffset dy="2"/>
<feGaussianBlur stdDeviation="2"/>
<feColorMatrix type="matrix" values="0 0 0 0 0.0627451 0 0 0 0 0.0941176 0 0 0 0 0.156863 0 0 0 0.06 0"/>
<feBlend mode="normal" in2="BackgroundImageFix" result="effect1_dropShadow_14939_34"/>
<feColorMatrix in="SourceAlpha" type="matrix" values="0 0 0 0 0 0 0 0 0 0 0 0 0 0 0 0 0 0 127 0" result="hardAlpha"/>
<feMorphology radius="2" operator="erode" in="SourceAlpha" result="effect2_dropShadow_14939_34"/>
<feOffset dy="4"/>
<feGaussianBlur stdDeviation="4"/>
<feColorMatrix type="matrix" values="0 0 0 0 0.0627451 0 0 0 0 0.0941176 0 0 0 0 0.156863 0 0 0 0.1 0"/>
<feBlend mode="normal" in2="effect1_dropShadow_14939_34" result="effect2_dropShadow_14939_34"/>
<feBlend mode="normal" in="SourceGraphic" in2="effect2_dropShadow_14939_34" result="shape"/>
</filter>
</defs>
</svg>
