<svg width="106" height="100" viewBox="0 0 106 100" fill="none" xmlns="http://www.w3.org/2000/svg">
<g filter="url(#filter0_dd_14932_762)">
<path d="M7.30391 57.6253V60.5292L46.7462 83.4522L91.7847 57.4907C95.8616 55.1253 99.1693 49.4138 99.1501 44.7215C99.1308 42.3945 98.3231 40.7792 96.9962 39.9907L57.5539 17.0676C56.2078 16.2599 54.3231 16.3753 52.2847 17.5676C48.8808 19.5484 45.9193 23.8945 45.1116 28.183L51.727 32.0292L7.30391 57.6253Z" fill="#DEDFFB"/>
<path d="M7.30391 57.6253V60.5292L46.7462 83.4522L91.7847 57.4907C95.8616 55.1253 99.1693 49.4138 99.1501 44.7215C99.1501 42.4138 98.3231 40.7599 96.9962 39.9907C96.9962 39.9715 96.977 39.9715 96.977 39.9715C96.977 39.9715 96.9578 39.9715 96.9578 39.9522L57.5539 17.0676C56.2078 16.2599 54.3231 16.3753 52.2847 17.5676C48.8808 19.5484 45.9193 23.8945 45.1116 28.183L51.727 32.0292L7.30391 57.6253Z" fill="#F3F1FC"/>
<path d="M7.30772 57.6231L46.75 80.5385L91.7673 54.5904C94.4596 53.0327 96.6385 49.2597 96.6193 46.1789C96.6193 44.6385 96.0712 43.5578 95.2039 43.0635L55.7654 20.1289C58.8712 21.9674 56.55 29.2308 52.3289 31.6751L7.30772 57.6231Z" fill="#E9E7FC"/>
<path d="M91.325 53.8235C93.7289 52.4312 95.75 48.9331 95.7347 46.1851C95.7347 45.0389 95.3808 44.1851 94.7654 43.8312L58.0212 22.4658C58.4481 26.0716 55.9635 30.5947 52.7731 32.4408L9.07504 57.6254L46.7481 79.5158L91.325 53.8235Z" fill="white"/>
<path d="M46.7482 80.5461L7.30393 57.623L7.31163 60.5192L46.7559 83.4423L46.7482 80.5461Z" fill="#F3F1FC"/>
<path d="M46.2251 64.1502L36.2366 69.954L31.8847 67.4425L41.8732 61.6367L46.2251 64.1502Z" fill="#78E75A"/>
<path d="M72.3193 47.4411L68.7424 48.2046C66.0866 43.9027 57.827 42.9796 52.554 44.7488L50.7328 42.8065C58.0213 40.4085 68.8693 41.9142 72.3193 47.4411Z" fill="#4C5C75"/>
<path d="M58.0482 46.1025L58.177 50.6179L52.702 47.5025C53.902 46.7218 55.7578 46.1141 58.0482 46.1025Z" fill="#E3E7F0"/>
<path d="M65.5674 50.6288C65.302 53.4346 61.0482 54.6692 58.2001 54.6692C52.0828 54.6615 48.227 50.3481 52.7001 47.5L58.1866 50.6231L65.5674 50.6288Z" fill="#57B3FE"/>
<path d="M58.1865 50.6236L52.7019 47.5005L58.1769 50.6178L58.048 46.1024L58.1519 46.0967C61.1211 46.0967 65.548 47.4428 65.575 50.3851L65.5673 50.6294L58.1865 50.6236Z" fill="#F45170"/>
<path d="M50.7328 42.8037L52.554 44.7479C48.3001 46.1614 45.4809 49.3749 47.7155 52.7095L44.1386 53.4729C41.0886 48.8537 45.254 44.5883 50.7328 42.8037ZM72.3194 47.4403C75.2905 52.2191 70.7136 56.4518 65.0828 58.1422L63.2617 56.1883C67.4867 54.9729 70.9444 51.7614 68.7425 48.2037L72.3194 47.4403Z" fill="#E3E7F0"/>
<path d="M63.2616 56.1888L65.0828 58.1427C57.9366 60.26 47.602 58.7715 44.1366 53.4734L47.7135 52.71C50.3501 56.6753 57.9443 57.7503 63.2616 56.1888Z" fill="#FEBC1F"/>
<path d="M28.6692 57.1385L21.3769 61.375L17.0269 58.8635L24.3192 54.627L28.6692 57.1385Z" fill="#4C5C75"/>
<path d="M42.4731 57.7274L28.8116 65.6677L24.4616 63.1562L38.1231 55.2158L42.4731 57.7274Z" fill="#8FABFE"/>
<path d="M57.3328 66.3084L43.6693 74.2468L39.3193 71.7353L52.9808 63.7949L57.3328 66.3084Z" fill="#F45170"/>
<path d="M91.7654 54.5869L46.7462 80.5484V83.4522L91.7847 57.4907C95.8616 55.1253 99.1693 49.4138 99.1501 44.7215C99.1308 42.3945 98.3231 40.7792 96.9962 39.9907L57.5539 17.0676C56.2078 16.2599 54.3231 16.3753 52.2847 17.5676C48.8808 19.5484 45.9193 23.8945 45.1116 28.183L84.5539 51.1061L87.0154 50.3753C87.5539 47.5676 89.4962 44.7022 91.7462 43.3946C94.4193 41.8369 96.6116 43.0869 96.6308 46.183C96.6308 49.2599 94.4578 53.0484 91.7654 54.5869Z" fill="#DEDFFB"/>
<path d="M91.7308 40.4903C88.3193 42.4595 85.3712 46.823 84.5616 51.1037L87.0193 50.3806C87.552 47.5595 89.4904 44.6922 91.7385 43.3941C94.427 41.8403 96.6174 43.0883 96.627 46.1787C96.6347 49.2633 94.4597 53.0383 91.7693 54.5922L46.75 80.546L46.7577 83.4422L91.777 57.4883C95.8577 55.1326 99.1674 49.4095 99.1539 44.7191C99.1404 40.0326 95.8077 38.1364 91.7308 40.4903Z" fill="#DEDFFB"/>
<path d="M45.1212 28.187L84.5596 51.1024C85.375 46.8177 88.3135 42.46 91.7327 40.4947C93.7865 39.3081 95.6462 39.2024 96.9923 39.9812L57.5538 17.0658C56.2077 16.2677 54.3308 16.3735 52.2942 17.562C48.875 19.5447 45.9173 23.9004 45.1212 28.187Z" fill="#F3F1FC"/>
<path d="M23.3135 35.2884C26.4674 37.1154 31.5943 37.123 34.7731 35.2884C37.9462 33.4557 37.9577 30.4865 34.8077 28.6538C31.6577 26.8211 26.5251 26.8211 23.352 28.6538C20.1789 30.4865 20.1616 33.4557 23.3135 35.2884Z" fill="#57B3FE" fill-opacity="0.188235"/>
<path d="M19.3232 32.6061C19.0155 30.9331 19.9193 29.2215 22.1309 27.9331C25.977 25.7215 32.2078 25.7215 36.0347 27.9331C37.9578 29.0485 38.9001 30.51 38.9001 31.9523V34.26C38.9193 35.7215 37.9386 37.2023 36.0155 38.3177C32.1501 40.5485 25.9193 40.5485 22.0924 38.3177C20.1886 37.2023 19.227 35.76 19.227 34.3177V31.9908C19.227 32.2023 19.2847 32.3946 19.3232 32.6061ZM23.3232 35.2792C26.477 37.1254 31.5924 37.1254 34.7655 35.2792C35.8424 34.6638 36.5347 33.9138 36.8809 33.1061C36.5347 32.3177 35.8616 31.5869 34.804 30.9715C31.6693 29.1446 26.5347 29.1254 23.3617 30.9715C22.2847 31.5869 21.5924 32.3561 21.2463 33.1446C21.5924 33.9331 22.2655 34.6831 23.3232 35.2792Z" fill="#1D2943"/>
<path d="M19.2212 32.0001L19.2269 34.3117C19.2327 35.7617 20.1846 37.2078 22.0865 38.3117C25.9173 40.5405 32.1481 40.5424 36.0077 38.3117C37.9442 37.1963 38.9115 35.7271 38.9077 34.2598L38.9019 31.9463C38.9058 33.4117 37.9385 34.8809 36.0019 36.0001C32.1423 38.229 25.9096 38.2251 22.0789 36.0001C20.1789 34.8944 19.225 33.4482 19.2212 32.0001Z" fill="#1D2943"/>
<path d="M20.9634 31.9947L20.9711 34.3081C20.9673 33.0985 21.7653 31.887 23.3634 30.9658C26.5346 29.1351 31.6634 29.1351 34.8134 30.9658C36.3807 31.8754 37.1653 33.0678 37.1692 34.262L37.1615 31.9485C37.1596 30.7562 36.373 29.5639 34.8076 28.6524C31.6557 26.8216 26.5269 26.8216 23.3557 28.6524C21.7596 29.5755 20.9596 30.787 20.9634 31.9947Z" fill="#1D2943"/>
<path d="M22.129 27.9383C18.2694 30.1652 18.2521 33.7748 22.079 35.9998C25.9098 38.2248 32.1424 38.2287 36.0021 35.9998C39.854 33.7748 39.8713 30.1652 36.0405 27.9402C32.2136 25.7152 25.9809 25.7133 22.129 27.9383ZM34.7732 35.2844C31.6001 37.1191 26.4694 37.1191 23.3155 35.2844C20.1655 33.4556 20.1809 30.4844 23.3559 28.6498C26.529 26.821 31.6559 26.821 34.8078 28.6498C37.9617 30.4844 37.9444 33.4556 34.7732 35.2844Z" fill="#4C5C75"/>
<path d="M18.6694 37.2599C18.6694 37.9522 19.1501 38.7792 19.7463 39.1253C20.1309 39.3561 20.4578 39.2984 20.6501 39.0676C20.6117 39.1253 20.5732 39.1638 20.5155 39.2022L21.9194 38.3753C22.1117 38.2599 22.2271 38.0099 22.2271 37.683C22.2271 36.9907 21.7655 36.1638 21.1694 35.8176C20.8617 35.6445 20.5924 35.6253 20.4001 35.7407L19.0347 36.5484C18.804 36.6445 18.6694 36.8945 18.6694 37.2599Z" fill="#DEDFFB"/>
<path d="M18.9846 36.5719C19.1826 36.4604 19.4538 36.4757 19.748 36.6527C20.3442 36.9931 20.8211 37.8219 20.8211 38.5046C20.8211 38.8469 20.7019 39.0854 20.5134 39.1969L21.923 38.3661C22.1134 38.2546 22.2307 38.0161 22.2307 37.6738C22.2307 36.9911 21.7634 36.1642 21.1672 35.8219C20.8634 35.6469 20.5942 35.6296 20.3942 35.7411L18.9846 36.5719Z" fill="#F3F1FC"/>
<path d="M19.7521 36.6499C19.1521 36.3038 18.6751 36.5768 18.6713 37.2653C18.6713 37.948 19.1463 38.773 19.7444 39.1191C20.3405 39.4615 20.8174 39.1884 20.8213 38.5057C20.8213 37.8172 20.3463 36.9941 19.7521 36.6499Z" fill="#DEDFFB"/>
<path d="M7.08092 44.8909C7.45785 45.7602 8.32515 46.289 9.05015 46.3313C9.14006 46.354 9.23242 46.3657 9.32515 46.3659C10.1078 46.3659 10.4905 46.0717 10.7771 45.9159L20.2521 39.2736C20.3036 39.2375 20.3501 39.1948 20.3905 39.1467C20.5175 39.0082 20.5752 38.8698 20.5867 38.6044C20.5982 37.9717 20.1598 37.2005 19.6078 36.8775C19.354 36.7275 19.1136 36.7044 18.9405 36.7736L18.8944 36.7967L8.31169 41.5871C7.10015 42.1371 6.47515 43.6332 7.08092 44.8909Z" fill="#AA6256"/>
<path d="M7.08076 44.8911C7.45768 45.7603 8.32498 46.2892 9.04998 46.3315C9.90768 46.2546 9.54229 46.3315 19.6769 39.2507C19.7254 39.2151 19.7716 39.1766 19.8154 39.1353C19.9423 38.9969 20 38.8584 20.0115 38.5815C20.025 37.7988 19.3365 36.9084 18.8942 36.7969L8.31152 41.5873C7.09999 42.1373 6.47499 43.6334 7.08076 44.8911Z" fill="#DBA660"/>
</g>
<defs>
<filter id="filter0_dd_14932_762" x="-3" y="-2" width="112" height="112" filterUnits="userSpaceOnUse" color-interpolation-filters="sRGB">
<feFlood flood-opacity="0" result="BackgroundImageFix"/>
<feColorMatrix in="SourceAlpha" type="matrix" values="0 0 0 0 0 0 0 0 0 0 0 0 0 0 0 0 0 0 127 0" result="hardAlpha"/>
<feMorphology radius="2" operator="erode" in="SourceAlpha" result="effect1_dropShadow_14932_762"/>
<feOffset dy="2"/>
<feGaussianBlur stdDeviation="2"/>
<feColorMatrix type="matrix" values="0 0 0 0 0.0627451 0 0 0 0 0.0941176 0 0 0 0 0.156863 0 0 0 0.06 0"/>
<feBlend mode="normal" in2="BackgroundImageFix" result="effect1_dropShadow_14932_762"/>
<feColorMatrix in="SourceAlpha" type="matrix" values="0 0 0 0 0 0 0 0 0 0 0 0 0 0 0 0 0 0 127 0" result="hardAlpha"/>
<feMorphology radius="2" operator="erode" in="SourceAlpha" result="effect2_dropShadow_14932_762"/>
<feOffset dy="4"/>
<feGaussianBlur stdDeviation="4"/>
<feColorMatrix type="matrix" values="0 0 0 0 0.0627451 0 0 0 0 0.0941176 0 0 0 0 0.156863 0 0 0 0.1 0"/>
<feBlend mode="normal" in2="effect1_dropShadow_14932_762" result="effect2_dropShadow_14932_762"/>
<feBlend mode="normal" in="SourceGraphic" in2="effect2_dropShadow_14932_762" result="shape"/>
</filter>
</defs>
</svg>
