<svg width="100" height="107" viewBox="0 0 100 107" fill="none" xmlns="http://www.w3.org/2000/svg">
<g filter="url(#filter0_dd_14939_389)">
<path d="M37.6116 83.7847V86.3809L54.4385 96.1501L63.0731 91.1309C65.4001 89.7847 67.2847 86.5155 67.2847 83.8424L67.2654 77.1116L64.9962 78.4193L48.1885 68.6309V75.3616C48.1885 76.6116 47.3231 78.1309 46.2462 78.7655L37.6116 83.7847Z" fill="#1D2943"/>
<path d="M54.4384 93.5611L37.6114 83.7822L37.6191 86.3745L54.446 96.1534L54.4384 93.5611Z" fill="#1D2943"/>
<path d="M37.6135 83.7877L54.4385 93.5608L63.0616 88.5338C64.1424 87.9127 65.0193 86.3992 65.0193 85.1435L65.002 78.4262L48.1789 68.6377L48.1943 75.3685C48.1943 76.6108 47.3193 78.1396 46.2366 78.7608L37.6135 83.7877Z" fill="#4C5C75"/>
<path d="M65.0038 78.4211L65.023 85.148C65.0249 86.398 64.1442 87.9114 63.0672 88.5326L54.4384 93.5614L54.4461 96.1538L63.0749 91.1249C65.4019 89.7826 67.2865 86.5191 67.2788 83.8441L67.2596 77.1191L65.0038 78.4211Z" fill="#111D33"/>
<path d="M32.4962 20.3807C32.6134 20.3244 32.7358 20.2793 32.8616 20.2461C32.7654 20.2461 32.6693 20.2846 32.5923 20.323C32.5539 20.3422 32.5154 20.3615 32.4962 20.3807Z" fill="#4C5C75"/>
<path d="M82.6691 93.2078L82.8422 93.0924L83.0537 92.8809C82.9383 92.9962 82.8037 93.1116 82.6691 93.2078Z" fill="#B0B8CF"/>
<path d="M31.4 60.8608C31.4 62.9762 32.8807 65.5531 34.7269 66.6108L80.2846 92.9762C81.2269 93.5147 82.073 93.5531 82.6692 93.207L82.8423 93.0916L87.6115 90.3224C88.2077 89.9762 88.573 89.2454 88.573 88.207L88.65 49.8608C88.6692 47.7647 87.1884 45.1877 85.3615 44.1301L39.7846 17.7647C38.8615 17.2262 38.0153 17.1685 37.4192 17.5147L32.5923 20.3224C32.6751 20.2767 32.7671 20.2505 32.8615 20.2454C33.9096 19.9224 33.0538 20.1877 32.8615 20.2454C32.7269 20.2839 32.6115 20.3224 32.4961 20.3801C31.8807 20.7262 31.4961 21.4762 31.4961 22.5531L31.4 60.8608Z" fill="#4C5C75"/>
<path d="M32.4962 20.3797C32.6134 20.3234 32.7358 20.2783 32.8616 20.2451C32.7654 20.2451 32.6693 20.2836 32.5923 20.322C32.5539 20.3413 32.5154 20.3605 32.4962 20.3797Z" fill="#4C5C75"/>
<path d="M88.6576 49.871C88.6692 47.7594 87.1807 45.1921 85.3519 44.1248L39.7807 17.7575C38.8557 17.2191 38.023 17.171 37.4134 17.5229L32.4519 20.4075C33.0634 20.0556 33.8942 20.1017 34.8211 20.6306L80.3923 47.0094C82.2211 48.0652 83.7096 50.6441 83.7 52.7556L83.6288 91.0767C83.6173 92.1325 83.2538 92.8575 82.6557 93.2114L87.6153 90.3268C88.2115 89.9864 88.5769 89.2479 88.5769 88.2037L88.6576 49.871Z" fill="#4C5C75"/>
<path d="M34.8211 20.6339C32.9865 19.5762 31.4942 20.4281 31.4865 22.5435L31.4077 60.8665C31.4019 62.9742 32.8865 65.5454 34.7211 66.605L80.2884 92.98C82.123 94.0377 83.6173 93.1858 83.623 91.0781L83.7019 52.7569C83.7077 50.6415 82.223 48.0685 80.3884 47.0108L34.8211 20.6339Z" fill="#1D2943"/>
<path d="M31.4 56.6309V60.8616C31.4 62.977 32.8807 65.5539 34.7269 66.6116L80.2846 92.977C81.2269 93.5155 82.0731 93.5539 82.6692 93.2078C82.8038 93.1116 82.9384 92.9962 83.0538 92.8809L82.8423 93.0924L87.6115 90.3232C88.2077 89.977 88.5731 89.2462 88.5731 88.2078L88.5923 83.9578L83.6307 86.8424L31.4 56.6309Z" fill="#B0B8CF"/>
<path d="M82.6691 93.2078L82.8422 93.0924L83.0537 92.8809C82.9383 92.9962 82.8037 93.1116 82.6691 93.2078Z" fill="#B0B8CF"/>
<path d="M83.6287 91.0764L83.6229 86.8514L88.5845 83.9629L88.5768 88.2033C88.5768 89.2475 88.2114 89.986 87.6152 90.3264L82.6537 93.211C83.2537 92.8571 83.6152 92.1321 83.6287 91.0764Z" fill="#B0B8CF"/>
<path d="M31.4077 56.6377V60.8665C31.4019 62.9742 32.8865 65.5454 34.7211 66.605L80.2884 92.98C82.123 94.0377 83.6173 93.1858 83.623 91.0781V86.8512L31.4077 56.6377Z" fill="#E3E7F0"/>
<path d="M56.3768 73.0843C55.4345 72.54 54.6749 72.9746 54.673 74.0554C54.6691 75.1381 55.423 76.4458 56.3653 76.9881C57.3076 77.5323 58.0672 77.0996 58.071 76.0169C58.073 74.9362 57.3172 73.6285 56.3768 73.0843Z" fill="#1D2943"/>
<path d="M33.0462 55.8306L82.027 84.1768L82.077 52.7556C82.0924 51.2191 80.9116 49.1826 79.5866 48.4056L34.0174 22.0306C33.6443 21.8191 33.4174 21.8037 33.3366 21.8037C33.2405 21.8364 33.1116 22.0479 33.1116 22.5479L33.0462 55.8306Z" fill="white"/>
<path d="M37.2462 50.2069C37.227 52.4377 38.8039 55.1685 40.7462 56.2839L71.977 74.3031C73.0154 74.9185 73.9577 74.9185 74.5924 74.4569L74.5347 74.5146L78.1693 72.38C78.8039 71.9954 79.1885 71.2262 79.1885 70.1108L79.2847 32.7454V28.8223C79.2847 26.5723 77.7462 23.8608 75.7847 22.7262L43.6885 4.20694C42.9577 3.78386 42.2847 3.7454 41.8039 4.03386L38.1501 6.18771C37.6501 6.45694 37.3424 7.0531 37.3424 7.89925V12.8416L37.2462 50.2069Z" fill="#C9CEE2"/>
<path d="M37.3328 12.8379L37.2405 50.2014C37.2347 52.4417 38.8097 55.1629 40.752 56.2821L71.9712 74.3071C73.9231 75.434 75.5001 74.536 75.5058 72.2937L75.5981 34.9302L37.3328 12.8379Z" fill="#E3E7F0"/>
<path d="M39.9998 7.95156C39.6479 7.74772 39.3479 7.90733 39.346 8.32272L39.2383 51.1958C39.2383 52.1516 39.921 53.3362 40.7518 53.8169L71.971 71.84C72.8114 72.3266 73.4902 71.9285 73.4941 70.9746L73.5998 29.0958C73.6018 28.1304 72.9268 26.9612 72.0864 26.4766L39.9998 7.95156Z" fill="white"/>
<path d="M74.4846 74.5538L78.1596 72.3711C78.7961 72.0038 79.1788 71.225 79.1923 70.1077L79.2788 32.748L75.6019 34.9288L75.5019 72.2884C75.5019 73.4077 75.1057 74.1846 74.4827 74.5538H74.4846Z" fill="#C9CEE2"/>
<path d="M75.5981 34.9304L79.2808 32.7515L40.325 11.0996L37.3327 12.8381L75.5981 34.9304Z" fill="#C3C7CF"/>
<path d="M37.3424 7.89925V12.8416L75.5924 34.9377L75.6116 30.9954V34.9377L79.2847 32.7454V28.8223C79.2847 26.5723 77.7462 23.8608 75.7847 22.7262L43.6885 4.20694C42.9577 3.78386 42.2847 3.7454 41.8039 4.03386L38.227 6.14925C38.1885 6.16848 38.1693 6.18771 38.1308 6.20694C37.65 6.47617 37.3616 7.0531 37.3424 7.89925Z" fill="#986FF9"/>
<path d="M38.123 6.20738C38.6038 5.92468 39.2692 5.96699 40.0172 6.39199L72.0942 24.9112C74.0461 26.0439 75.6153 28.7593 75.6153 30.9958L75.6019 34.9285L79.2788 32.7478L79.2922 28.8131C79.2922 26.5785 77.7345 23.8612 75.7826 22.7305L43.6942 4.21122C42.9595 3.78622 42.2788 3.74392 41.798 4.02661L38.123 6.20738Z" fill="#986FF9"/>
<path d="M40.0115 6.39046C38.5481 5.54431 37.3519 6.21739 37.3461 7.9097L37.3327 12.8385L75.5981 34.9309L75.6096 30.9982C75.6154 28.7558 74.0481 26.0424 72.0981 24.9155L40.0115 6.39046Z" fill="#B28AFD"/>
<path d="M71.9269 27.5766C71.125 27.1131 70.4653 27.4881 70.4634 28.4093C70.4596 29.3208 71.1173 30.4555 71.9173 30.9189C72.725 31.3862 73.3692 31.0016 73.373 30.0901C73.375 29.167 72.7365 28.0439 71.9269 27.5766ZM67.2769 24.892C66.4769 24.4305 65.8154 24.8055 65.8154 25.7266C65.8115 26.6381 66.4673 27.7728 67.2673 28.2343C68.0769 28.7016 68.7211 28.317 68.723 27.4074C68.7269 26.4843 68.0884 25.3593 67.2769 24.892ZM62.6288 22.2074C61.8269 21.7458 61.1673 22.1208 61.1673 23.042C61.1634 23.9535 61.8173 25.0881 62.6192 25.5516C63.4288 26.0189 64.073 25.6343 64.075 24.7208C64.0769 23.8016 63.4403 22.6747 62.6288 22.2074ZM40.2807 9.9343C39.8923 9.7093 39.5692 9.89199 39.5692 10.3381C39.5815 10.5851 39.6521 10.8257 39.775 11.0403C39.898 11.2548 40.07 11.4373 40.2769 11.5728L53.9846 19.4881C54.375 19.7112 54.6961 19.5285 54.6961 19.0728C54.698 18.6266 54.3788 18.0728 53.9904 17.8497L40.2807 9.9343Z" fill="white"/>
<path d="M57.9171 59.6475L57.9287 55.3436L42.7306 46.5686C42.2787 46.3071 41.9191 46.5128 41.9171 47.0302L41.9114 49.4744C41.9254 49.7548 42.006 50.0278 42.1464 50.2709C42.2869 50.514 42.4832 50.7202 42.7191 50.8725L57.9171 59.6475Z" fill="#F45170"/>
<path d="M70.1057 66.6844C70.5557 66.9459 70.9153 66.7402 70.9172 66.2229L70.9249 63.7786C70.9249 63.2594 70.5672 62.6402 70.1172 62.3805L57.9288 55.344L57.9172 59.6479L70.1057 66.6844Z" fill="#F3F1FC"/>
<path d="M46.4193 36.0348V32.7463L48.6501 31.4579L49.3424 31.7463C49.3616 31.7271 49.3808 31.6694 49.4001 31.6502L48.1501 28.9963L50.977 27.3617L52.4001 26.5732L54.0539 28.9771C54.1116 28.9579 54.1693 28.9771 54.2078 28.9579L54.3039 28.2848L56.5347 26.9771L59.3808 28.6309L59.6693 31.1694C60.4385 31.8232 61.1693 32.6117 61.8231 33.4386L63.5155 32.9771L65.5155 36.4386L64.2655 37.6309C64.6545 38.6073 64.9507 39.6182 65.1501 40.6502L67.2078 42.1694L67.1885 45.4579L64.9578 46.7463L64.3039 46.4771C64.2655 46.4963 64.2655 46.554 64.227 46.5732L65.477 49.2079L63.2462 50.4963L61.227 51.6502L59.5731 49.2656H59.4193L59.3231 49.9386L57.0924 51.2463L54.2462 49.5925L53.9578 47.054C53.1885 46.4002 52.4385 45.6117 51.7847 44.7656L50.1308 45.2463L48.1116 41.7656L49.3808 40.5732C48.9578 39.5925 48.6693 38.5732 48.477 37.5732L46.4193 36.0348ZM58.3039 43.0156C58.7847 43.304 59.2655 43.4579 59.6885 43.5348C59.8424 43.1117 59.9385 42.6502 59.9385 42.0925C59.9578 39.4386 58.0924 36.2271 55.7847 34.9002C55.2847 34.6117 54.8231 34.4579 54.3808 34.3809C53.3712 37.029 55.5116 41.3867 58.3039 43.0156Z" fill="#5EC363"/>
<path d="M57.0922 51.2378L59.321 49.9436L59.6152 47.7359L57.3864 49.0321L57.0922 51.2378ZM48.4941 33.6244L50.7229 32.3282L48.6556 31.459L46.4249 32.7551L48.4941 33.6244Z" fill="#5EC363"/>
<path d="M51.6058 37.2847C51.5923 39.9309 53.4481 43.1501 55.7596 44.477C56.9192 45.1501 57.9712 45.2213 58.7269 44.777L61.2654 43.3059C60.4981 43.7482 59.4577 43.6886 58.2961 43.0174C54.6769 40.9174 52.6865 34.654 55.3519 33.1328L52.8135 34.604C52.0711 35.0347 51.6058 35.9694 51.6058 37.2847Z" fill="#72D561"/>
<path d="M50.1691 27.8596L52.3999 26.5635L50.9768 27.3577L48.148 29.0019L50.1691 27.8596Z" fill="#FFD06C"/>
<path d="M63.2443 50.5058L65.4731 49.2097L64.2308 46.577L62.0039 47.8731L63.2443 50.5058ZM51.8308 30.2635L54.0597 28.9693L52.3981 26.5654L50.1693 27.8597L51.8308 30.2635Z" fill="#5EC363"/>
<path d="M62.0037 47.8726L64.2306 46.5765C64.6768 45.991 64.9857 45.3127 65.1345 44.5919L62.9076 45.8861C62.7249 46.6861 62.4153 47.3534 62.0037 47.8726ZM54.0037 30.4861L56.2306 29.1899C55.5304 28.962 54.7894 28.8866 54.0576 28.9688L51.8306 30.263C52.5626 30.1814 53.3036 30.2575 54.0037 30.4861ZM62.9172 41.9515L65.1479 40.6572C64.9553 39.623 64.657 38.6113 64.2576 37.638L62.0268 38.9322C62.4263 39.9055 62.7246 40.9172 62.9172 41.9515ZM59.6018 34.7399L61.8326 33.4457C61.1874 32.615 60.4614 31.8503 59.6653 31.163L57.4345 32.4572C58.2309 33.1443 58.9569 33.909 59.6018 34.7399Z" fill="#72D561"/>
<path d="M64.9654 46.7516L67.1962 45.4574L67.2039 42.1689L64.975 43.4651L64.9654 46.7516Z" fill="#72D561"/>
<path d="M64.975 43.4649L67.2039 42.1688L65.1462 40.6572L62.9173 41.9515L64.975 43.4649Z" fill="#5EC363"/>
<path d="M57.1537 29.9247L59.3806 28.6305L56.5287 26.9824L54.2998 28.2786L57.1537 29.9247Z" fill="#72D561"/>
<path d="M57.4364 32.4578L59.6653 31.1636L59.3806 28.6309L57.1518 29.9251L57.4364 32.4578ZM62.0287 38.9328L64.2576 37.6366L65.5076 36.4443L63.2806 37.7386L62.0287 38.9328ZM61.2806 34.2751L63.5095 32.9789L61.8306 33.4462L59.6018 34.7405L61.2806 34.2751Z" fill="#5EC363"/>
<path d="M63.2807 37.7381L65.5095 36.4439L63.5095 32.9785L61.2788 34.2747L63.2807 37.7381Z" fill="#72D561"/>
<path d="M46.4172 36.0421L48.4749 37.5651C48.67 38.5984 48.9709 39.6089 49.3729 40.5805L48.1114 41.769L50.121 45.2382L51.7902 44.7671C52.4321 45.6 53.1577 46.3649 53.9556 47.0498L54.2402 49.5921L57.0922 51.2382L57.3883 49.0325C58.0894 49.2688 58.8343 49.3463 59.5691 49.2594L61.2306 51.6536L63.2441 50.5055L62.0037 47.8709C62.4498 47.2854 62.7587 46.6072 62.9075 45.8863L64.9652 46.7517L64.9749 43.4632L62.9172 41.9517C62.7252 40.9175 62.4275 39.9058 62.0287 38.9325L63.2806 37.7401L61.2806 34.2748L59.6018 34.7401C58.9575 33.9093 58.2321 33.1446 57.4364 32.4575L57.1518 29.9248L54.2999 28.2786L54.0037 30.4863C53.3035 30.2578 52.5626 30.1817 51.8306 30.2632L50.1691 27.8594L48.1479 29.0017L49.3979 31.6498C48.9864 32.169 48.6748 32.8344 48.4941 33.6248L46.4268 32.7555L46.4172 36.0421ZM55.7595 44.4844C53.4518 43.1498 51.5941 39.9305 51.6018 37.2786C51.6075 34.6286 53.4787 33.5613 55.7864 34.894C58.0941 36.2267 59.9537 39.4459 59.946 42.0978C59.9383 44.7498 58.0672 45.8171 55.7595 44.4844Z" fill="#78E75A"/>
</g>
<defs>
<filter id="filter0_dd_14939_389" x="-6" y="-2" width="112" height="112" filterUnits="userSpaceOnUse" color-interpolation-filters="sRGB">
<feFlood flood-opacity="0" result="BackgroundImageFix"/>
<feColorMatrix in="SourceAlpha" type="matrix" values="0 0 0 0 0 0 0 0 0 0 0 0 0 0 0 0 0 0 127 0" result="hardAlpha"/>
<feMorphology radius="2" operator="erode" in="SourceAlpha" result="effect1_dropShadow_14939_389"/>
<feOffset dy="2"/>
<feGaussianBlur stdDeviation="2"/>
<feColorMatrix type="matrix" values="0 0 0 0 0.0627451 0 0 0 0 0.0941176 0 0 0 0 0.156863 0 0 0 0.06 0"/>
<feBlend mode="normal" in2="BackgroundImageFix" result="effect1_dropShadow_14939_389"/>
<feColorMatrix in="SourceAlpha" type="matrix" values="0 0 0 0 0 0 0 0 0 0 0 0 0 0 0 0 0 0 127 0" result="hardAlpha"/>
<feMorphology radius="2" operator="erode" in="SourceAlpha" result="effect2_dropShadow_14939_389"/>
<feOffset dy="4"/>
<feGaussianBlur stdDeviation="4"/>
<feColorMatrix type="matrix" values="0 0 0 0 0.0627451 0 0 0 0 0.0941176 0 0 0 0 0.156863 0 0 0 0.1 0"/>
<feBlend mode="normal" in2="effect1_dropShadow_14939_389" result="effect2_dropShadow_14939_389"/>
<feBlend mode="normal" in="SourceGraphic" in2="effect2_dropShadow_14939_389" result="shape"/>
</filter>
</defs>
</svg>
