<svg width="100" height="107" viewBox="0 0 100 107" fill="none" xmlns="http://www.w3.org/2000/svg">
<g filter="url(#filter0_dd_14932_792)">
<path d="M27.1 11.9084L88.4846 47.3507L93.3884 44.4853L32.0038 9.04297L27.1 11.9084Z" fill="#DEDFFB"/>
<path d="M26.9654 58.7179C26.9654 60.4679 28.1769 62.6025 29.7154 63.4871L85.6 95.7563C86.3693 96.1986 87.0423 96.2371 87.5423 95.9294C87.6 95.909 87.6525 95.8761 87.6962 95.8332L92.4462 93.1025C92.9462 92.7948 93.2539 92.1794 93.2539 91.314L93.4077 44.5063L88.4846 47.3525L27.1 11.9102L26.9654 58.7179Z" fill="#DEDFFB"/>
<path d="M87.5423 95.9366L92.4519 93.0904C92.9539 92.7847 93.2596 92.1712 93.2596 91.3058L93.4 44.502L88.4904 47.3481L88.35 94.152C88.35 95.0443 88.0423 95.6577 87.5423 95.9366Z" fill="#DEDFFB"/>
<path d="M88.4808 47.3469L93.3943 44.4911L32.0097 9.04883L27.0943 11.9065L88.4808 47.3469Z" fill="#F3F1FC"/>
<path d="M27.0962 11.9062L26.9712 58.7255C26.9674 60.4659 28.1731 62.5986 29.7058 63.4812L85.6039 95.7543C87.1174 96.6293 88.352 95.9062 88.3558 94.1659L88.4808 47.3466L27.0962 11.9062Z" fill="#F3F1FC"/>
<path d="M27.0808 8.65797V11.8695L88.4846 47.331L93.3885 44.4657L93.4077 41.2541C93.4077 39.5233 92.1769 37.3695 90.6577 36.4849L34.7731 4.23489C34.0039 3.77335 33.3116 3.73489 32.8116 4.04258L28.0039 6.83104C27.4462 7.10027 27.1 7.73489 27.0808 8.65797Z" fill="#1D2943"/>
<path d="M32.8077 4.03479C33.3096 3.74441 34.0038 3.78287 34.7711 4.2271L90.6538 36.4886C92.1865 37.3733 93.4115 39.5156 93.4057 41.2559L93.3961 44.4675L88.4807 47.3271L88.4904 44.1117C88.4942 42.3733 87.2692 40.2309 85.7384 39.3463L29.8557 7.08287C29.0865 6.64056 28.3942 6.6021 27.8942 6.89056L32.8077 4.03479Z" fill="#1D2943"/>
<path d="M29.8558 7.0825C28.3231 6.19788 27.0904 6.92096 27.0866 8.66134L27.077 11.8748L88.4808 47.3267L88.4885 44.1113C88.4924 42.3729 87.2674 40.2306 85.7366 39.346L29.8558 7.0825Z" fill="#4C5C75"/>
<path d="M84.0269 40.3809C83.225 39.9194 82.5807 40.2848 82.5788 41.2059C82.575 42.1482 83.2134 43.254 84.0173 43.7175C84.8192 44.179 85.4615 43.8136 85.4634 42.8713C85.4673 41.9502 84.8288 40.8425 84.0269 40.3809ZM78.6288 37.2636C77.8269 36.8021 77.1673 37.1578 77.1634 38.079C77.1615 39.0213 77.8173 40.1367 78.6192 40.6002C79.4211 41.0636 80.0634 40.6963 80.0673 39.754C80.0692 38.8348 79.4307 37.7271 78.6288 37.2636ZM73.2134 34.1386C72.4288 33.6848 71.7692 34.0425 71.7654 34.9636C71.7634 35.9059 72.4192 37.0213 73.2038 37.4752C74.023 37.9482 74.6654 37.5809 74.6692 36.6386C74.673 35.7175 74.0346 34.6117 73.2134 34.1386ZM31.2269 10.2655C30.6211 9.91554 30.1019 10.1905 30.1 10.9078C30.098 11.6252 30.6134 12.5155 31.2192 12.8655L57.048 27.7771C57.6904 28.1482 58.1904 27.8425 58.1923 27.1252C58.1942 26.4098 57.698 25.5482 57.0577 25.179L31.2269 10.2655ZM29.9307 17.0463L29.8269 58.8309L85.5192 90.9848L85.623 49.2002L29.9307 17.0463Z" fill="white"/>
<path d="M31.7365 57.9847L83.6595 87.9655L83.698 71.0232C83.698 71.0232 83.5961 70.7732 83.473 70.7117C83.2865 70.6097 83.0788 70.877 83.1615 72.779C83.1615 72.9847 82.9961 76.9117 82.0461 76.352C81.9634 76.3117 81.8807 76.229 81.7768 76.1251C81.7576 76.0847 81.4692 75.8982 81.4268 74.679C81.4268 73.6886 80.9518 71.5597 80.4557 71.2713C80.2903 71.1886 80.1461 71.2713 80.0211 71.6213L79.2365 75.6501C79.1538 75.6501 77.7076 75.5674 77.6038 76.6001C77.5018 77.5097 77.0672 78.6251 76.5711 78.3367C76.4884 78.2943 76.4057 78.1924 76.3018 78.0674C75.7038 77.0963 75.4749 75.6924 75.4365 74.3905C75.4153 73.502 75.2499 73.129 74.6903 72.8193C74.4634 72.6751 74.1326 72.5309 73.6999 72.3655C73.5961 72.3232 73.5134 72.2828 73.4307 72.2405C72.3768 71.6213 72.6865 70.3405 72.7499 69.804C72.7903 69.329 72.5422 65.0097 72.1076 64.7617C72.0268 64.7213 71.9442 64.804 71.8615 65.0713C71.4057 66.4559 71.2826 67.7174 70.9922 67.552C70.9307 67.5097 70.848 67.4059 70.7653 67.179C70.6826 66.9943 70.6211 66.8905 70.5384 66.8482C70.1249 66.6213 69.7942 67.9232 69.7326 68.4597C69.6499 69.1213 69.0711 71.8693 68.2038 71.5809C67.3153 71.3117 66.4884 72.2213 66.0345 72.8001C65.848 73.027 65.6826 73.0463 65.5384 72.9636C65.3115 72.8193 65.0845 72.4482 64.8365 72.2001C64.797 72.1541 64.7468 72.1184 64.6903 72.0963C64.5461 72.0136 64.3403 71.9943 64.1538 71.9732C63.9624 71.9613 63.7742 71.9191 63.5961 71.8482C63.4913 71.7748 63.4002 71.6837 63.3268 71.579C62.9557 71.002 63.3692 69.5136 61.6961 68.5424C61.5711 68.4809 61.4461 68.3982 61.3038 68.3367C61.2018 68.3012 61.1049 68.2527 61.0153 68.1924C60.2268 67.7367 59.8365 67.0347 59.5672 66.3943C59.3192 65.754 59.1538 65.1751 58.823 64.9905C58.7403 64.927 58.6172 64.9059 58.473 64.927C57.6653 65.0924 56.4057 65.7347 55.4557 65.177C55.0634 64.9463 54.7115 64.5136 54.4845 63.7501C53.8653 61.6424 52.5018 54.7828 51.2826 54.0809C50.9942 53.9155 50.7249 54.0809 50.4557 54.7424C49.4018 57.4886 49.0711 61.829 47.8115 61.0847C47.4807 60.8982 47.0672 60.4232 46.5711 59.4116C46.5307 59.3905 46.5095 59.3905 46.4672 59.3693C46.3653 59.329 46.2615 59.2655 46.1788 59.2251C45.3941 58.7693 45.0211 58.0674 44.7538 57.427C44.4845 56.7866 44.3191 56.2078 44.0095 56.002C43.9057 55.9597 43.7826 55.9405 43.6384 55.9597C42.8307 56.1059 41.5711 56.7463 40.6211 56.2097C40.2288 55.9809 39.8768 55.527 39.6711 54.7617C39.0307 52.654 37.6672 45.7943 36.448 45.0924C36.1595 44.927 35.8903 45.1117 35.6403 45.754C34.5672 48.5232 34.2365 52.8405 32.998 52.1174C32.6461 51.9309 32.2538 51.3732 31.7576 50.3617L31.7365 57.9847Z" fill="#FFD06C"/>
<path d="M75.0655 46.2615C70.7039 43.7422 67.1578 45.6615 67.1424 50.5307C67.1309 55.4019 70.652 61.4019 75.0116 63.9172C75.7212 64.3368 76.4873 64.6522 77.2866 64.8538L76.1078 60.9307C75.7559 60.8192 75.3962 60.6634 75.0212 60.448C72.377 58.9211 70.2385 55.2865 70.2462 52.3211C70.2539 49.3596 72.4059 48.2019 75.052 49.7288L75.0655 46.2615Z" fill="#8FABFE"/>
<path d="M75.0655 46.2617L75.0559 49.7309C77.7001 51.2578 79.8386 54.8925 79.8309 57.854C79.8232 60.4021 78.2328 61.6078 76.1078 60.9309L77.2867 64.854C80.5424 65.6348 82.9213 63.6328 82.9328 59.6444C82.9463 54.7771 79.4194 48.7771 75.0655 46.2617Z" fill="#F45170"/>
<path d="M40.0942 41.3652L40.0846 44.9787L42.7519 46.5191L42.7634 42.9056L40.0942 41.3652Z" fill="#DBA660"/>
<path d="M48.8903 47.8848L48.8846 50.0598L51.5538 51.6002L51.5596 49.4252L48.8903 47.8848Z" fill="#FFD06C"/>
<path d="M57.6924 51.5254L57.6828 55.1408L60.3559 56.6831L60.3655 53.0677L57.6924 51.5254Z" fill="#57B3FE"/>
<path d="M57.7117 45.5654L57.6924 51.527L60.3655 53.0693L60.3828 47.1077L57.7117 45.5654Z" fill="#E9E7FC"/>
<path d="M53.3 47.1309L53.2846 52.6001L55.9519 54.1386L55.9673 48.6712L53.3 47.1309Z" fill="#B28AFD"/>
<path d="M53.3249 34.6426L53.2999 47.131L55.9672 48.6714L55.9961 36.1849L53.3249 34.6426ZM31.3326 20.7041L31.3019 33.2426L33.9749 34.7849L34.0057 22.2464L31.3326 20.7041Z" fill="#E9E7FC"/>
<path d="M31.302 33.2422L31.2828 39.896L33.9559 41.4403L33.9751 34.7864L31.302 33.2422Z" fill="#F45170"/>
<path d="M35.6962 38.3545L35.6809 42.4372L38.3539 43.9795L38.3655 39.8949L35.6962 38.3545Z" fill="#78E75A"/>
<path d="M35.7154 28.1465L35.6962 38.3542L38.3654 39.8946L38.3847 29.6869L35.7154 28.1465ZM40.1116 31.9388L40.0943 41.3657L42.7635 42.9061L42.7827 33.4811L40.1116 31.9388ZM44.5193 31.4753L44.4962 42.7734L47.1693 44.3157L47.1904 33.0176L44.5193 31.4753Z" fill="#E9E7FC"/>
<path d="M44.4961 42.7734L44.4826 47.5177L47.1557 49.0619L47.1672 44.3157L44.4961 42.7734Z" fill="#8FABFE"/>
<path d="M48.902 40.8213L48.8905 47.8828L51.5597 49.4251L51.5693 42.3617L48.902 40.8213Z" fill="#E9E7FC"/>
<path d="M7.73454 47.5809C7.8307 47.5232 7.92685 47.4655 8.04224 47.4463C7.96531 47.4655 7.90762 47.4847 7.8307 47.5232C7.79224 47.5424 7.77301 47.5617 7.73454 47.5809Z" fill="#57B3FE"/>
<path d="M7.73454 47.5809C7.8307 47.5232 7.92685 47.4655 8.04224 47.4463C7.96531 47.4655 7.90762 47.4847 7.8307 47.5232C7.79224 47.5424 7.77301 47.5617 7.73454 47.5809Z" fill="#57B3FE"/>
<path d="M6.60013 71.2544C6.5809 73.5044 8.19629 76.2737 10.1771 77.4275L41.7732 95.6775C42.754 96.2352 43.6578 96.2929 44.3117 95.9083L48.0809 93.716C48.7348 93.3506 49.1386 92.5621 49.1386 91.4467L49.1963 70.0429C49.1963 67.7929 47.6001 65.0237 45.6386 63.8891L14.0424 45.6391C13.0424 45.0621 12.1194 45.0237 11.4655 45.389L7.8309 47.5237C7.89803 47.4895 7.96907 47.4637 8.04243 47.4467C7.92705 47.466 7.8309 47.5237 7.73475 47.5814C7.06167 47.9275 6.65783 48.7352 6.65783 49.8506L6.60013 71.2544Z" fill="#57B3FE"/>
<path d="M11.4732 45.3962C12.127 45.0154 13.0347 45.0673 14.0386 45.6462L45.6443 63.8962C47.5962 65.0212 49.2001 67.8 49.1943 70.0404L49.1328 91.4423C49.1289 92.5577 48.7289 93.3442 48.0886 93.7154L44.3097 95.9115C44.9501 95.5404 45.3501 94.7519 45.3539 93.6385L45.4136 72.2385C45.4212 69.9961 43.8174 67.2173 41.8655 66.0904L10.2597 47.8423C9.25586 47.2654 8.34817 47.2115 7.6924 47.5923L11.4732 45.3962Z" fill="#5094FF"/>
<path d="M10.2597 47.8424C8.27316 46.6963 6.6597 47.6174 6.65393 49.8598L6.5924 71.2598C6.58662 73.5021 8.18855 76.279 10.1751 77.4271L41.7809 95.6732C43.7328 96.7982 45.3482 95.879 45.3539 93.6367L45.4135 72.2367C45.4212 69.9944 43.8174 67.2155 41.8655 66.0886L10.2597 47.8424Z" fill="#57B3FE"/>
<path d="M43.3653 94.6885C43.8172 94.6885 43.8845 94.0289 43.8864 93.6347L43.948 72.2327C43.9537 70.5058 42.6364 68.2289 41.1326 67.3597L9.52682 49.1116C9.07874 48.8539 8.77682 48.8154 8.64221 48.8154C8.19028 48.8154 8.12298 49.4693 8.11913 49.8635L8.05759 71.2635C8.05375 72.9904 9.38452 75.277 10.9095 76.1558L42.5153 94.4058C42.9441 94.652 43.2326 94.6885 43.3653 94.6885Z" fill="white"/>
<path d="M26.4134 65.1655L10.0999 55.7482L10.1057 53.5693L26.4134 62.9828V65.1655ZM26.4134 70.1174L10.0864 60.6924L10.0922 58.5136L26.4134 67.9366V70.1174ZM26.4134 80.0193L17.2999 74.7597L17.3076 72.5809L26.4153 77.8386L26.4134 80.0193ZM26.4134 75.0693L10.073 65.6347L10.0787 63.4559L26.4134 72.8866V75.0693Z" fill="#E3E7F0"/>
<path d="M34.827 77.3427L28.75 73.8389C28.8885 77.7139 31.6 82.3023 34.9193 84.2235C36.4827 85.1254 37.9577 85.3119 39.1116 84.7619L34.827 77.3427Z" fill="#78E75A"/>
<path d="M34.6924 69.8288C33.1405 69.0076 31.6847 68.8999 30.5731 69.5326C29.4578 70.1672 28.8193 71.4615 28.752 73.2134L34.6731 76.6307L34.6924 69.8288Z" fill="#DF3260"/>
<path d="M35.2308 70.1367L35.2116 77.1233L39.4943 84.5425C40.5443 83.831 41.127 82.4694 41.1328 80.6579C41.1462 76.8444 38.5193 72.1963 35.2308 70.1367Z" fill="#986FF9"/>
</g>
<defs>
<filter id="filter0_dd_14932_792" x="-6" y="-2" width="112" height="112" filterUnits="userSpaceOnUse" color-interpolation-filters="sRGB">
<feFlood flood-opacity="0" result="BackgroundImageFix"/>
<feColorMatrix in="SourceAlpha" type="matrix" values="0 0 0 0 0 0 0 0 0 0 0 0 0 0 0 0 0 0 127 0" result="hardAlpha"/>
<feMorphology radius="2" operator="erode" in="SourceAlpha" result="effect1_dropShadow_14932_792"/>
<feOffset dy="2"/>
<feGaussianBlur stdDeviation="2"/>
<feColorMatrix type="matrix" values="0 0 0 0 0.0627451 0 0 0 0 0.0941176 0 0 0 0 0.156863 0 0 0 0.06 0"/>
<feBlend mode="normal" in2="BackgroundImageFix" result="effect1_dropShadow_14932_792"/>
<feColorMatrix in="SourceAlpha" type="matrix" values="0 0 0 0 0 0 0 0 0 0 0 0 0 0 0 0 0 0 127 0" result="hardAlpha"/>
<feMorphology radius="2" operator="erode" in="SourceAlpha" result="effect2_dropShadow_14932_792"/>
<feOffset dy="4"/>
<feGaussianBlur stdDeviation="4"/>
<feColorMatrix type="matrix" values="0 0 0 0 0.0627451 0 0 0 0 0.0941176 0 0 0 0 0.156863 0 0 0 0.1 0"/>
<feBlend mode="normal" in2="effect1_dropShadow_14932_792" result="effect2_dropShadow_14932_792"/>
<feBlend mode="normal" in="SourceGraphic" in2="effect2_dropShadow_14932_792" result="shape"/>
</filter>
</defs>
</svg>
