<svg width="22" height="22" viewBox="0 0 22 22" fill="none" xmlns="http://www.w3.org/2000/svg">
<path d="M12.8333 17.6786L14.4833 19.25L18.3333 15.5833M15.125 13.2016C14.8547 13.0455 14.5552 12.9339 14.236 12.8766C14.1669 12.8642 14.0936 12.8554 14.0105 12.849C13.804 12.8333 13.7008 12.8255 13.5631 12.8358C13.4199 12.8465 13.3399 12.8606 13.2017 12.8996C13.0688 12.9371 12.8293 13.0455 12.3504 13.2625C11.6591 13.5756 10.8916 13.75 10.0833 13.75C9.27502 13.75 8.50748 13.5756 7.81621 13.2625C7.33722 13.0455 7.09773 12.937 6.96477 12.8995C6.82656 12.8605 6.74647 12.8464 6.60326 12.8357C6.4655 12.8255 6.36235 12.8333 6.15607 12.8491C6.07168 12.8555 5.99725 12.8646 5.92674 12.8773C4.79818 13.0816 3.91492 13.9649 3.71061 15.0934C3.66663 15.3364 3.66663 15.6278 3.66663 16.2104V17.7833C3.66663 18.2967 3.66663 18.5534 3.76654 18.7495C3.85442 18.922 3.99465 19.0622 4.16713 19.1501C4.36322 19.25 4.61991 19.25 5.13329 19.25H9.62496M13.75 6.41667C13.75 8.44171 12.1083 10.0833 10.0833 10.0833C8.05825 10.0833 6.41663 8.44171 6.41663 6.41667C6.41663 4.39162 8.05825 2.75 10.0833 2.75C12.1083 2.75 13.75 4.39162 13.75 6.41667Z" stroke="white" stroke-width="1.5" stroke-linecap="round" stroke-linejoin="round"/>
</svg>
